<?xml version="1.0" encoding="utf-8"?>
<!-- Generator: Adobe Illustrator 18.1.0, SVG Export Plug-In . SVG Version: 6.00 Build 0)  -->
<!DOCTYPE svg PUBLIC "-//W3C//DTD SVG 1.1//EN" "http://www.w3.org/Graphics/SVG/1.1/DTD/svg11.dtd" [
	<!ENTITY ns_extend "http://ns.adobe.com/Extensibility/1.0/">
	<!ENTITY ns_ai "http://ns.adobe.com/AdobeIllustrator/10.0/">
	<!ENTITY ns_graphs "http://ns.adobe.com/Graphs/1.0/">
	<!ENTITY ns_vars "http://ns.adobe.com/Variables/1.0/">
	<!ENTITY ns_imrep "http://ns.adobe.com/ImageReplacement/1.0/">
	<!ENTITY ns_sfw "http://ns.adobe.com/SaveForWeb/1.0/">
	<!ENTITY ns_custom "http://ns.adobe.com/GenericCustomNamespace/1.0/">
	<!ENTITY ns_adobe_xpath "http://ns.adobe.com/XPath/1.0/">
]>
<svg version="1.1" id="Layer_1" xmlns:x="&ns_extend;" xmlns:i="&ns_ai;" xmlns:graph="&ns_graphs;"
	 xmlns="http://www.w3.org/2000/svg" xmlns:xlink="http://www.w3.org/1999/xlink" x="0px" y="0px" viewBox="0 0 155 65"
	 enable-background="new 0 0 155 65" xml:space="preserve">
<metadata>
	<sfw  xmlns="&ns_sfw;">
		<slices></slices>
		<sliceSourceBounds  width="149" height="61.6" x="6.1" y="-66.4" bottomLeftOrigin="true"></sliceSourceBounds>
	</sfw>
</metadata>
<polyline fill-rule="evenodd" clip-rule="evenodd" fill="#5E8AB4" points="118.7,4.2 120.4,7.1 132.9,7.1 "/>
<polyline fill-rule="evenodd" clip-rule="evenodd" fill="#5E8AB4" points="118.7,4.2 122.1,4.2 132.9,7.1 "/>
<polyline fill-rule="evenodd" clip-rule="evenodd" fill="#5E8AB4" points="120.4,7.1 120.7,7.6 133.9,7.6 "/>
<polyline fill-rule="evenodd" clip-rule="evenodd" fill="#5E8AB4" points="120.4,7.1 132.9,7.1 133.9,7.6 "/>
<polyline fill-rule="evenodd" clip-rule="evenodd" fill="#5E8AB4" points="120.7,7.6 121.2,8.4 134.7,8.4 "/>
<polyline fill-rule="evenodd" clip-rule="evenodd" fill="#5E8AB4" points="120.7,7.6 133.9,7.6 134.7,8.4 "/>
<polyline fill-rule="evenodd" clip-rule="evenodd" fill="#5E8AB4" points="121.2,8.4 136,34.1 149.4,34.1 "/>
<polyline fill-rule="evenodd" clip-rule="evenodd" fill="#5E8AB4" points="121.2,8.4 134.7,8.4 149.4,34.1 "/>
<polyline fill-rule="evenodd" clip-rule="evenodd" fill="#5E8AB4" points="136,34.1 136.3,35.2 150,35.2 "/>
<polyline fill-rule="evenodd" clip-rule="evenodd" fill="#5E8AB4" points="136,34.1 149.4,34.1 150,35.2 "/>
<polyline fill-rule="evenodd" clip-rule="evenodd" fill="#5E8AB4" points="136.3,35.2 136.2,36.4 150.7,36.4 "/>
<polyline fill-rule="evenodd" clip-rule="evenodd" fill="#5E8AB4" points="136.3,35.2 150,35.2 150.7,36.4 "/>
<polyline fill-rule="evenodd" clip-rule="evenodd" fill="#5E8AB4" points="136.2,36.4 135.7,37.3 151.3,37.3 "/>
<polyline fill-rule="evenodd" clip-rule="evenodd" fill="#5E8AB4" points="136.2,36.4 150.7,36.4 151.3,37.3 "/>
<polyline fill-rule="evenodd" clip-rule="evenodd" fill="#5E8AB4" points="135.7,37.3 134.9,38.2 151.8,38.2 "/>
<polyline fill-rule="evenodd" clip-rule="evenodd" fill="#5E8AB4" points="135.7,37.3 151.3,37.3 151.8,38.2 "/>
<polyline fill-rule="evenodd" clip-rule="evenodd" fill="#5E8AB4" points="134.9,38.2 134.2,38.4 151.9,38.4 "/>
<polyline fill-rule="evenodd" clip-rule="evenodd" fill="#5E8AB4" points="134.9,38.2 151.8,38.2 151.9,38.4 "/>
<polyline fill-rule="evenodd" clip-rule="evenodd" fill="#5E8AB4" points="132.6,38.4 133,38.5 133.8,38.5 "/>
<polyline fill-rule="evenodd" clip-rule="evenodd" fill="#5E8AB4" points="134.2,38.4 134.1,38.4 151.9,38.4 "/>
<path fill-rule="evenodd" clip-rule="evenodd" fill="#5E8AB4" d="M134.2,38.4h17.8H134.2z"/>
<polyline fill-rule="evenodd" clip-rule="evenodd" fill="#5E8AB4" points="134.1,38.4 133.8,38.5 151.9,38.5 "/>
<polyline fill-rule="evenodd" clip-rule="evenodd" fill="#5E8AB4" points="134.1,38.4 151.9,38.4 151.9,38.5 "/>
<polyline fill-rule="evenodd" clip-rule="evenodd" fill="#5E8AB4" points="133,38.5 136.5,39.5 152.3,39.5 "/>
<polyline fill-rule="evenodd" clip-rule="evenodd" fill="#5E8AB4" points="133,38.5 151.9,38.5 152.3,39.5 "/>
<polyline fill-rule="evenodd" clip-rule="evenodd" fill="#5E8AB4" points="136.5,39.5 140.8,40.6 152.2,40.6 "/>
<polyline fill-rule="evenodd" clip-rule="evenodd" fill="#5E8AB4" points="136.5,39.5 152.3,39.5 152.2,40.6 "/>
<polyline fill-rule="evenodd" clip-rule="evenodd" fill="#5E8AB4" points="140.8,40.6 144.6,41.7 151.7,41.7 "/>
<polyline fill-rule="evenodd" clip-rule="evenodd" fill="#5E8AB4" points="140.8,40.6 152.2,40.6 151.7,41.7 "/>
<polyline fill-rule="evenodd" clip-rule="evenodd" fill="#5E8AB4" points="144.6,41.7 147.5,42.4 150.9,42.4 "/>
<polyline fill-rule="evenodd" clip-rule="evenodd" fill="#5E8AB4" points="144.6,41.7 151.7,41.7 150.9,42.4 "/>
<polyline fill-rule="evenodd" clip-rule="evenodd" fill="#5E8AB4" points="148.6,42.7 149.9,42.7 149.8,42.7 "/>
<polyline fill-rule="evenodd" clip-rule="evenodd" fill="#5E8AB4" points="147.5,42.4 148.6,42.7 149.9,42.7 "/>
<polyline fill-rule="evenodd" clip-rule="evenodd" fill="#5E8AB4" points="147.5,42.4 150.9,42.4 149.9,42.7 "/>
<polyline fill="none" stroke="#5E8AB4" stroke-width="0.72" stroke-linecap="round" stroke-linejoin="round" stroke-miterlimit="10" points="
	148.6,42.7 149.8,42.7 150.9,42.4 151.7,41.7 152.2,40.6 152.3,39.5 151.9,38.4 134.7,8.4 133.9,7.6 132.9,7.1 116.9,2.8 "/>
<line fill="none" stroke="#5E8AB4" stroke-width="0.72" stroke-linecap="round" stroke-linejoin="round" stroke-miterlimit="10" x1="118.7" y1="4.2" x2="136" y2="34.1"/>
<polyline fill="none" stroke="#5E8AB4" stroke-width="0.72" stroke-linecap="round" stroke-linejoin="round" stroke-miterlimit="10" points="
	132.6,38.4 133.8,38.5 134.9,38.2 135.7,37.3 136.2,36.4 136.3,35.2 136,34.1 "/>
<line fill="none" stroke="#5E8AB4" stroke-width="0.72" stroke-linecap="round" stroke-linejoin="round" stroke-miterlimit="10" x1="132.6" y1="38.4" x2="148.6" y2="42.7"/>
<polyline fill="none" stroke="#5E8AB4" stroke-width="0.72" stroke-linecap="round" stroke-linejoin="round" stroke-miterlimit="10" points="
	75.1,39.9 75.4,40.9 76,41.9 76.8,42.5 77.9,42.7 79,42.6 79.9,42.1 80.7,41.3 "/>
<polyline fill="none" stroke="#5E8AB4" stroke-width="0.72" stroke-linecap="round" stroke-linejoin="round" stroke-miterlimit="10" points="
	75.1,39.9 75.1,19 83.7,4.2 "/>
<polyline fill="none" stroke="#5E8AB4" stroke-width="0.72" stroke-linecap="round" stroke-linejoin="round" stroke-miterlimit="10" points="
	89.2,5.7 88.9,4.6 88.3,3.6 87.5,3 86.4,2.7 85.3,2.8 84.4,3.4 83.7,4.2 "/>
<polyline fill="none" stroke="#5E8AB4" stroke-width="0.72" stroke-linecap="round" stroke-linejoin="round" stroke-miterlimit="10" points="
	89.2,5.7 89.2,8.7 98.1,11.1 96.1,14.4 89.2,12.5 89.2,26.5 80.7,41.3 "/>
<polyline fill-rule="evenodd" clip-rule="evenodd" fill="#5E8AB4" points="23.5,4.6 22.9,5.7 29.3,5.7 "/>
<polyline fill-rule="evenodd" clip-rule="evenodd" fill="#5E8AB4" points="23.5,4.6 29.1,4.6 29.3,5.7 "/>
<polyline fill-rule="evenodd" clip-rule="evenodd" fill="#5E8AB4" points="22.9,5.7 15.3,19 29.3,19 "/>
<polyline fill-rule="evenodd" clip-rule="evenodd" fill="#5E8AB4" points="22.9,5.7 29.3,5.7 29.3,19 "/>
<polyline fill-rule="evenodd" clip-rule="evenodd" fill="#5E8AB4" points="15.3,19 10.8,26.5 29.3,26.5 "/>
<polyline fill-rule="evenodd" clip-rule="evenodd" fill="#5E8AB4" points="15.3,19 29.3,19 29.3,26.5 "/>
<polyline fill-rule="evenodd" clip-rule="evenodd" fill="#5E8AB4" points="4,38.5 22.3,38.5 19.9,42.7 "/>
<polyline fill-rule="evenodd" clip-rule="evenodd" fill="#5E8AB4" points="10.8,26.5 4,38.5 22.3,38.5 "/>
<polyline fill-rule="evenodd" clip-rule="evenodd" fill="#5E8AB4" points="10.8,26.5 29.3,26.5 22.3,38.5 "/>
<line fill="none" stroke="#5E8AB4" stroke-width="0.72" stroke-linecap="round" stroke-linejoin="round" stroke-miterlimit="10" x1="15.3" y1="19" x2="23.8" y2="4.2"/>
<polyline fill="none" stroke="#5E8AB4" stroke-width="0.72" stroke-linecap="round" stroke-linejoin="round" stroke-miterlimit="10" points="
	29.3,5.7 29.1,4.6 28.5,3.6 27.6,3 26.5,2.7 25.5,2.8 24.5,3.4 23.8,4.2 "/>
<polyline fill="none" stroke="#5E8AB4" stroke-width="0.72" stroke-linecap="round" stroke-linejoin="round" stroke-miterlimit="10" points="
	29.3,5.7 29.3,26.5 19.9,42.7 4,38.5 15.3,19 "/>
<polyline fill="none" stroke="#5E8AB4" stroke-width="0.72" stroke-linecap="round" stroke-linejoin="round" stroke-miterlimit="10" points="
	45.3,39.9 45.4,40.9 46,41.9 46.8,42.5 47.9,42.7 49,42.6 49.9,42.1 50.7,41.3 "/>
<polyline fill="none" stroke="#5E8AB4" stroke-width="0.72" stroke-linecap="round" stroke-linejoin="round" stroke-miterlimit="10" points="
	45.3,39.9 45.3,19 53.8,4.2 "/>
<polyline fill="none" stroke="#5E8AB4" stroke-width="0.72" stroke-linecap="round" stroke-linejoin="round" stroke-miterlimit="10" points="
	59.2,5.7 59.1,4.6 58.5,3.6 57.5,3 56.5,2.7 55.5,2.8 54.4,3.4 53.8,4.2 "/>
<polyline fill="none" stroke="#5E8AB4" stroke-width="0.72" stroke-linecap="round" stroke-linejoin="round" stroke-miterlimit="10" points="
	59.2,5.7 59.2,26.5 50.7,41.3 "/>
<polyline fill-rule="evenodd" clip-rule="evenodd" fill="#1B365D" points="28.9,4.3 29.3,5.7 37.7,5.7 "/>
<polyline fill-rule="evenodd" clip-rule="evenodd" fill="#1B365D" points="28.9,4.3 33,4.3 37.7,5.7 "/>
<polyline fill-rule="evenodd" clip-rule="evenodd" fill="#1B365D" points="29.3,5.7 29.3,7.1 43,7.1 "/>
<polyline fill-rule="evenodd" clip-rule="evenodd" fill="#1B365D" points="29.3,5.7 37.7,5.7 43,7.1 "/>
<polyline fill-rule="evenodd" clip-rule="evenodd" fill="#1B365D" points="29.3,7.1 29.3,7.7 44.2,7.7 "/>
<polyline fill-rule="evenodd" clip-rule="evenodd" fill="#1B365D" points="29.3,7.1 43,7.1 44.2,7.7 "/>
<polyline fill-rule="evenodd" clip-rule="evenodd" fill="#1B365D" points="29.3,7.7 29.3,8.7 44.9,8.7 "/>
<polyline fill-rule="evenodd" clip-rule="evenodd" fill="#1B365D" points="29.3,7.7 44.2,7.7 44.9,8.7 "/>
<polyline fill-rule="evenodd" clip-rule="evenodd" fill="#1B365D" points="29.3,8.7 29.3,10 45.3,10 "/>
<polyline fill-rule="evenodd" clip-rule="evenodd" fill="#1B365D" points="29.3,8.7 44.9,8.7 45.3,10 "/>
<polyline fill-rule="evenodd" clip-rule="evenodd" fill="#1B365D" points="29.3,10 29.3,26.5 45.3,26.5 "/>
<polyline fill-rule="evenodd" clip-rule="evenodd" fill="#1B365D" points="29.3,10 45.3,10 45.3,26.5 "/>
<polyline fill-rule="evenodd" clip-rule="evenodd" fill="#1B365D" points="29.3,26.5 29.3,35.5 45.3,35.5 "/>
<polyline fill-rule="evenodd" clip-rule="evenodd" fill="#1B365D" points="29.3,26.5 45.3,26.5 45.3,35.5 "/>
<polyline fill-rule="evenodd" clip-rule="evenodd" fill="#1B365D" points="29.3,35.5 29.5,36.9 45.3,36.9 "/>
<polyline fill-rule="evenodd" clip-rule="evenodd" fill="#1B365D" points="29.3,35.5 45.3,35.5 45.3,36.9 "/>
<polyline fill-rule="evenodd" clip-rule="evenodd" fill="#1B365D" points="29.5,36.9 30.4,37.8 45.3,37.8 "/>
<polyline fill-rule="evenodd" clip-rule="evenodd" fill="#1B365D" points="29.5,36.9 45.3,36.9 45.3,37.8 "/>
<polyline fill-rule="evenodd" clip-rule="evenodd" fill="#1B365D" points="30.4,37.8 31.5,38.4 45.3,38.4 "/>
<polyline fill-rule="evenodd" clip-rule="evenodd" fill="#1B365D" points="30.4,37.8 45.3,37.8 45.3,38.4 "/>
<polyline fill-rule="evenodd" clip-rule="evenodd" fill="#1B365D" points="31.5,38.4 36.7,39.9 45.3,39.9 "/>
<polyline fill-rule="evenodd" clip-rule="evenodd" fill="#1B365D" points="31.5,38.4 45.3,38.4 45.3,39.9 "/>
<polyline fill-rule="evenodd" clip-rule="evenodd" fill="#1B365D" points="36.7,39.9 41.4,41.1 45.5,41.1 "/>
<polyline fill-rule="evenodd" clip-rule="evenodd" fill="#1B365D" points="36.7,39.9 45.3,39.9 45.5,41.1 "/>
<polyline fill-rule="evenodd" clip-rule="evenodd" fill="#1B365D" points="45.1,42.1 46.2,42.1 47.4,42.7 "/>
<polyline fill-rule="evenodd" clip-rule="evenodd" fill="#1B365D" points="41.4,41.1 45.1,42.1 46.2,42.1 "/>
<polyline fill-rule="evenodd" clip-rule="evenodd" fill="#1B365D" points="41.4,41.1 45.5,41.1 46.2,42.1 "/>
<polyline fill-rule="evenodd" clip-rule="evenodd" fill="#1B365D" points="58.9,4.3 59.2,5.7 67.7,5.7 "/>
<polyline fill-rule="evenodd" clip-rule="evenodd" fill="#1B365D" points="58.9,4.3 63,4.3 67.7,5.7 "/>
<polyline fill-rule="evenodd" clip-rule="evenodd" fill="#1B365D" points="59.2,5.7 59.2,7.1 73,7.1 "/>
<polyline fill-rule="evenodd" clip-rule="evenodd" fill="#1B365D" points="59.2,5.7 67.7,5.7 73,7.1 "/>
<polyline fill-rule="evenodd" clip-rule="evenodd" fill="#1B365D" points="59.2,7.1 59.2,7.7 74.1,7.7 "/>
<polyline fill-rule="evenodd" clip-rule="evenodd" fill="#1B365D" points="59.2,7.1 73,7.1 74.1,7.7 "/>
<polyline fill-rule="evenodd" clip-rule="evenodd" fill="#1B365D" points="59.2,7.7 59.2,8.7 74.9,8.7 "/>
<polyline fill-rule="evenodd" clip-rule="evenodd" fill="#1B365D" points="59.2,7.7 74.1,7.7 74.9,8.7 "/>
<polyline fill-rule="evenodd" clip-rule="evenodd" fill="#1B365D" points="59.2,8.7 59.2,10 75.1,10 "/>
<polyline fill-rule="evenodd" clip-rule="evenodd" fill="#1B365D" points="59.2,8.7 74.9,8.7 75.1,10 "/>
<polyline fill-rule="evenodd" clip-rule="evenodd" fill="#1B365D" points="59.2,10 59.2,26.5 75.1,26.5 "/>
<polyline fill-rule="evenodd" clip-rule="evenodd" fill="#1B365D" points="59.2,10 75.1,10 75.1,26.5 "/>
<polyline fill-rule="evenodd" clip-rule="evenodd" fill="#1B365D" points="59.2,26.5 59.2,35.5 75.1,35.5 "/>
<polyline fill-rule="evenodd" clip-rule="evenodd" fill="#1B365D" points="59.2,26.5 75.1,26.5 75.1,35.5 "/>
<polyline fill-rule="evenodd" clip-rule="evenodd" fill="#1B365D" points="59.2,35.5 59.5,36.9 75.1,36.9 "/>
<polyline fill-rule="evenodd" clip-rule="evenodd" fill="#1B365D" points="59.2,35.5 75.1,35.5 75.1,36.9 "/>
<polyline fill-rule="evenodd" clip-rule="evenodd" fill="#1B365D" points="59.5,36.9 60.3,37.8 75.1,37.8 "/>
<polyline fill-rule="evenodd" clip-rule="evenodd" fill="#1B365D" points="59.5,36.9 75.1,36.9 75.1,37.8 "/>
<polyline fill-rule="evenodd" clip-rule="evenodd" fill="#1B365D" points="60.3,37.8 61.5,38.4 75.1,38.4 "/>
<polyline fill-rule="evenodd" clip-rule="evenodd" fill="#1B365D" points="60.3,37.8 75.1,37.8 75.1,38.4 "/>
<polyline fill-rule="evenodd" clip-rule="evenodd" fill="#1B365D" points="61.5,38.4 66.7,39.9 75.1,39.9 "/>
<polyline fill-rule="evenodd" clip-rule="evenodd" fill="#1B365D" points="61.5,38.4 75.1,38.4 75.1,39.9 "/>
<polyline fill-rule="evenodd" clip-rule="evenodd" fill="#1B365D" points="66.7,39.9 71.4,41.1 75.4,41.1 "/>
<polyline fill-rule="evenodd" clip-rule="evenodd" fill="#1B365D" points="66.7,39.9 75.1,39.9 75.4,41.1 "/>
<polyline fill-rule="evenodd" clip-rule="evenodd" fill="#1B365D" points="75.1,42.1 76.2,42.1 77.3,42.7 "/>
<polyline fill-rule="evenodd" clip-rule="evenodd" fill="#1B365D" points="71.4,41.1 75.1,42.1 76.2,42.1 "/>
<polyline fill-rule="evenodd" clip-rule="evenodd" fill="#1B365D" points="71.4,41.1 75.4,41.1 76.2,42.1 "/>
<polyline fill-rule="evenodd" clip-rule="evenodd" fill="#5E8AB4" points="53.5,4.6 52.8,5.7 59.2,5.7 "/>
<polyline fill-rule="evenodd" clip-rule="evenodd" fill="#5E8AB4" points="53.5,4.6 59.1,4.6 59.2,5.7 "/>
<polyline fill-rule="evenodd" clip-rule="evenodd" fill="#5E8AB4" points="52.8,5.7 45.3,19 59.2,19 "/>
<polyline fill-rule="evenodd" clip-rule="evenodd" fill="#5E8AB4" points="52.8,5.7 59.2,5.7 59.2,19 "/>
<polyline fill-rule="evenodd" clip-rule="evenodd" fill="#5E8AB4" points="45.3,19 45.3,26.5 59.2,26.5 "/>
<polyline fill-rule="evenodd" clip-rule="evenodd" fill="#5E8AB4" points="45.3,19 59.2,19 59.2,26.5 "/>
<polyline fill-rule="evenodd" clip-rule="evenodd" fill="#5E8AB4" points="45.3,26.5 45.3,39.9 51.6,39.9 "/>
<polyline fill-rule="evenodd" clip-rule="evenodd" fill="#5E8AB4" points="45.3,26.5 59.2,26.5 51.6,39.9 "/>
<polyline fill-rule="evenodd" clip-rule="evenodd" fill="#5E8AB4" points="45.3,39.9 45.4,40.9 50.9,40.9 "/>
<polyline fill-rule="evenodd" clip-rule="evenodd" fill="#5E8AB4" points="45.3,39.9 51.6,39.9 50.9,40.9 "/>
<polyline fill-rule="evenodd" clip-rule="evenodd" fill="#5E8AB4" points="45.4,40.9 45.6,41.3 50.7,41.3 "/>
<polyline fill-rule="evenodd" clip-rule="evenodd" fill="#5E8AB4" points="45.4,40.9 50.9,40.9 50.7,41.3 "/>
<polyline fill-rule="evenodd" clip-rule="evenodd" fill="#5E8AB4" points="45.6,41.3 46,41.9 50.3,41.9 "/>
<polyline fill-rule="evenodd" clip-rule="evenodd" fill="#5E8AB4" points="45.6,41.3 50.7,41.3 50.3,41.9 "/>
<polyline fill-rule="evenodd" clip-rule="evenodd" fill="#5E8AB4" points="46,41.9 46.5,42.1 49.9,42.1 "/>
<polyline fill-rule="evenodd" clip-rule="evenodd" fill="#5E8AB4" points="46,41.9 50.3,41.9 49.9,42.1 "/>
<polyline fill-rule="evenodd" clip-rule="evenodd" fill="#5E8AB4" points="46.5,42.1 46.8,42.5 49.3,42.5 "/>
<polyline fill-rule="evenodd" clip-rule="evenodd" fill="#5E8AB4" points="46.5,42.1 49.9,42.1 49.3,42.5 "/>
<polyline fill-rule="evenodd" clip-rule="evenodd" fill="#5E8AB4" points="47.4,42.6 49,42.6 47.9,42.7 "/>
<polyline fill-rule="evenodd" clip-rule="evenodd" fill="#5E8AB4" points="46.8,42.5 47.4,42.6 49,42.6 "/>
<polyline fill-rule="evenodd" clip-rule="evenodd" fill="#5E8AB4" points="46.8,42.5 49.3,42.5 49,42.6 "/>
<polyline fill="none" stroke="#1B365D" stroke-width="0.72" stroke-linecap="round" stroke-linejoin="round" stroke-miterlimit="10" points="
	45.3,39.9 45.3,10 44.9,8.7 44.2,7.7 43,7.1 27.1,2.8 "/>
<polyline fill="none" stroke="#1B365D" stroke-width="0.72" stroke-linecap="round" stroke-linejoin="round" stroke-miterlimit="10" points="
	29.3,5.7 28.9,4.3 28.2,3.4 27.1,2.8 "/>
<polyline fill="none" stroke="#1B365D" stroke-width="0.72" stroke-linecap="round" stroke-linejoin="round" stroke-miterlimit="10" points="
	29.3,5.7 29.3,35.5 29.5,36.9 30.4,37.8 31.5,38.4 47.4,42.7 "/>
<polyline fill="none" stroke="#1B365D" stroke-width="0.72" stroke-linecap="round" stroke-linejoin="round" stroke-miterlimit="10" points="
	45.3,39.9 45.5,41.1 46.2,42.1 47.4,42.7 "/>
<polyline fill="none" stroke="#1B365D" stroke-width="0.72" stroke-linecap="round" stroke-linejoin="round" stroke-miterlimit="10" points="
	75.1,39.9 75.1,10 74.9,8.7 74.1,7.7 73,7.1 57,2.8 "/>
<polyline fill="none" stroke="#1B365D" stroke-width="0.72" stroke-linecap="round" stroke-linejoin="round" stroke-miterlimit="10" points="
	59.2,5.7 58.9,4.3 58.2,3.4 57,2.8 "/>
<polyline fill="none" stroke="#1B365D" stroke-width="0.72" stroke-linecap="round" stroke-linejoin="round" stroke-miterlimit="10" points="
	59.2,5.7 59.2,35.5 59.5,36.9 60.3,37.8 61.5,38.4 77.3,42.7 "/>
<polyline fill="none" stroke="#1B365D" stroke-width="0.72" stroke-linecap="round" stroke-linejoin="round" stroke-miterlimit="10" points="
	75.1,39.9 75.4,41.1 76.2,42.1 77.3,42.7 "/>
<polyline fill-rule="evenodd" clip-rule="evenodd" fill="#5E8AB4" points="107.2,17.5 106.9,17.7 108.4,17.7 "/>
<polyline fill-rule="evenodd" clip-rule="evenodd" fill="#5E8AB4" points="106.9,17.7 106.3,17.9 109,17.9 "/>
<polyline fill-rule="evenodd" clip-rule="evenodd" fill="#5E8AB4" points="106.9,17.7 108.4,17.7 109,17.9 "/>
<polyline fill-rule="evenodd" clip-rule="evenodd" fill="#5E8AB4" points="106.3,17.9 106,18 109.2,18 "/>
<polyline fill-rule="evenodd" clip-rule="evenodd" fill="#5E8AB4" points="106.3,17.9 109,17.9 109.2,18 "/>
<polyline fill-rule="evenodd" clip-rule="evenodd" fill="#5E8AB4" points="106,18 105.7,18.3 109.6,18.3 "/>
<polyline fill-rule="evenodd" clip-rule="evenodd" fill="#5E8AB4" points="106,18 109.2,18 109.6,18.3 "/>
<polyline fill-rule="evenodd" clip-rule="evenodd" fill="#5E8AB4" points="105.7,18.3 105.1,19 110.3,19 "/>
<polyline fill-rule="evenodd" clip-rule="evenodd" fill="#5E8AB4" points="105.7,18.3 109.6,18.3 110.3,19 "/>
<polyline fill-rule="evenodd" clip-rule="evenodd" fill="#5E8AB4" points="105.1,19 105.1,26.7 119.1,26.7 "/>
<polyline fill-rule="evenodd" clip-rule="evenodd" fill="#5E8AB4" points="105.1,19 110.3,19 119.1,26.7 "/>
<polyline fill-rule="evenodd" clip-rule="evenodd" fill="#5E8AB4" points="105.1,26.7 105.1,39.9 111.5,39.9 "/>
<polyline fill-rule="evenodd" clip-rule="evenodd" fill="#5E8AB4" points="105.1,26.7 119.1,26.7 111.5,39.9 "/>
<polyline fill-rule="evenodd" clip-rule="evenodd" fill="#5E8AB4" points="105.1,39.9 105.3,40.9 110.8,40.9 "/>
<polyline fill-rule="evenodd" clip-rule="evenodd" fill="#5E8AB4" points="105.1,39.9 111.5,39.9 110.8,40.9 "/>
<polyline fill-rule="evenodd" clip-rule="evenodd" fill="#5E8AB4" points="105.3,40.9 105.6,41.3 110.7,41.3 "/>
<polyline fill-rule="evenodd" clip-rule="evenodd" fill="#5E8AB4" points="105.3,40.9 110.8,40.9 110.7,41.3 "/>
<polyline fill-rule="evenodd" clip-rule="evenodd" fill="#5E8AB4" points="105.6,41.3 105.9,41.9 110.2,41.9 "/>
<polyline fill-rule="evenodd" clip-rule="evenodd" fill="#5E8AB4" points="105.6,41.3 110.7,41.3 110.2,41.9 "/>
<polyline fill-rule="evenodd" clip-rule="evenodd" fill="#5E8AB4" points="105.9,41.9 106.3,42.1 109.9,42.1 "/>
<polyline fill-rule="evenodd" clip-rule="evenodd" fill="#5E8AB4" points="105.9,41.9 110.2,41.9 109.9,42.1 "/>
<polyline fill-rule="evenodd" clip-rule="evenodd" fill="#5E8AB4" points="106.3,42.1 106.8,42.5 109.2,42.5 "/>
<polyline fill-rule="evenodd" clip-rule="evenodd" fill="#5E8AB4" points="106.3,42.1 109.9,42.1 109.2,42.5 "/>
<polyline fill-rule="evenodd" clip-rule="evenodd" fill="#5E8AB4" points="107.4,42.6 109,42.6 107.8,42.7 "/>
<polyline fill-rule="evenodd" clip-rule="evenodd" fill="#5E8AB4" points="106.8,42.5 107.4,42.6 109,42.6 "/>
<polyline fill-rule="evenodd" clip-rule="evenodd" fill="#5E8AB4" points="106.8,42.5 109.2,42.5 109,42.6 "/>
<polyline fill="none" stroke="#5E8AB4" stroke-width="0.72" stroke-linecap="round" stroke-linejoin="round" stroke-miterlimit="10" points="
	109.6,18.3 108.5,17.7 107.2,17.5 106,18 105.1,19 "/>
<polyline fill="none" stroke="#5E8AB4" stroke-width="0.72" stroke-linecap="round" stroke-linejoin="round" stroke-miterlimit="10" points="
	109.6,18.3 119.1,26.7 110.7,41.3 "/>
<polyline fill="none" stroke="#5E8AB4" stroke-width="0.72" stroke-linecap="round" stroke-linejoin="round" stroke-miterlimit="10" points="
	105.1,39.9 105.3,40.9 105.9,41.9 106.8,42.5 107.8,42.7 109,42.6 109.9,42.1 110.7,41.3 "/>
<line fill="none" stroke="#5E8AB4" stroke-width="0.72" stroke-linecap="round" stroke-linejoin="round" stroke-miterlimit="10" x1="105.1" y1="39.9" x2="105.1" y2="19"/>
<polyline fill-rule="evenodd" clip-rule="evenodd" fill="#1B365D" points="113.7,4.2 108.1,13.7 124.2,13.7 "/>
<polyline fill-rule="evenodd" clip-rule="evenodd" fill="#1B365D" points="113.7,4.2 118.7,4.2 124.2,13.7 "/>
<polyline fill-rule="evenodd" clip-rule="evenodd" fill="#1B365D" points="115.3,15.7 125.4,15.7 124,18 "/>
<polyline fill-rule="evenodd" clip-rule="evenodd" fill="#1B365D" points="108.1,13.7 115.3,15.7 125.4,15.7 "/>
<polyline fill-rule="evenodd" clip-rule="evenodd" fill="#1B365D" points="108.1,13.7 124.2,13.7 125.4,15.7 "/>
<line fill="none" stroke="#1B365D" stroke-width="0.72" stroke-linecap="round" stroke-linejoin="round" stroke-miterlimit="10" x1="108.1" y1="13.7" x2="113.7" y2="4.2"/>
<polyline fill="none" stroke="#1B365D" stroke-width="0.72" stroke-linecap="round" stroke-linejoin="round" stroke-miterlimit="10" points="
	118.7,4.2 125.4,15.7 124,18 108.1,13.7 "/>
<polyline fill="none" stroke="#1B365D" stroke-width="0.72" stroke-linecap="round" stroke-linejoin="round" stroke-miterlimit="10" points="
	105.1,10 104.8,8.7 104.1,7.7 103,7.1 87,2.8 "/>
<polyline fill="none" stroke="#1B365D" stroke-width="0.72" stroke-linecap="round" stroke-linejoin="round" stroke-miterlimit="10" points="
	89.2,5.7 88.9,4.3 88.1,3.4 87,2.8 "/>
<polyline fill="none" stroke="#1B365D" stroke-width="0.72" stroke-linecap="round" stroke-linejoin="round" stroke-miterlimit="10" points="
	89.2,5.7 89.2,8.7 105.1,13 105.1,10 "/>
<polyline fill-rule="evenodd" clip-rule="evenodd" fill="#1B365D" points="88.9,4.3 89.2,5.7 97.6,5.7 "/>
<polyline fill-rule="evenodd" clip-rule="evenodd" fill="#1B365D" points="88.9,4.3 93,4.3 97.6,5.7 "/>
<polyline fill-rule="evenodd" clip-rule="evenodd" fill="#1B365D" points="89.2,5.7 89.2,7.1 103,7.1 "/>
<polyline fill-rule="evenodd" clip-rule="evenodd" fill="#1B365D" points="89.2,5.7 97.6,5.7 103,7.1 "/>
<polyline fill-rule="evenodd" clip-rule="evenodd" fill="#1B365D" points="89.2,7.1 89.2,7.7 104.1,7.7 "/>
<polyline fill-rule="evenodd" clip-rule="evenodd" fill="#1B365D" points="89.2,7.1 103,7.1 104.1,7.7 "/>
<polyline fill-rule="evenodd" clip-rule="evenodd" fill="#1B365D" points="89.2,7.7 89.2,8.7 104.8,8.7 "/>
<polyline fill-rule="evenodd" clip-rule="evenodd" fill="#1B365D" points="89.2,7.7 104.1,7.7 104.8,8.7 "/>
<path fill-rule="evenodd" clip-rule="evenodd" fill="#1B365D" d="M89.2,8.7h15.6H89.2z"/>
<path fill-rule="evenodd" clip-rule="evenodd" fill="#1B365D" d="M89.2,8.7h15.6H89.2z"/>
<polyline fill-rule="evenodd" clip-rule="evenodd" fill="#1B365D" points="93.9,10 105.1,10 105.1,13 "/>
<polyline fill-rule="evenodd" clip-rule="evenodd" fill="#1B365D" points="89.2,8.7 93.9,10 105.1,10 "/>
<polyline fill-rule="evenodd" clip-rule="evenodd" fill="#1B365D" points="89.2,8.7 104.8,8.7 105.1,10 "/>
<polyline fill-rule="evenodd" clip-rule="evenodd" fill="#1B365D" points="89.2,12.5 89.2,16.8 105.1,16.8 "/>
<polyline fill-rule="evenodd" clip-rule="evenodd" fill="#1B365D" points="89.2,16.8 89.2,35.5 105.1,35.5 "/>
<polyline fill-rule="evenodd" clip-rule="evenodd" fill="#1B365D" points="89.2,16.8 105.1,16.8 105.1,35.5 "/>
<polyline fill-rule="evenodd" clip-rule="evenodd" fill="#1B365D" points="89.2,35.5 89.4,36.9 105.1,36.9 "/>
<polyline fill-rule="evenodd" clip-rule="evenodd" fill="#1B365D" points="89.2,35.5 105.1,35.5 105.1,36.9 "/>
<polyline fill-rule="evenodd" clip-rule="evenodd" fill="#1B365D" points="89.4,36.9 90.3,37.8 105.1,37.8 "/>
<polyline fill-rule="evenodd" clip-rule="evenodd" fill="#1B365D" points="89.4,36.9 105.1,36.9 105.1,37.8 "/>
<polyline fill-rule="evenodd" clip-rule="evenodd" fill="#1B365D" points="90.3,37.8 91.3,38.4 105.1,38.4 "/>
<polyline fill-rule="evenodd" clip-rule="evenodd" fill="#1B365D" points="90.3,37.8 105.1,37.8 105.1,38.4 "/>
<polyline fill-rule="evenodd" clip-rule="evenodd" fill="#1B365D" points="91.3,38.4 96.6,39.9 105.1,39.9 "/>
<polyline fill-rule="evenodd" clip-rule="evenodd" fill="#1B365D" points="91.3,38.4 105.1,38.4 105.1,39.9 "/>
<polyline fill-rule="evenodd" clip-rule="evenodd" fill="#1B365D" points="96.6,39.9 101.3,41.1 105.4,41.1 "/>
<polyline fill-rule="evenodd" clip-rule="evenodd" fill="#1B365D" points="96.6,39.9 105.1,39.9 105.4,41.1 "/>
<polyline fill-rule="evenodd" clip-rule="evenodd" fill="#1B365D" points="105.1,42.1 106.2,42.1 107.3,42.7 "/>
<polyline fill-rule="evenodd" clip-rule="evenodd" fill="#1B365D" points="101.3,41.1 105.1,42.1 106.2,42.1 "/>
<polyline fill-rule="evenodd" clip-rule="evenodd" fill="#1B365D" points="101.3,41.1 105.4,41.1 106.2,42.1 "/>
<polyline fill="none" stroke="#1B365D" stroke-width="0.72" stroke-linecap="round" stroke-linejoin="round" stroke-miterlimit="10" points="
	89.2,35.5 89.4,36.9 90.3,37.8 91.3,38.4 107.3,42.7 "/>
<polyline fill="none" stroke="#1B365D" stroke-width="0.72" stroke-linecap="round" stroke-linejoin="round" stroke-miterlimit="10" points="
	105.1,39.9 105.4,41.1 106.2,42.1 107.3,42.7 "/>
<polyline fill="none" stroke="#1B365D" stroke-width="0.72" stroke-linecap="round" stroke-linejoin="round" stroke-miterlimit="10" points="
	105.1,39.9 105.1,16.8 89.2,12.5 89.2,35.5 "/>
<polyline fill-rule="evenodd" clip-rule="evenodd" fill="#1B365D" points="108.4,17.7 109,17.9 109.3,17.9 "/>
<polyline fill-rule="evenodd" clip-rule="evenodd" fill="#1B365D" points="109,17.9 109.6,18.3 110.8,18.3 "/>
<polyline fill-rule="evenodd" clip-rule="evenodd" fill="#1B365D" points="109,17.9 109.3,17.9 110.8,18.3 "/>
<polyline fill-rule="evenodd" clip-rule="evenodd" fill="#1B365D" points="109.6,18.3 113.7,22 124.3,22 "/>
<polyline fill-rule="evenodd" clip-rule="evenodd" fill="#1B365D" points="109.6,18.3 110.8,18.3 124.3,22 "/>
<polyline fill-rule="evenodd" clip-rule="evenodd" fill="#1B365D" points="113.7,22 113.9,22.2 124.9,22.2 "/>
<polyline fill-rule="evenodd" clip-rule="evenodd" fill="#1B365D" points="113.7,22 124.3,22 124.9,22.2 "/>
<polyline fill-rule="evenodd" clip-rule="evenodd" fill="#1B365D" points="113.9,22.2 114.4,22.6 125.5,22.6 "/>
<polyline fill-rule="evenodd" clip-rule="evenodd" fill="#1B365D" points="113.9,22.2 124.9,22.2 125.5,22.6 "/>
<polyline fill-rule="evenodd" clip-rule="evenodd" fill="#1B365D" points="114.4,22.6 122.2,29.5 133.3,29.5 "/>
<polyline fill-rule="evenodd" clip-rule="evenodd" fill="#1B365D" points="114.4,22.6 125.5,22.6 133.3,29.5 "/>
<polyline fill-rule="evenodd" clip-rule="evenodd" fill="#1B365D" points="122.2,29.5 127.3,34.1 136,34.1 "/>
<polyline fill-rule="evenodd" clip-rule="evenodd" fill="#1B365D" points="122.2,29.5 133.3,29.5 136,34.1 "/>
<polyline fill-rule="evenodd" clip-rule="evenodd" fill="#1B365D" points="127.3,34.1 128.5,35.2 136.3,35.2 "/>
<polyline fill-rule="evenodd" clip-rule="evenodd" fill="#1B365D" points="127.3,34.1 136,34.1 136.3,35.2 "/>
<polyline fill-rule="evenodd" clip-rule="evenodd" fill="#1B365D" points="128.5,35.2 129.9,36.4 136.2,36.4 "/>
<polyline fill-rule="evenodd" clip-rule="evenodd" fill="#1B365D" points="128.5,35.2 136.3,35.2 136.2,36.4 "/>
<polyline fill-rule="evenodd" clip-rule="evenodd" fill="#1B365D" points="129.9,36.4 131.1,37.5 135.7,37.5 "/>
<polyline fill-rule="evenodd" clip-rule="evenodd" fill="#1B365D" points="129.9,36.4 136.2,36.4 135.7,37.5 "/>
<polyline fill-rule="evenodd" clip-rule="evenodd" fill="#1B365D" points="131.1,37.5 131.4,37.8 135.3,37.8 "/>
<polyline fill-rule="evenodd" clip-rule="evenodd" fill="#1B365D" points="131.1,37.5 135.7,37.5 135.3,37.8 "/>
<polyline fill-rule="evenodd" clip-rule="evenodd" fill="#1B365D" points="131.4,37.8 132.1,38.2 134.8,38.2 "/>
<polyline fill-rule="evenodd" clip-rule="evenodd" fill="#1B365D" points="131.4,37.8 135.3,37.8 134.8,38.2 "/>
<polyline fill-rule="evenodd" clip-rule="evenodd" fill="#1B365D" points="132.5,38.4 134.2,38.4 133.7,38.5 "/>
<polyline fill-rule="evenodd" clip-rule="evenodd" fill="#1B365D" points="132.1,38.2 132.5,38.4 134.2,38.4 "/>
<polyline fill-rule="evenodd" clip-rule="evenodd" fill="#1B365D" points="132.1,38.2 134.8,38.2 134.2,38.4 "/>
<polyline fill="none" stroke="#1B365D" stroke-width="0.72" stroke-linecap="round" stroke-linejoin="round" stroke-miterlimit="10" points="
	124.3,22 125.5,22.6 133.3,29.5 136,34.1 "/>
<polyline fill="none" stroke="#1B365D" stroke-width="0.72" stroke-linecap="round" stroke-linejoin="round" stroke-miterlimit="10" points="
	131.4,37.8 132.5,38.4 133.7,38.5 134.8,38.2 135.7,37.5 136.2,36.4 136.3,35.2 136,34.1 "/>
<polyline fill="none" stroke="#1B365D" stroke-width="0.72" stroke-linecap="round" stroke-linejoin="round" stroke-miterlimit="10" points="
	131.4,37.8 109.6,18.3 108.4,17.7 124.3,22 "/>
<polyline fill-rule="evenodd" clip-rule="evenodd" fill="#1B365D" points="8.2,46.8 6.9,46.8 5.7,53.9 7,53.9 7.8,49.5 "/>
<polyline fill-rule="evenodd" clip-rule="evenodd" fill="#1B365D" points="8.2,46.8 7.8,49.5 9.3,53.9 9.9,51.7 "/>
<polyline fill-rule="evenodd" clip-rule="evenodd" fill="#1B365D" points="12.9,46.8 11.5,46.8 9.9,51.7 9.3,53.9 10.5,53.9 
	11.9,49.5 "/>
<polyline fill-rule="evenodd" clip-rule="evenodd" fill="#1B365D" points="12.9,46.8 11.9,49.5 12.7,53.9 14.1,53.9 "/>
<polyline fill-rule="evenodd" clip-rule="evenodd" fill="#1B365D" points="18.6,46.8 17.3,46.8 14.5,53.9 16,53.9 16.5,52.5 
	19.3,52.5 17.1,51.1 17.9,48.7 "/>
<polyline fill-rule="evenodd" clip-rule="evenodd" fill="#1B365D" points="18.6,46.8 17.9,48.7 18.9,51.1 17.1,51.1 19.3,52.5 
	19.9,53.9 21.4,53.9 "/>
<polyline fill-rule="evenodd" clip-rule="evenodd" fill="#1B365D" points="23.8,46.8 22.5,46.8 22.5,53.9 23.8,53.9 23.8,49.2 "/>
<polyline fill-rule="evenodd" clip-rule="evenodd" fill="#1B365D" points="23.8,46.8 23.8,49.2 26.8,53.9 26.8,51.5 "/>
<polyline fill-rule="evenodd" clip-rule="evenodd" fill="#1B365D" points="28.1,46.8 26.8,46.8 26.8,53.9 28.1,53.9 "/>
<polyline fill-rule="evenodd" clip-rule="evenodd" fill="#1B365D" points="31.1,46.8 29.7,46.8 29.7,51.6 29.8,51.9 29.8,52.5 
	29.9,52.6 29.9,52.8 32.1,52.8 31.8,52.7 31.7,52.7 31.5,52.6 31.3,52.6 31.2,52.5 31.1,52.2 31.1,51.4 "/>
<polyline fill-rule="evenodd" clip-rule="evenodd" fill="#1B365D" points="34.5,46.8 33.1,46.8 33.1,52 33,52.1 33,52.3 32.9,52.5 
	32.7,52.6 32.7,52.7 32.4,52.7 32.3,52.8 29.9,52.8 30,52.9 30,53.1 30.1,53.2 30.3,53.3 30.4,53.5 30.6,53.7 30.7,53.8 31,53.8 
	31.1,53.9 31.3,54 32.8,54 32.9,53.9 33.1,53.9 33.3,53.8 33.5,53.7 33.6,53.5 33.7,53.4 33.9,53.3 34,53.2 34.1,53.1 34.2,52.8 
	34.3,52.7 34.3,52.5 34.5,52.3 34.5,51 "/>
<polyline fill-rule="evenodd" clip-rule="evenodd" fill="#1B365D" points="40,46.8 36.1,46.8 36.1,53.9 40,53.9 40,52.6 37.5,52.6 
	37.5,50.7 40,50.7 40,49.5 37.5,49.5 37.5,48.1 40,48.1 "/>
<polyline fill-rule="evenodd" clip-rule="evenodd" fill="#1B365D" points="42.6,46.8 41.3,46.8 41.3,53.9 44.5,53.9 44.5,52.6 
	42.6,52.6 "/>
<rect x="48.4" y="46.8" fill-rule="evenodd" clip-rule="evenodd" fill="#1B365D" width="1.3" height="7.1"/>
<polyline fill-rule="evenodd" clip-rule="evenodd" fill="#1B365D" points="52.6,46.8 51.3,46.8 51.3,53.9 54.5,53.9 54.5,52.6 
	52.6,52.6 "/>
<polyline fill-rule="evenodd" clip-rule="evenodd" fill="#1B365D" points="57,46.8 55.7,46.8 55.7,53.9 58.9,53.9 58.9,52.6 
	57,52.6 "/>
<polyline fill-rule="evenodd" clip-rule="evenodd" fill="#1B365D" points="64,46.8 60.1,46.8 60.1,53.9 64,53.9 64,52.6 61.5,52.6 
	61.5,50.7 64,50.7 64,49.5 61.5,49.5 61.5,48.1 64,48.1 "/>
<polyline fill-rule="evenodd" clip-rule="evenodd" fill="#1B365D" points="65.8,51.9 64.7,52.6 64.7,52.7 64.8,52.9 64.9,53.1 
	65.1,53.2 65.2,53.4 65.3,53.5 65.4,53.7 65.7,53.7 65.7,53.8 65.8,53.8 66,53.9 66.1,54 67.7,54 67.9,53.9 68.1,53.8 68.2,53.8 
	68.4,53.7 68.5,53.5 68.5,53.4 68.7,53.3 68.8,53.2 68.9,53.1 69,52.8 66.7,52.8 66.6,52.7 66.5,52.7 66.3,52.6 66.1,52.5 66,52.2 
	65.9,52.1 "/>
<polyline fill-rule="evenodd" clip-rule="evenodd" fill="#1B365D" points="65.1,47.9 65.1,48 64.9,48.3 64.9,48.5 65.1,48.7 
	65.1,48.9 65.2,49.1 65.2,49.2 65.3,49.5 65.4,49.6 65.5,49.7 65.7,49.8 65.8,49.9 65.9,50.2 66,50.3 66.3,50.4 66.4,50.5 
	66.6,50.8 66.9,50.9 67,51 67.1,51.1 67.2,51.3 67.5,51.5 67.6,51.5 67.6,51.6 67.7,51.7 67.7,52 67.8,52.1 67.7,52.3 67.7,52.5 
	67.6,52.6 67.5,52.6 67.3,52.7 67.2,52.8 67,52.8 69,52.8 69,52.5 69.1,52.2 69.1,51.9 69,51.6 69,51.4 68.9,51.3 68.9,51.1 
	68.8,50.9 68.7,50.8 68.5,50.7 68.3,50.4 68.2,50.3 68.1,50.2 67.8,50.1 67.7,49.8 67.5,49.7 67.2,49.5 67,49.3 66.9,49.1 66.7,49 
	66.6,48.9 66.5,48.9 66.4,48.7 66.4,48.6 66.3,48.4 66.4,48.3 66.5,48.1 66.5,48 66.7,48 66.9,47.9 "/>
<polyline fill-rule="evenodd" clip-rule="evenodd" fill="#1B365D" points="67,46.7 66.4,46.7 66.1,46.8 66,46.8 65.9,46.9 
	65.7,47.1 65.5,47.2 65.5,47.3 65.3,47.4 65.3,47.5 65.2,47.7 65.1,47.9 67.1,47.9 67.2,48 67.3,48.1 67.6,48.1 67.7,48.3 
	67.8,48.5 67.9,48.6 69,47.8 68.8,47.7 68.7,47.4 68.5,47.3 68.4,47.2 68.2,47.1 68.1,46.9 67.9,46.9 67.8,46.8 67.7,46.8 
	67.5,46.7 67.1,46.7 "/>
<polyline fill-rule="evenodd" clip-rule="evenodd" fill="#1B365D" points="76,51.7 75.9,51.9 75.6,52.1 75.5,52.2 75.4,52.3 
	75.3,52.5 75,52.5 74.9,52.6 74.8,52.6 74.7,52.7 74.3,52.7 74.1,52.8 73.8,52.8 76.7,52.9 76.9,52.7 "/>
<polyline fill-rule="evenodd" clip-rule="evenodd" fill="#1B365D" points="76.8,47.9 73.8,47.9 73.9,48 74.5,48 74.7,48.1 
	74.9,48.1 75,48.3 75.1,48.4 75.4,48.4 75.5,48.5 75.6,48.6 75.9,48.9 76,49 76.9,48 "/>
<polyline fill-rule="evenodd" clip-rule="evenodd" fill="#1B365D" points="73.8,46.7 73,46.7 72.9,46.8 72.6,46.8 72.5,46.9 
	72.3,46.9 72.1,47.1 71.9,47.2 71.8,47.3 71.5,47.3 71.4,47.4 71.3,47.5 71.2,47.8 71.1,47.9 70.9,48 70.8,48.1 70.7,48.3 
	70.6,48.5 70.5,48.6 70.3,48.9 70.3,49 70.2,49.2 70.2,49.3 70.1,49.6 70.1,51 70.2,51.3 70.2,51.6 70.3,51.7 70.3,52 70.5,52.1 
	70.6,52.3 70.7,52.5 70.7,52.6 70.8,52.7 70.9,52.9 71.2,53.1 71.3,53.2 71.4,53.3 71.7,53.4 71.8,53.5 71.9,53.7 72.1,53.8 
	72.3,53.8 72.5,53.9 72.6,53.9 72.9,54 74.7,54 74.9,53.9 75.3,53.9 75.4,53.8 75.5,53.8 75.6,53.7 75.7,53.7 76,53.5 76.1,53.4 
	76.2,53.3 76.3,53.2 76.6,53.1 76.7,52.9 73.8,52.8 73.5,52.8 73.3,52.7 73.1,52.7 73,52.6 72.7,52.6 72.6,52.5 72.5,52.5 
	72.4,52.3 72.3,52.2 72,52.1 71.9,52 71.8,51.7 71.8,51.6 71.7,51.5 71.5,51.4 71.5,50.9 71.4,50.8 71.4,49.8 71.5,49.6 71.5,49.5 
	71.7,49.2 71.8,49.1 71.9,49 72,48.7 72.1,48.6 72.3,48.5 72.4,48.4 72.5,48.3 72.7,48.3 72.9,48.1 73.1,48 73.6,48 73.8,47.9 
	76.8,47.9 76.7,47.8 76.5,47.7 76.3,47.5 76.2,47.4 76.1,47.3 75.9,47.2 75.7,47.1 75.5,47.1 75.4,46.9 75.1,46.9 75,46.8 
	74.8,46.8 74.7,46.7 74.1,46.7 "/>
<polyline fill-rule="evenodd" clip-rule="evenodd" fill="#1B365D" points="81.6,46.8 80.3,46.8 77.5,53.9 79,53.9 79.5,52.5 
	82.3,52.5 80.1,51.1 80.9,48.7 "/>
<polyline fill-rule="evenodd" clip-rule="evenodd" fill="#1B365D" points="81.6,46.8 80.9,48.7 81.9,51.1 80.1,51.1 82.3,52.5 
	82.9,53.9 84.4,53.9 "/>
<polyline fill-rule="evenodd" clip-rule="evenodd" fill="#1B365D" points="85.9,51.9 84.9,52.6 84.9,52.7 85,52.9 85.1,53.1 
	85.2,53.2 85.3,53.4 85.5,53.5 85.6,53.7 85.8,53.7 85.8,53.8 85.9,53.8 86.2,53.9 86.3,54 87.9,54 88.1,53.9 88.2,53.8 88.3,53.8 
	88.6,53.7 88.7,53.5 88.7,53.4 88.8,53.3 88.9,53.2 89.1,53.1 89.2,52.8 86.9,52.8 86.8,52.7 86.7,52.7 86.4,52.6 86.3,52.5 
	86.2,52.2 86.1,52.1 "/>
<polyline fill-rule="evenodd" clip-rule="evenodd" fill="#1B365D" points="85.2,47.9 85.2,48 85.1,48.3 85.1,48.5 85.2,48.7 
	85.2,48.9 85.3,49.1 85.3,49.2 85.5,49.5 85.6,49.6 85.7,49.7 85.8,49.8 85.9,49.9 86.1,50.2 86.2,50.3 86.4,50.4 86.5,50.5 
	86.8,50.8 87,50.9 87.1,51 87.3,51.1 87.4,51.3 87.6,51.5 87.7,51.5 87.7,51.6 87.9,51.7 87.9,52 88,52.1 87.9,52.3 87.9,52.5 
	87.7,52.6 87.6,52.6 87.5,52.7 87.4,52.8 87.1,52.8 89.2,52.8 89.2,52.5 89.3,52.2 89.3,51.9 89.2,51.6 89.2,51.4 89.1,51.3 
	89.1,51.1 88.9,50.9 88.8,50.8 88.7,50.7 88.5,50.4 88.3,50.3 88.2,50.2 88,50.1 87.9,49.8 87.6,49.7 87.4,49.5 87.1,49.3 87,49.1 
	86.9,49 86.8,48.9 86.7,48.9 86.5,48.7 86.5,48.6 86.4,48.4 86.5,48.3 86.7,48.1 86.7,48 86.9,48 87,47.9 "/>
<polyline fill-rule="evenodd" clip-rule="evenodd" fill="#1B365D" points="87.1,46.7 86.5,46.7 86.3,46.8 86.2,46.8 86.1,46.9 
	85.8,47.1 85.7,47.2 85.7,47.3 85.5,47.4 85.5,47.5 85.3,47.7 85.2,47.9 87.3,47.9 87.4,48 87.5,48.1 87.7,48.1 87.9,48.3 88,48.5 
	88.1,48.6 89.2,47.8 88.9,47.7 88.8,47.4 88.7,47.3 88.6,47.2 88.3,47.1 88.2,46.9 88.1,46.9 88,46.8 87.9,46.8 87.6,46.7 
	87.3,46.7 "/>
<polyline fill-rule="evenodd" clip-rule="evenodd" fill="#1B365D" points="96.9,46.8 95.5,46.8 92.8,53.9 94.2,53.9 94.7,52.5 
	97.6,52.5 95.3,51.1 96.1,48.7 "/>
<polyline fill-rule="evenodd" clip-rule="evenodd" fill="#1B365D" points="96.9,46.8 96.1,48.7 97.1,51.1 95.3,51.1 97.6,52.5 
	98.2,53.9 99.6,53.9 "/>
<polyline fill-rule="evenodd" clip-rule="evenodd" fill="#1B365D" points="101.1,51.9 100,52.6 100,52.7 100.1,52.9 100.2,53.1 
	100.3,53.2 100.5,53.4 100.6,53.5 100.7,53.7 100.9,53.7 100.9,53.8 101.1,53.8 101.3,53.9 101.4,54 103,54 103.2,53.9 103.3,53.8 
	103.5,53.8 103.7,53.7 103.8,53.5 103.8,53.4 103.9,53.3 104.1,53.2 104.2,53.1 104.3,52.8 102,52.8 101.9,52.7 101.8,52.7 
	101.5,52.6 101.4,52.5 101.3,52.2 101.2,52.1 "/>
<polyline fill-rule="evenodd" clip-rule="evenodd" fill="#1B365D" points="100.3,47.9 100.3,48 100.2,48.3 100.2,48.5 100.3,48.7 
	100.3,48.9 100.5,49.1 100.5,49.2 100.6,49.5 100.7,49.6 100.8,49.7 100.9,49.8 101.1,49.9 101.2,50.2 101.3,50.3 101.5,50.4 
	101.7,50.5 101.9,50.8 102.1,50.9 102.3,51 102.4,51.1 102.5,51.3 102.7,51.5 102.9,51.5 102.9,51.6 103,51.7 103,52 103.1,52.1 
	103,52.3 103,52.5 102.9,52.6 102.7,52.6 102.6,52.7 102.5,52.8 102.3,52.8 104.3,52.8 104.3,52.5 104.4,52.2 104.4,51.9 
	104.3,51.6 104.3,51.4 104.2,51.3 104.2,51.1 104.1,50.9 103.9,50.8 103.8,50.7 103.6,50.4 103.5,50.3 103.3,50.2 103.1,50.1 
	103,49.8 102.7,49.7 102.5,49.5 102.3,49.3 102.1,49.1 102,49 101.9,48.9 101.8,48.9 101.7,48.7 101.7,48.6 101.5,48.4 101.7,48.3 
	101.8,48.1 101.8,48 102,48 102.1,47.9 "/>
<polyline fill-rule="evenodd" clip-rule="evenodd" fill="#1B365D" points="102.3,46.7 101.7,46.7 101.4,46.8 101.3,46.8 101.2,46.9 
	100.9,47.1 100.8,47.2 100.8,47.3 100.6,47.4 100.6,47.5 100.5,47.7 100.3,47.9 102.4,47.9 102.5,48 102.6,48.1 102.9,48.1 
	103,48.3 103.1,48.5 103.2,48.6 104.3,47.8 104.1,47.7 103.9,47.4 103.8,47.3 103.7,47.2 103.5,47.1 103.3,46.9 103.2,46.9 
	103.1,46.8 103,46.8 102.7,46.7 102.4,46.7 "/>
<polyline fill-rule="evenodd" clip-rule="evenodd" fill="#1B365D" points="111.6,47.9 108.9,48 109.6,48 109.8,48.1 109.9,48.3 
	110.1,48.3 110.3,48.4 110.4,48.5 110.5,48.6 110.7,48.7 110.8,49 110.9,49.1 111,49.2 111,49.5 111.1,49.6 111.1,49.8 111.3,49.9 
	111.3,50.8 111.1,50.9 111.1,51.1 111,51.3 111,51.5 110.9,51.6 110.8,51.7 110.7,52 110.5,52.1 110.3,52.3 110.2,52.3 110.1,52.5 
	109.8,52.6 109.7,52.7 109.3,52.7 109.1,52.8 106.1,52.8 106.3,52.9 106.3,53.1 106.5,53.2 106.6,53.3 106.8,53.4 106.9,53.5 
	107.1,53.7 107.3,53.7 107.4,53.8 107.5,53.9 107.8,53.9 107.9,54 109.7,54 109.9,53.9 110.3,53.9 110.4,53.8 110.5,53.7 
	110.8,53.7 110.9,53.5 111,53.4 111.3,53.3 111.4,53.2 111.5,53.1 111.5,52.9 111.6,52.8 111.7,52.7 111.9,52.6 112,52.3 
	112.1,52.2 112.2,52.1 112.3,51.9 112.3,51.7 112.5,51.5 112.5,51.1 112.6,51 112.6,49.7 112.5,49.6 112.5,49.3 112.3,49.2 
	112.3,49 112.2,48.9 112.2,48.6 112.1,48.5 112,48.4 111.9,48.1 111.7,48 "/>
<polyline fill-rule="evenodd" clip-rule="evenodd" fill="#1B365D" points="109,46.7 108.1,46.7 108,46.8 107.8,46.8 107.7,46.9 
	107.4,46.9 107.3,47.1 107.1,47.2 106.9,47.3 106.7,47.3 106.6,47.4 106.5,47.5 106.3,47.8 106.2,47.9 106.1,48 106,48.1 
	105.9,48.4 105.7,48.5 105.6,48.6 105.5,48.9 105.5,49 105.4,49.2 105.4,49.3 105.3,49.6 105.3,51.1 105.4,51.4 105.4,51.5 
	105.5,51.7 105.5,51.9 105.6,52 105.7,52.2 105.9,52.3 105.9,52.6 106,52.7 106.1,52.8 109,52.8 108.6,52.8 108.5,52.7 108.3,52.7 
	108.1,52.6 107.9,52.6 107.8,52.5 107.5,52.3 107.4,52.2 107.3,52.1 107.2,52 107.1,51.9 106.9,51.6 106.8,51.5 106.8,51.4 
	106.7,51.1 106.7,51 106.6,50.8 106.6,49.9 106.7,49.8 106.7,49.5 106.8,49.2 106.9,49.1 107.1,49 107.2,48.7 107.3,48.6 
	107.5,48.5 107.7,48.4 107.8,48.3 108,48.1 108.1,48.1 108.4,48 108.9,48 111.6,47.9 111.5,47.8 111.4,47.7 111.3,47.4 111,47.3 
	110.9,47.3 110.8,47.2 110.5,47.1 110.4,46.9 110.2,46.9 110.1,46.8 109.9,46.8 109.7,46.7 109.1,46.7 "/>
<polyline fill-rule="evenodd" clip-rule="evenodd" fill="#1B365D" points="119.3,51.7 119.2,51.9 118.9,52.1 118.8,52.2 118.7,52.3 
	118.6,52.5 118.3,52.5 118.2,52.6 118.1,52.6 118,52.7 117.6,52.7 117.4,52.8 117.1,52.8 120,52.9 120.3,52.7 "/>
<polyline fill-rule="evenodd" clip-rule="evenodd" fill="#1B365D" points="120.1,47.9 117.1,47.9 117.3,48 117.9,48 118,48.1 
	118.2,48.1 118.3,48.3 118.5,48.4 118.7,48.4 118.8,48.5 118.9,48.6 119.2,48.9 119.3,49 120.3,48 "/>
<polyline fill-rule="evenodd" clip-rule="evenodd" fill="#1B365D" points="117.1,46.7 116.3,46.7 116.2,46.8 115.9,46.8 115.8,46.9 
	115.6,46.9 115.5,47.1 115.2,47.2 115.1,47.3 114.9,47.3 114.7,47.4 114.6,47.5 114.5,47.8 114.4,47.9 114.3,48 114.1,48.1 
	114,48.3 113.9,48.5 113.8,48.6 113.7,48.9 113.7,49 113.5,49.2 113.5,49.3 113.4,49.6 113.4,51 113.5,51.3 113.5,51.6 113.7,51.7 
	113.7,52 113.8,52.1 113.9,52.3 114,52.5 114,52.6 114.1,52.7 114.3,52.9 114.5,53.1 114.6,53.2 114.7,53.3 115,53.4 115.1,53.5 
	115.2,53.7 115.5,53.8 115.6,53.8 115.8,53.9 115.9,53.9 116.2,54 118,54 118.2,53.9 118.6,53.9 118.7,53.8 118.8,53.8 118.9,53.7 
	119.1,53.7 119.3,53.5 119.4,53.4 119.5,53.3 119.7,53.2 119.9,53.1 120,52.9 117.1,52.8 116.8,52.8 116.7,52.7 116.4,52.7 
	116.3,52.6 116.1,52.6 115.9,52.5 115.8,52.5 115.7,52.3 115.6,52.2 115.3,52.1 115.2,52 115.1,51.7 115.1,51.6 115,51.5 
	114.9,51.4 114.9,50.9 114.7,50.8 114.7,49.8 114.9,49.6 114.9,49.5 115,49.2 115.1,49.1 115.2,49 115.3,48.7 115.5,48.6 
	115.6,48.5 115.7,48.4 115.8,48.3 116.1,48.3 116.2,48.1 116.4,48 116.9,48 117.1,47.9 120.1,47.9 120,47.8 119.8,47.7 119.7,47.5 
	119.5,47.4 119.4,47.3 119.2,47.2 119.1,47.1 118.8,47.1 118.7,46.9 118.5,46.9 118.3,46.8 118.1,46.8 118,46.7 117.4,46.7 "/>
<rect x="121.2" y="46.8" fill-rule="evenodd" clip-rule="evenodd" fill="#1B365D" width="1.3" height="7.1"/>
<polyline fill-rule="evenodd" clip-rule="evenodd" fill="#1B365D" points="127.5,46.8 126.1,46.8 123.4,53.9 124.8,53.9 125.3,52.5 
	128.2,52.5 125.9,51.1 126.7,48.7 "/>
<polyline fill-rule="evenodd" clip-rule="evenodd" fill="#1B365D" points="127.5,46.8 126.7,48.7 127.7,51.1 125.9,51.1 128.2,52.5 
	128.8,53.9 130.2,53.9 "/>
<polyline fill-rule="evenodd" clip-rule="evenodd" fill="#1B365D" points="136,48 133,48.1 133.7,48.1 133.8,48.3 134.1,48.3 
	134.2,48.4 134.4,48.4 134.5,48.5 134.7,48.6 134.8,48.7 134.9,48.9 135,49 135.1,49.1 135.1,49.2 135.3,49.5 135.3,49.6 
	135.4,49.8 135.4,51 135.3,51.1 135.3,51.5 135.1,51.6 135.1,51.7 135,51.9 134.9,52 134.8,52.2 134.7,52.3 134.4,52.3 134.3,52.5 
	134.1,52.5 133.8,52.6 132.5,52.6 136.1,52.7 136.2,52.5 136.3,52.3 136.5,52.1 136.5,52 136.6,51.9 136.6,51.6 136.7,51.5 
	136.7,49.5 136.6,49.3 136.6,49.1 136.5,49 136.5,48.7 136.3,48.6 136.2,48.5 136.2,48.4 136.1,48.3 "/>
<polyline fill-rule="evenodd" clip-rule="evenodd" fill="#1B365D" points="132.7,46.8 131.2,46.8 131.2,53.9 133.9,53.9 134.1,53.8 
	134.7,53.8 134.8,53.7 134.9,53.7 135.1,53.5 135.3,53.4 135.4,53.4 135.6,53.2 135.7,53.1 135.9,52.9 136,52.8 136.1,52.7 
	132.5,52.6 132.5,48.1 133,48.1 136,48 135.9,47.9 135.7,47.8 135.6,47.7 135.5,47.5 135.4,47.4 135.1,47.3 135,47.2 134.9,47.2 
	134.8,47.1 134.4,47.1 134.3,46.9 133.9,46.9 133.7,46.8 133,46.8 "/>
<polyline fill-rule="evenodd" clip-rule="evenodd" fill="#1B365D" points="144,47.9 141.3,48 142,48 142.2,48.1 142.3,48.3 
	142.5,48.3 142.7,48.4 142.8,48.5 142.9,48.6 143.1,48.7 143.2,49 143.3,49.1 143.4,49.2 143.4,49.5 143.5,49.6 143.5,49.8 
	143.7,49.9 143.7,50.8 143.5,50.9 143.5,51.1 143.4,51.3 143.4,51.5 143.3,51.6 143.2,51.7 143.1,52 142.9,52.1 142.7,52.3 
	142.6,52.3 142.5,52.5 142.2,52.6 142.1,52.7 141.7,52.7 141.5,52.8 138.5,52.8 138.7,52.9 138.7,53.1 138.9,53.2 139,53.3 
	139.2,53.4 139.3,53.5 139.5,53.7 139.7,53.7 139.8,53.8 139.9,53.9 140.2,53.9 140.3,54 142.1,54 142.3,53.9 142.7,53.9 
	142.8,53.8 142.9,53.7 143.2,53.7 143.3,53.5 143.4,53.4 143.7,53.3 143.8,53.2 143.9,53.1 143.9,52.9 144,52.8 144.1,52.7 
	144.3,52.6 144.4,52.3 144.5,52.2 144.6,52.1 144.7,51.9 144.7,51.7 144.9,51.5 144.9,51.1 145,51 145,49.7 144.9,49.6 144.9,49.3 
	144.7,49.2 144.7,49 144.6,48.9 144.6,48.6 144.5,48.5 144.4,48.4 144.3,48.1 144.1,48 "/>
<polyline fill-rule="evenodd" clip-rule="evenodd" fill="#1B365D" points="141.4,46.7 140.5,46.7 140.4,46.8 140.2,46.8 140.1,46.9 
	139.8,46.9 139.7,47.1 139.5,47.2 139.3,47.3 139.1,47.3 139,47.4 138.9,47.5 138.7,47.8 138.6,47.9 138.5,48 138.4,48.1 
	138.3,48.4 138.1,48.5 138,48.6 137.9,48.9 137.9,49 137.8,49.2 137.8,49.3 137.7,49.6 137.7,51.1 137.8,51.4 137.8,51.5 
	137.9,51.7 137.9,51.9 138,52 138.1,52.2 138.3,52.3 138.3,52.6 138.4,52.7 138.5,52.8 141.4,52.8 141,52.8 140.9,52.7 140.7,52.7 
	140.5,52.6 140.3,52.6 140.2,52.5 139.9,52.3 139.8,52.2 139.7,52.1 139.6,52 139.5,51.9 139.3,51.6 139.2,51.5 139.2,51.4 
	139.1,51.1 139.1,51 139,50.8 139,49.9 139.1,49.8 139.1,49.5 139.2,49.2 139.3,49.1 139.5,49 139.6,48.7 139.7,48.6 139.9,48.5 
	140.1,48.4 140.2,48.3 140.4,48.1 140.5,48.1 140.8,48 141.3,48 144,47.9 143.9,47.8 143.8,47.7 143.7,47.4 143.4,47.3 143.3,47.3 
	143.2,47.2 142.9,47.1 142.8,46.9 142.6,46.9 142.5,46.8 142.3,46.8 142.1,46.7 141.5,46.7 "/>
<polyline fill-rule="evenodd" clip-rule="evenodd" fill="#1B365D" points="146.7,51.9 145.6,52.6 145.6,52.7 145.7,52.9 145.8,53.1 
	145.9,53.2 146.1,53.4 146.2,53.5 146.3,53.7 146.5,53.7 146.5,53.8 146.7,53.8 146.9,53.9 147,54 148.6,54 148.8,53.9 148.9,53.8 
	149.1,53.8 149.3,53.7 149.4,53.5 149.4,53.4 149.5,53.3 149.7,53.2 149.8,53.1 149.9,52.8 147.6,52.8 147.5,52.7 147.4,52.7 
	147.1,52.6 147,52.5 146.9,52.2 146.8,52.1 "/>
<polyline fill-rule="evenodd" clip-rule="evenodd" fill="#1B365D" points="145.9,47.9 145.9,48 145.8,48.3 145.8,48.5 145.9,48.7 
	145.9,48.9 146.1,49.1 146.1,49.2 146.2,49.5 146.3,49.6 146.4,49.7 146.5,49.8 146.7,49.9 146.8,50.2 146.9,50.3 147.1,50.4 
	147.3,50.5 147.5,50.8 147.7,50.9 147.9,51 148,51.1 148.1,51.3 148.3,51.5 148.5,51.5 148.5,51.6 148.6,51.7 148.6,52 148.7,52.1 
	148.6,52.3 148.6,52.5 148.5,52.6 148.3,52.6 148.2,52.7 148.1,52.8 147.9,52.8 149.9,52.8 149.9,52.5 150,52.2 150,51.9 
	149.9,51.6 149.9,51.4 149.8,51.3 149.8,51.1 149.7,50.9 149.5,50.8 149.4,50.7 149.2,50.4 149.1,50.3 148.9,50.2 148.7,50.1 
	148.6,49.8 148.3,49.7 148.1,49.5 147.9,49.3 147.7,49.1 147.6,49 147.5,48.9 147.4,48.9 147.3,48.7 147.3,48.6 147.1,48.4 
	147.3,48.3 147.4,48.1 147.4,48 147.6,48 147.7,47.9 "/>
<polyline fill-rule="evenodd" clip-rule="evenodd" fill="#1B365D" points="147.9,46.7 147.3,46.7 147,46.8 146.9,46.8 146.8,46.9 
	146.5,47.1 146.4,47.2 146.4,47.3 146.2,47.4 146.2,47.5 146.1,47.7 145.9,47.9 148,47.9 148.1,48 148.2,48.1 148.5,48.1 
	148.6,48.3 148.7,48.5 148.8,48.6 149.9,47.8 149.7,47.7 149.5,47.4 149.4,47.3 149.3,47.2 149.1,47.1 148.9,46.9 148.8,46.9 
	148.7,46.8 148.6,46.8 148.3,46.7 148,46.7 "/>
<polyline fill-rule="evenodd" clip-rule="evenodd" fill="#5E8AB4" points="41.3,59.2 40,59.3 40.6,59.3 40.6,59.4 40.8,59.4 
	40.9,59.5 41.1,59.7 41.1,59.8 41.2,59.9 41.2,60.5 41.1,60.6 40.9,60.7 40.8,60.9 40.7,60.9 40.6,61 40,61 41.4,61.1 41.4,61 
	41.5,60.9 41.5,60.7 41.7,60.6 41.7,60.3 41.8,60.1 41.8,60 41.7,59.9 41.7,59.7 41.5,59.5 41.5,59.4 41.4,59.3 "/>
<polyline fill-rule="evenodd" clip-rule="evenodd" fill="#5E8AB4" points="39.6,58.8 38.7,58.8 38.7,63.7 39.1,63.7 39.1,61.5 
	39.5,61.5 40.6,61.5 40.7,61.3 40.9,61.3 41.1,61.2 41.2,61.2 41.3,61.1 41.4,61.1 40,61 39.1,61 39.1,59.3 40,59.3 41.3,59.2 
	41.2,59.1 41.1,58.9 40.7,58.9 40.7,58.8 39.9,58.8 "/>
<polyline fill-rule="evenodd" clip-rule="evenodd" fill="#5E8AB4" points="44.8,58.8 44.7,58.8 42.3,63.7 42.9,63.7 43.6,62.2 
	45.7,62.2 43.8,61.7 44.7,59.9 "/>
<polyline fill-rule="evenodd" clip-rule="evenodd" fill="#5E8AB4" points="44.8,58.8 44.7,59.9 45.5,61.7 43.8,61.7 45.7,62.2 
	46.5,63.7 47.1,63.7 "/>
<polyline fill-rule="evenodd" clip-rule="evenodd" fill="#5E8AB4" points="49.9,58.8 47.3,58.8 47.3,59.3 48.4,59.3 48.4,63.7 
	48.9,63.7 48.9,59.3 49.9,59.3 "/>
<polyline fill-rule="evenodd" clip-rule="evenodd" fill="#5E8AB4" points="53.5,58.8 50.8,58.8 50.8,63.7 53.5,63.7 53.5,63.3 
	51.3,63.3 51.3,61.3 53.5,61.3 53.5,60.9 51.3,60.9 51.3,59.3 53.5,59.3 "/>
<polyline fill-rule="evenodd" clip-rule="evenodd" fill="#5E8AB4" points="58.2,58.8 57.7,58.8 57.7,62.5 58.1,63.7 58.2,63.7 "/>
<polyline fill-rule="evenodd" clip-rule="evenodd" fill="#5E8AB4" points="54.5,58.8 54.4,58.8 54.4,63.7 54.9,63.7 54.9,60 "/>
<polyline fill-rule="evenodd" clip-rule="evenodd" fill="#5E8AB4" points="54.5,58.8 54.9,60 58.1,63.7 57.7,62.5 "/>
<polyline fill-rule="evenodd" clip-rule="evenodd" fill="#5E8AB4" points="61.7,58.8 59.1,58.8 59.1,59.3 60.1,59.3 60.1,63.7 
	60.6,63.7 60.6,59.3 61.7,59.3 "/>
<polyline fill-rule="evenodd" clip-rule="evenodd" fill="#5E8AB4" points="62.3,62.5 61.9,62.8 61.9,62.9 62.1,63 62.2,63.1 
	62.2,63.3 62.3,63.4 62.4,63.5 62.5,63.5 62.5,63.6 62.7,63.6 62.8,63.7 62.9,63.7 63,63.9 63.4,63.9 63.9,63.9 64,63.7 64.1,63.7 
	64.2,63.6 64.3,63.5 64.5,63.4 63.1,63.4 63,63.3 62.9,63.3 62.8,63.1 62.7,63 62.5,63 62.5,62.9 62.4,62.8 "/>
<polyline fill-rule="evenodd" clip-rule="evenodd" fill="#5E8AB4" points="64.5,59.2 63.4,59.2 63.6,59.2 63.7,59.3 63.9,59.3 
	63.9,59.4 64,59.4 64.1,59.5 64.2,59.7 64.3,59.8 64.7,59.5 64.6,59.4 64.6,59.3 "/>
<polyline fill-rule="evenodd" clip-rule="evenodd" fill="#5E8AB4" points="63.4,58.7 63,58.7 62.9,58.8 62.8,58.8 62.8,58.9 
	62.7,58.9 62.5,59.1 62.4,59.2 62.4,59.3 62.3,59.3 62.3,59.5 62.2,59.7 62.2,60 62.3,60.1 62.3,60.4 62.4,60.5 62.5,60.6 
	62.5,60.7 62.7,60.7 62.8,60.9 62.8,61 62.9,61.1 63.1,61.1 63.3,61.2 63.3,61.3 63.5,61.5 63.6,61.6 63.7,61.6 63.7,61.7 
	63.9,61.8 64,61.9 64.1,62.1 64.1,62.2 64.2,62.3 64.2,62.8 64.1,63 64,63.1 63.9,63.3 63.7,63.3 63.6,63.4 63.4,63.4 64.5,63.4 
	64.6,63.3 64.6,63.1 64.7,63 64.7,62.8 64.8,62.7 64.8,62.3 64.7,62.2 64.7,62.1 64.6,61.9 64.6,61.8 64.5,61.7 64.3,61.6 
	64.2,61.5 64.2,61.3 64.1,61.2 64,61.2 63.9,61.1 63.6,61 63.5,60.9 63.4,60.7 63.3,60.6 63.1,60.6 63.1,60.5 63,60.5 62.9,60.4 
	62.9,60.3 62.8,60.1 62.8,59.5 62.9,59.4 63,59.3 63.1,59.3 63.3,59.2 64.5,59.2 64.3,59.1 64.2,59.1 64.1,58.9 64.1,58.8 
	63.9,58.8 63.7,58.7 63.5,58.7 "/>
<polyline fill-rule="evenodd" clip-rule="evenodd" fill="#5E8AB4" points="70,63 69.9,63.1 69.7,63.1 69.6,63.3 69.5,63.3 
	69.4,63.4 67.9,63.4 68.1,63.5 68.1,63.6 68.2,63.6 68.3,63.7 68.4,63.7 68.5,63.9 69.4,63.9 69.5,63.7 69.9,63.7 70,63.6 
	70.1,63.5 70.2,63.5 70.3,63.4 70.5,63.3 70.6,63.1 70.8,63 "/>
<polyline fill-rule="evenodd" clip-rule="evenodd" fill="#5E8AB4" points="71.4,61.9 71.3,61.9 71.3,62.1 71.2,62.2 71.1,62.2 
	70.9,62.3 70.8,62.4 71.7,62.4 71.8,62.3 "/>
<polyline fill-rule="evenodd" clip-rule="evenodd" fill="#5E8AB4" points="68.5,61.3 68.4,61.5 68.3,61.6 68.2,61.7 68.1,61.7 
	68.1,61.8 67.9,61.9 67.8,62.1 67.8,62.2 67.7,62.3 67.7,63.1 67.8,63.3 67.8,63.4 69,63.4 68.7,63.4 68.5,63.3 68.4,63.1 68.3,63 
	68.2,62.9 68.2,62.4 68.3,62.3 68.4,62.2 68.4,62.1 68.5,62.1 68.5,61.9 68.7,61.8 68.8,61.7 68.9,61.7 69,61.6 69.3,61.5 "/>
<polyline fill-rule="evenodd" clip-rule="evenodd" fill="#5E8AB4" points="70.3,59.4 69.4,59.4 69.5,59.5 69.7,59.5 69.9,59.7 
	69.9,59.8 70,59.9 69.9,60 69.9,60.1 69.7,60.3 69.6,60.4 69.6,60.5 69.5,60.6 69.4,60.6 69.3,60.7 68.7,60.7 68.8,60.9 68.9,61.1 
	68.8,61.1 68.7,61.2 68.5,61.3 69.3,61.5 69.3,61.6 69.4,61.6 69.5,61.7 69.6,61.8 69.6,61.9 70.5,62.7 70.3,62.8 70.2,62.9 
	70.1,63 70,63 70.8,63 71.4,63.7 72.1,63.7 72,63.6 71.9,63.6 71.9,63.5 71.8,63.4 71.7,63.3 71.5,63.1 71.4,63 71.3,62.9 
	71.2,62.8 71.2,62.7 71.3,62.7 71.4,62.5 71.5,62.4 70.8,62.4 70.3,61.9 69.6,61.1 69.7,61 69.9,60.9 70,60.7 70.1,60.7 70.1,60.6 
	70.2,60.5 70.2,60.4 70.3,60.3 70.3,60.1 70.5,60 70.5,59.8 70.3,59.7 70.3,59.5 "/>
<polyline fill-rule="evenodd" clip-rule="evenodd" fill="#5E8AB4" points="69.4,59.1 68.9,59.1 68.8,59.2 68.7,59.2 68.5,59.3 
	68.4,59.4 68.3,59.5 68.3,60.4 68.4,60.4 68.4,60.5 68.5,60.5 68.5,60.6 68.7,60.7 69.3,60.7 69.1,60.7 69.1,60.6 69,60.5 
	68.9,60.4 68.9,60.3 68.8,60.1 68.8,59.7 68.9,59.7 68.9,59.5 69.1,59.5 69.4,59.4 70.3,59.4 70.2,59.4 70.1,59.3 70,59.2 
	69.9,59.2 69.9,59.1 69.5,59.1 "/>
<rect x="74.7" y="58.8" fill-rule="evenodd" clip-rule="evenodd" fill="#5E8AB4" width="0.5" height="4.9"/>
<polyline fill-rule="evenodd" clip-rule="evenodd" fill="#5E8AB4" points="80.2,58.8 79.7,58.8 79.7,62.5 80.1,63.7 80.2,63.7 "/>
<polyline fill-rule="evenodd" clip-rule="evenodd" fill="#5E8AB4" points="76.5,58.8 76.3,58.8 76.3,63.7 76.8,63.7 76.8,60 "/>
<polyline fill-rule="evenodd" clip-rule="evenodd" fill="#5E8AB4" points="76.5,58.8 76.8,60 80.1,63.7 79.7,62.5 "/>
<polyline fill-rule="evenodd" clip-rule="evenodd" fill="#5E8AB4" points="85.2,58.8 84.7,58.8 84.7,62.5 85.1,63.7 85.2,63.7 "/>
<polyline fill-rule="evenodd" clip-rule="evenodd" fill="#5E8AB4" points="81.5,58.8 81.4,58.8 81.4,63.7 81.9,63.7 81.9,60 "/>
<polyline fill-rule="evenodd" clip-rule="evenodd" fill="#5E8AB4" points="81.5,58.8 81.9,60 85.1,63.7 84.7,62.5 "/>
<polyline fill-rule="evenodd" clip-rule="evenodd" fill="#5E8AB4" points="90.4,59.2 88.9,59.2 89.3,59.2 89.4,59.3 89.7,59.3 
	89.8,59.4 89.9,59.4 90,59.5 90.1,59.7 90.3,59.7 90.4,59.8 90.5,59.9 90.6,60 90.6,60.1 90.7,60.3 90.7,60.4 90.9,60.5 90.9,60.6 
	91,60.7 91,61.7 90.9,61.8 90.9,62.1 90.7,62.2 90.7,62.3 90.6,62.4 90.6,62.5 90.5,62.7 90.4,62.8 90.3,62.9 90.1,62.9 90,63 
	89.9,63.1 89.8,63.1 89.7,63.3 89.4,63.3 89.3,63.4 87.4,63.4 87.5,63.5 87.6,63.5 87.7,63.6 87.9,63.6 88,63.7 88.2,63.7 
	88.3,63.9 88.9,63.9 89.5,63.9 89.7,63.7 89.9,63.7 90,63.6 90.1,63.6 90.3,63.5 90.4,63.5 90.4,63.4 90.5,63.3 90.6,63.3 
	90.7,63.1 90.9,63 91,62.9 91,62.8 91.1,62.7 91.2,62.5 91.2,62.4 91.3,62.3 91.3,62.1 91.5,61.9 91.5,60.6 91.3,60.5 91.3,60.4 
	91.2,60.3 91.2,60.1 91.1,60 91.1,59.9 91,59.8 91,59.7 90.9,59.5 90.7,59.4 90.6,59.3 90.5,59.2 "/>
<polyline fill-rule="evenodd" clip-rule="evenodd" fill="#5E8AB4" points="88.8,58.7 88.3,58.7 88.2,58.8 88,58.8 87.9,58.9 
	87.7,58.9 87.6,59.1 87.5,59.1 87.4,59.2 87.3,59.3 87.1,59.3 87,59.4 87,59.5 86.9,59.7 86.8,59.8 86.8,59.9 86.7,60 86.5,60.1 
	86.5,60.4 86.4,60.5 86.4,60.7 86.3,60.9 86.3,61.7 86.4,61.8 86.4,62.1 86.5,62.2 86.5,62.4 86.7,62.5 86.8,62.7 86.8,62.8 
	86.9,62.9 87,63 87,63.1 87.1,63.1 87.3,63.3 87.3,63.4 88.9,63.4 88.5,63.4 88.3,63.3 88.1,63.3 88,63.1 87.9,63.1 87.7,63 
	87.6,63 87.5,62.9 87.4,62.8 87.3,62.7 87.3,62.5 87.1,62.4 87.1,62.3 87,62.2 87,62.1 86.9,61.9 86.9,61.6 86.8,61.5 86.8,61.1 
	86.9,61 86.9,60.6 87,60.5 87,60.4 87.1,60.3 87.1,60.1 87.3,60 87.4,59.9 87.4,59.8 87.5,59.7 87.6,59.7 87.7,59.5 87.9,59.4 
	88,59.4 88.1,59.3 88.3,59.3 88.5,59.2 90.4,59.2 90.3,59.1 90.1,59.1 90,58.9 89.9,58.9 89.8,58.8 89.5,58.8 89.4,58.7 89.1,58.7 
	"/>
<polyline fill-rule="evenodd" clip-rule="evenodd" fill="#5E8AB4" points="92.5,58.8 92.1,58.8 94.1,63.7 94.2,62.7 "/>
<polyline fill-rule="evenodd" clip-rule="evenodd" fill="#5E8AB4" points="96.4,58.8 95.9,58.8 94.2,62.7 94.1,63.7 94.2,63.7 "/>
<polyline fill-rule="evenodd" clip-rule="evenodd" fill="#5E8AB4" points="99.4,58.8 99.3,58.8 96.9,63.7 97.5,63.7 98.2,62.2 
	100.3,62.2 98.4,61.7 99.3,59.9 "/>
<polyline fill-rule="evenodd" clip-rule="evenodd" fill="#5E8AB4" points="99.4,58.8 99.3,59.9 100.1,61.7 98.4,61.7 100.3,62.2 
	101.1,63.7 101.7,63.7 "/>
<polyline fill-rule="evenodd" clip-rule="evenodd" fill="#5E8AB4" points="104.5,58.8 101.9,58.8 101.9,59.3 103,59.3 103,63.7 
	103.5,63.7 103.5,59.3 104.5,59.3 "/>
<rect x="105.1" y="58.8" fill-rule="evenodd" clip-rule="evenodd" fill="#5E8AB4" width="0.5" height="4.9"/>
<polyline fill-rule="evenodd" clip-rule="evenodd" fill="#5E8AB4" points="110.5,59.2 109.1,59.2 109.5,59.2 109.6,59.3 109.8,59.3 
	109.9,59.4 110.1,59.4 110.2,59.5 110.3,59.7 110.4,59.7 110.5,59.8 110.7,59.9 110.8,60 110.8,60.1 110.9,60.3 110.9,60.4 
	111,60.5 111,60.6 111.1,60.7 111.1,61.7 111,61.8 111,62.1 110.9,62.2 110.9,62.3 110.8,62.4 110.8,62.5 110.7,62.7 110.5,62.8 
	110.4,62.9 110.3,62.9 110.2,63 110.1,63.1 109.9,63.1 109.8,63.3 109.6,63.3 109.5,63.4 107.5,63.4 107.7,63.5 107.8,63.5 
	107.9,63.6 108,63.6 108.1,63.7 108.4,63.7 108.5,63.9 109.1,63.9 109.7,63.9 109.8,63.7 110.1,63.7 110.2,63.6 110.3,63.6 
	110.4,63.5 110.5,63.5 110.5,63.4 110.7,63.3 110.8,63.3 110.9,63.1 111,63 111.1,62.9 111.1,62.8 111.3,62.7 111.4,62.5 
	111.4,62.4 111.5,62.3 111.5,62.1 111.6,61.9 111.6,60.6 111.5,60.5 111.5,60.4 111.4,60.3 111.4,60.1 111.3,60 111.3,59.9 
	111.1,59.8 111.1,59.7 111,59.5 110.9,59.4 110.8,59.3 110.7,59.2 "/>
<polyline fill-rule="evenodd" clip-rule="evenodd" fill="#5E8AB4" points="109,58.7 108.5,58.7 108.4,58.8 108.1,58.8 108,58.9 
	107.9,58.9 107.8,59.1 107.7,59.1 107.5,59.2 107.4,59.3 107.3,59.3 107.2,59.4 107.2,59.5 107.1,59.7 106.9,59.8 106.9,59.9 
	106.8,60 106.7,60.1 106.7,60.4 106.6,60.5 106.6,60.7 106.5,60.9 106.5,61.7 106.6,61.8 106.6,62.1 106.7,62.2 106.7,62.4 
	106.8,62.5 106.9,62.7 106.9,62.8 107.1,62.9 107.2,63 107.2,63.1 107.3,63.1 107.4,63.3 107.4,63.4 109.1,63.4 108.6,63.4 
	108.5,63.3 108.3,63.3 108.1,63.1 108,63.1 107.9,63 107.8,63 107.7,62.9 107.5,62.8 107.4,62.7 107.4,62.5 107.3,62.4 107.3,62.3 
	107.2,62.2 107.2,62.1 107.1,61.9 107.1,61.6 106.9,61.5 106.9,61.1 107.1,61 107.1,60.6 107.2,60.5 107.2,60.4 107.3,60.3 
	107.3,60.1 107.4,60 107.5,59.9 107.5,59.8 107.7,59.7 107.8,59.7 107.9,59.5 108,59.4 108.1,59.4 108.3,59.3 108.5,59.3 
	108.6,59.2 110.5,59.2 110.4,59.1 110.3,59.1 110.2,58.9 110.1,58.9 109.9,58.8 109.7,58.8 109.6,58.7 109.2,58.7 "/>
<polyline fill-rule="evenodd" clip-rule="evenodd" fill="#5E8AB4" points="116.4,58.8 115.9,58.8 115.9,62.5 116.3,63.7 116.4,63.7 
	"/>
<polyline fill-rule="evenodd" clip-rule="evenodd" fill="#5E8AB4" points="112.7,58.8 112.6,58.8 112.6,63.7 113.1,63.7 113.1,60 
	"/>
<polyline fill-rule="evenodd" clip-rule="evenodd" fill="#5E8AB4" points="112.7,58.8 113.1,60 116.3,63.7 115.9,62.5 "/>
</svg>
