<?xml version="1.0" encoding="utf-8"?>
<!-- Generator: Adobe Illustrator 18.1.0, SVG Export Plug-In . SVG Version: 6.00 Build 0)  -->
<!DOCTYPE svg PUBLIC "-//W3C//DTD SVG 1.1//EN" "http://www.w3.org/Graphics/SVG/1.1/DTD/svg11.dtd">
<svg version="1.1" id="Layer_1" xmlns="http://www.w3.org/2000/svg" xmlns:xlink="http://www.w3.org/1999/xlink" x="0px" y="0px"
	 viewBox="0 0 300 300" enable-background="new 0 0 300 300" xml:space="preserve">
<g>
	<path fill="#16A085" d="M263.4,235.1L166.3,291c-10.2,5.9-22.7,5.8-32.9,0l-97-56.2C26.2,228.9,20,218,20,206.2l0.2-112.1
		c0-11.8,6.3-22.6,16.5-28.5l97.2-55.9c10.2-5.9,22.7-5.8,32.9,0l97,56.2c10.2,5.9,16.4,16.8,16.4,28.5l-0.2,112.1
		C279.9,218.4,273.6,229.2,263.4,235.1z"/>
	<g display="none">
		<g display="inline">
			<g>
				<g>
					<path fill="#F2F2F2" d="M152.2,210.1c-31-6.4-63.1-6.4-94.1,0c0-39.9,0-79.8,0-119.7c31-6.4,63.1-6.4,94.1,0
						C152.2,130.3,152.2,170.2,152.2,210.1z"/>
					<path fill="#2980B9" d="M92.7,135c-7.7,0.4-15.3,1.2-22.9,2.4c0-11.5,0-22.9,0-34.4c7.6-1.2,15.3-2,22.9-2.4
						C92.7,112,92.7,123.5,92.7,135z"/>
					<path fill="#CCCCCC" d="M137.4,106.7c-13-1.8-26.2-2.5-39.3-2.2c0-1.4,0-2.8,0-4.1c13.1-0.4,26.3,0.3,39.3,2.2
						C137.4,103.9,137.4,105.3,137.4,106.7z"/>
					<path fill="#CCCCCC" d="M137.4,114.9c-13-1.8-26.2-2.5-39.3-2.2c0-1.4,0-2.8,0-4.1c13.1-0.4,26.3,0.3,39.3,2.2
						C137.4,112.2,137.4,113.5,137.4,114.9z"/>
					<path fill="#CCCCCC" d="M137.4,123.2c-13-1.8-26.2-2.5-39.3-2.2c0-1.4,0-2.8,0-4.1c13.1-0.4,26.3,0.3,39.3,2.2
						C137.4,120.4,137.4,121.8,137.4,123.2z"/>
					<path fill="#CCCCCC" d="M137.4,131.5c-13-1.8-26.2-2.5-39.3-2.2c0-1.4,0-2.8,0-4.1c13.1-0.4,26.3,0.3,39.3,2.2
						C137.4,128.7,137.4,130.1,137.4,131.5z"/>
					<path fill="#CCCCCC" d="M137.4,139.8c-13-1.8-26.2-2.5-39.3-2.2c0-1.4,0-2.8,0-4.1c13.1-0.4,26.3,0.3,39.3,2.2
						C137.4,137,137.4,138.4,137.4,139.8z"/>
					<path fill="#CCCCCC" d="M137.4,148c-22.3-3.1-45-3-67.3,0.4c0-1.4,0-2.8,0-4.1c22.3-3.4,45-3.5,67.3-0.4
						C137.4,145.3,137.4,146.6,137.4,148z"/>
					<path fill="#CCCCCC" d="M137.4,156.3c-22.3-3.1-45-3-67.3,0.4c0-1.4,0-2.8,0-4.1c22.3-3.4,45-3.5,67.3-0.4
						C137.4,153.5,137.4,154.9,137.4,156.3z"/>
					<path fill="#CCCCCC" d="M137.4,164.6c-22.3-3.1-45-3-67.3,0.4c0-1.4,0-2.8,0-4.1c22.3-3.4,45-3.5,67.3-0.4
						C137.4,161.8,137.4,163.2,137.4,164.6z"/>
					<path fill="#CCCCCC" d="M137.4,172.9c-22.3-3.1-45-3-67.3,0.4c0-1.4,0-2.8,0-4.1c22.3-3.4,45-3.5,67.3-0.4
						C137.4,170.1,137.4,171.5,137.4,172.9z"/>
					<path fill="#CCCCCC" d="M137.4,181.1c-22.3-3.1-45-3-67.3,0.4c0-1.4,0-2.8,0-4.1c22.3-3.4,45-3.5,67.3-0.4
						C137.4,178.4,137.4,179.7,137.4,181.1z"/>
					<path fill="#CCCCCC" d="M137.4,189.4c-22.3-3.1-45-3-67.3,0.4c0-1.4,0-2.8,0-4.1c22.3-3.4,45-3.5,67.3-0.4
						C137.4,186.6,137.4,188,137.4,189.4z"/>
				</g>
			</g>
			<g>
				<g>
					<path fill="#F2F2F2" d="M246.3,210.1c-31-6.4-63.1-6.4-94.1,0c0-39.9,0-79.8,0-119.7c31-6.4,63.1-6.4,94.1,0
						C246.3,130.3,246.3,170.2,246.3,210.1z"/>
					<path fill="#CCCCCC" d="M231.5,106.7c-22.3-3.1-45-3-67.3,0.4c0-1.4,0-2.8,0-4.1c22.3-3.4,45-3.5,67.3-0.4
						C231.5,103.9,231.5,105.3,231.5,106.7z"/>
					<path fill="#CCCCCC" d="M231.5,114.9c-22.3-3.1-45-3-67.3,0.4c0-1.4,0-2.8,0-4.1c22.3-3.4,45-3.5,67.3-0.4
						C231.5,112.2,231.5,113.5,231.5,114.9z"/>
					<path fill="#CCCCCC" d="M231.5,123.2c-22.3-3.1-45-3-67.3,0.4c0-1.4,0-2.8,0-4.1c22.3-3.4,45-3.5,67.3-0.4
						C231.5,120.4,231.5,121.8,231.5,123.2z"/>
					<path fill="#CCCCCC" d="M231.5,131.5c-22.3-3.1-45-3-67.3,0.4c0-1.4,0-2.8,0-4.1c22.3-3.4,45-3.5,67.3-0.4
						C231.5,128.7,231.5,130.1,231.5,131.5z"/>
					<path fill="#CCCCCC" d="M231.5,139.8c-22.3-3.1-45-3-67.3,0.4c0-1.4,0-2.8,0-4.1c22.3-3.4,45-3.5,67.3-0.4
						C231.5,137,231.5,138.4,231.5,139.8z"/>
					<path fill="#CCCCCC" d="M231.5,148c-22.3-3.1-45-3-67.3,0.4c0-1.4,0-2.8,0-4.1c22.3-3.4,45-3.5,67.3-0.4
						C231.5,145.3,231.5,146.6,231.5,148z"/>
					<path fill="#CCCCCC" d="M231.5,156.3c-22.3-3.1-45-3-67.3,0.4c0-1.4,0-2.8,0-4.1c22.3-3.4,45-3.5,67.3-0.4
						C231.5,153.5,231.5,154.9,231.5,156.3z"/>
					<path fill="#CCCCCC" d="M231.5,164.6c-22.3-3.1-45-3-67.3,0.4c0-1.4,0-2.8,0-4.1c22.3-3.4,45-3.5,67.3-0.4
						C231.5,161.8,231.5,163.2,231.5,164.6z"/>
					<path fill="#CCCCCC" d="M231.5,172.9c-22.3-3.1-45-3-67.3,0.4c0-1.4,0-2.8,0-4.1c22.3-3.4,45-3.5,67.3-0.4
						C231.5,170.1,231.5,171.5,231.5,172.9z"/>
					<path fill="#CCCCCC" d="M231.5,181.1c-22.3-3.1-45-3-67.3,0.4c0-1.4,0-2.8,0-4.1c22.3-3.4,45-3.5,67.3-0.4
						C231.5,178.4,231.5,179.7,231.5,181.1z"/>
					<path fill="#CCCCCC" d="M231.5,189.4c-22.3-3.1-45-3-67.3,0.4c0-1.4,0-2.8,0-4.1c22.3-3.4,45-3.5,67.3-0.4
						C231.5,186.6,231.5,188,231.5,189.4z"/>
				</g>
			</g>
		</g>
	</g>
	<g>
		
			<rect x="68.1" y="70.1" transform="matrix(0.9803 -0.1974 0.1974 0.9803 -26.5446 28.4642)" fill="#E6E6E6" width="122.7" height="154.6"/>
		
			<rect x="77.7" y="88.7" transform="matrix(0.9803 -0.1974 0.1974 0.9803 -25.6776 20.6361)" fill="#95A5A6" width="26" height="100.8"/>
		
			<rect x="99.5" y="79" transform="matrix(0.9803 -0.1974 0.1974 0.9803 -13.1989 28.0431)" fill="#2980B9" width="69" height="2.5"/>
		
			<rect x="100.8" y="85.1" transform="matrix(0.9803 -0.1974 0.1974 0.9803 -14.3922 28.4098)" fill="#2980B9" width="69" height="2.5"/>
		
			<rect x="102" y="91.3" transform="matrix(0.9803 -0.1974 0.1974 0.9803 -15.5854 28.7764)" fill="#2980B9" width="69" height="2.5"/>
		
			<rect x="103.3" y="97.5" transform="matrix(0.9803 -0.1974 0.1974 0.9803 -16.7787 29.1431)" fill="#2980B9" width="69" height="2.5"/>
		
			<rect x="104.8" y="106.8" transform="matrix(0.9803 -0.1974 0.1974 0.9803 -18.9086 26.4618)" fill="#2980B9" width="36.9" height="2.5"/>
		
			<rect x="164.7" y="166.9" transform="matrix(0.9803 -0.1974 0.1974 0.9803 -33.6312 38.7865)" fill="#2C3E50" width="26" height="42.3"/>
		
			<rect x="112.7" y="144.3" transform="matrix(0.9803 -0.1974 0.1974 0.9803 -25.8342 31.9254)" fill="#2980B9" width="69" height="2.5"/>
		
			<rect x="113.9" y="150.4" transform="matrix(0.9803 -0.1974 0.1974 0.9803 -27.0275 32.2921)" fill="#2980B9" width="69" height="2.5"/>
		
			<rect x="115.2" y="156.6" transform="matrix(0.9803 -0.1974 0.1974 0.9803 -28.2207 32.6587)" fill="#2980B9" width="69" height="2.5"/>
		
			<rect x="116.4" y="162.8" transform="matrix(0.9803 -0.1974 0.1974 0.9803 -29.414 33.0253)" fill="#2980B9" width="69" height="2.5"/>
		
			<rect x="111.8" y="141.4" transform="matrix(0.9803 -0.1974 0.1974 0.9803 -25.6038 28.519)" fill="#2980B9" width="36.9" height="2.5"/>
	</g>
	<g>
		
			<rect x="108.5" y="71.6" transform="matrix(0.9874 0.1585 -0.1585 0.9874 25.7563 -25.0421)" fill="#E6E6E6" width="122.7" height="154.6"/>
		
			<rect x="123.4" y="77.2" transform="matrix(0.9874 0.1585 -0.1585 0.9874 21.9497 -20.0057)" fill="#2980B9" width="26" height="100.8"/>
		
			<rect x="163.1" y="86.4" transform="matrix(0.9874 0.1585 -0.1585 0.9874 16.3913 -30.2237)" fill="#B3B3B3" width="69" height="2.5"/>
		
			<rect x="162.1" y="92.6" transform="matrix(0.9874 0.1585 -0.1585 0.9874 17.3636 -29.987)" fill="#B3B3B3" width="69" height="2.5"/>
		
			<rect x="161.1" y="98.8" transform="matrix(0.9874 0.1585 -0.1585 0.9874 18.3357 -29.7503)" fill="#B3B3B3" width="69" height="2.5"/>
		
			<rect x="160.1" y="105" transform="matrix(0.9874 0.1585 -0.1585 0.9874 19.308 -29.5136)" fill="#B3B3B3" width="69" height="2.5"/>
		
			<rect x="159.3" y="108.7" transform="matrix(0.9874 0.1585 -0.1585 0.9874 19.6757 -26.7936)" fill="#B3B3B3" width="36.9" height="2.5"/>
		
			<rect x="187.7" y="182.8" transform="matrix(0.9874 0.1585 -0.1585 0.9874 34.8695 -29.2465)" fill="#2C3E50" width="26" height="42.3"/>
		
			<rect x="152.6" y="152.1" transform="matrix(0.9874 0.1585 -0.1585 0.9874 26.686 -27.7174)" fill="#B3B3B3" width="69" height="2.5"/>
		
			<rect x="151.6" y="158.4" transform="matrix(0.9874 0.1585 -0.1585 0.9874 27.6583 -27.4807)" fill="#B3B3B3" width="69" height="2.5"/>
		
			<rect x="150.6" y="164.6" transform="matrix(0.9874 0.1585 -0.1585 0.9874 28.6304 -27.244)" fill="#B3B3B3" width="69" height="2.5"/>
		
			<rect x="149.6" y="170.8" transform="matrix(0.9874 0.1585 -0.1585 0.9874 29.6027 -27.0073)" fill="#B3B3B3" width="69" height="2.5"/>
		
			<rect x="153.7" y="143.5" transform="matrix(0.9874 0.1585 -0.1585 0.9874 25.1307 -25.4656)" fill="#B3B3B3" width="36.9" height="2.5"/>
	</g>
	<g>
		<image overflow="visible" opacity="0.5" width="130" height="161" xlink:href="4B73CF44.png"  transform="matrix(1 0 0 1 75 54)">
		</image>
		<g>
			<g>
				<rect x="78.7" y="57.4" fill="#E6E6E6" width="122.7" height="154.6"/>
				<rect x="90.6" y="68.5" fill="#2980B9" width="26" height="100.8"/>
				<rect x="123.3" y="68.5" fill="#2980B9" width="69" height="2.5"/>
				<rect x="123.3" y="74.8" fill="#2980B9" width="69" height="2.5"/>
				<rect x="123.3" y="81.1" fill="#2980B9" width="69" height="2.5"/>
				<rect x="123.3" y="87.4" fill="#2980B9" width="69" height="2.5"/>
				<rect x="123.3" y="93.6" fill="#2980B9" width="36.9" height="2.5"/>
				<rect x="166.3" y="163" fill="#9B59B6" width="26" height="42.3"/>
				<rect x="123.3" y="135.1" fill="#2980B9" width="69" height="2.5"/>
				<rect x="123.3" y="141.4" fill="#2980B9" width="69" height="2.5"/>
				<rect x="123.3" y="147.7" fill="#2980B9" width="69" height="2.5"/>
				<rect x="123.3" y="154" fill="#2980B9" width="69" height="2.5"/>
				<rect x="123.3" y="128.4" fill="#2980B9" width="36.9" height="2.5"/>
				<rect x="123.1" y="120.9" fill="#2980B9" width="36.9" height="2.5"/>
				<rect x="123.3" y="112.8" fill="#2980B9" width="36.9" height="2.5"/>
			</g>
		</g>
	</g>
	<path fill="#FFFFFF" d="M190.4,187.2v-9.8c0.8-0.3,1.5-1.1,1.5-2c0-1.2-0.9-2.1-2.1-2.1c-0.7,0-1.4,0.4-1.8,0.9l-6.1-2
		c0-0.1,0-0.1,0-0.2c0-1.2-0.9-2.1-2.1-2.1c-1.2,0-2.1,0.9-2.1,2.1c0,0.1,0,0.1,0,0.2l-6,2c-0.4-0.6-1-0.9-1.8-0.9
		c-1.2,0-2.1,0.9-2.1,2.1c0,1,0.7,1.9,1.7,2.1v9.7c-1,0.2-1.7,1-1.7,2.1c0,1.2,0.9,2.1,2.1,2.1c0.9,0,1.6-0.5,2-1.3l6.1,2.8
		c-0.2,0.3-0.3,0.7-0.3,1c0,1.2,0.9,2.1,2.1,2.1s2.1-0.9,2.1-2.1c0-0.4-0.1-0.7-0.3-1l6.2-2.8c0.3,0.8,1.1,1.3,2,1.3
		c1.2,0,2.1-0.9,2.1-2.1C191.8,188.3,191.2,187.5,190.4,187.2z M170.5,187.2v-9.8c0.4-0.1,0.7-0.4,1-0.7l6.2,2.9
		c0,0.2-0.1,0.3-0.1,0.4c0,1,0.7,1.9,1.7,2.1v1.4v1.2l-8.2,2.7C170.9,187.4,170.7,187.3,170.5,187.2z M171.8,188.4l7.5-2.5v5.9
		c-0.2,0.1-0.4,0.1-0.5,0.2l-6.8-3.2C171.9,188.7,171.9,188.6,171.8,188.4z M180.4,191.9V186l7.4,2.5c-0.1,0.1-0.1,0.3-0.1,0.4
		l-6.9,3.2C180.6,192,180.5,191.9,180.4,191.9z M180.4,184.8v-1.4v-1.3c0.8-0.3,1.5-1.1,1.5-2c0-0.2,0-0.3-0.1-0.4l6.3-2.9
		c0.3,0.4,0.7,0.6,1.2,0.7v9.7c-0.3,0.1-0.6,0.2-0.8,0.4L180.4,184.8z M187.6,175.3c0,0.1,0,0.1,0,0.1c0,0.1,0,0.2,0,0.4l-6.3,2.9
		c-0.2-0.3-0.5-0.5-0.9-0.6v-4.1c0.4-0.1,0.8-0.4,1.1-0.8L187.6,175.3z M178,173.3c0.3,0.4,0.8,0.7,1.3,0.8v3.9
		c-0.4,0.1-0.8,0.3-1.1,0.7l-6.2-2.9c0-0.1,0-0.2,0-0.4c0-0.1,0-0.1,0-0.1L178,173.3z"/>
	<path fill="#FFFFFF" d="M99.1,156.9l-2.2,9.2h12.1v-2h-8.5l1.9-5c8.7,5.1,11.2-0.4,11.2-0.4l0,0c1.3-2-2.3-6.3-6.7-9.4l0.8-1.3
		c0.8,0.2,1.8-0.1,2.2-0.8c0.6-0.9,0.3-2.2-0.6-2.8c-0.9-0.6-2.2-0.3-2.8,0.6c-0.5,0.7-0.4,1.7,0.2,2.4l-0.8,1.3
		c-3.4-2.2-6.7-3.6-8.9-3.6c-1,0-1.7,0.3-2.1,0.8c-0.1,0.1-0.2,0.3-0.2,0.4C93.9,147.7,92.7,151.9,99.1,156.9z M112.9,158.5
		c-0.3,0.5-1,0.5-1.5,0.5c-2.2,0-5.8-1.5-9.2-3.9c-2.3-1.6-4-3.2-5.2-4.6c-0.9-1.2-1.4-2.1-1.7-2.9c-0.2-0.6-0.2-1.1,0.1-1.4
		c0.3-0.5,1-0.5,1.5-0.5c2,0,5.4,1.4,8.6,3.5l-2.9,4.5l1,0.6l2.9-4.5C111.4,153.4,113.8,157.1,112.9,158.5z"/>
	<g>
		<circle fill="#FFFFFF" cx="103.7" cy="83.9" r="1.9"/>
		<path fill="#FFFFFF" d="M100.8,83.9c0-0.1,0-0.2,0-0.2l-6.4,1.3c0.4,3.5,2.7,6.4,5.8,7.6l2.8-5.9
			C101.8,86.4,100.8,85.2,100.8,83.9z"/>
		<path fill="#FFFFFF" d="M103.7,81c0.7,0,1.3,0.3,1.8,0.6l1.9-6.2c-1.1-0.5-2.4-0.8-3.7-0.8c-2.3,0-4.4,0.8-6,2.2l3.8,5.2
			C101.9,81.5,102.7,81,103.7,81z"/>
		<path fill="#FFFFFF" d="M112.8,82.7l-6.4,0.4c0.1,0.3,0.1,0.5,0.1,0.8c0,1.3-0.8,2.4-2,2.7l4.3,5c2.5-1.7,4.1-4.5,4.1-7.7
			C112.9,83.5,112.9,83.1,112.8,82.7z"/>
	</g>
	<path fill="#2C3E50" d="M187.2,123.3c-0.3-0.1-0.6-0.1-0.9,0l-3.4-18.9c0.6-0.8,0.9-1.7,0.9-2.7c0-2.1-1.4-3.8-3.3-4.3v-3.9h-2.2
		v3.8c-2.1,0.4-3.6,2.3-3.6,4.4c0,1.1,0.4,2.1,1.1,2.9l-2.7,19c-1-0.2-2,0.5-2.2,1.4c-0.2,0.5-0.1,1,0.2,1.5
		c0.3,0.5,0.7,0.8,1.2,0.9c0.1,0,0.2,0,0.3,0l-0.1,0.8l0.5,0.5l-0.4,2.4h0.7l0.4-1.7l0.6,0.5l3.5-23.9c0.3,0.1,0.6,0.2,0.8,0.3v2.5
		h2.2V106c0.2-0.1,0.5-0.2,0.7-0.3l3.5,19.7c0,0.1,0,0.1,0,0.2l0.8,4.1l0.8-1l0.6,2.1l0.2,0l-0.3-2.5l0.4-0.6l-0.1-0.6
		c0.8-0.1,1.4-0.7,1.6-1.4C188.9,124.6,188.3,123.6,187.2,123.3z M179.3,98.8c1.5,0,2.8,1.3,2.8,2.8c0,1.5-1.3,2.8-2.8,2.8
		c-1.5,0-2.8-1.3-2.8-2.8C176.5,100.1,177.8,98.8,179.3,98.8z M171.8,126c-0.2-0.3-0.2-0.6-0.1-0.8c0.1-0.5,0.6-0.8,1.1-0.8
		c0.1,0,0.2,0,0.3,0c0.6,0.2,0.9,0.8,0.8,1.4c-0.2,0.6-0.8,0.9-1.4,0.8C172.2,126.4,172,126.3,171.8,126z M187.8,125.5
		c-0.2,0.6-0.8,0.9-1.4,0.8c-0.3-0.1-0.5-0.3-0.7-0.5c-0.2-0.3-0.2-0.6-0.1-0.8c0.1-0.5,0.6-0.8,1.1-0.8c0.1,0,0.2,0,0.3,0
		C187.6,124.3,188,124.9,187.8,125.5z"/>
</g>
</svg>
