<?xml version="1.0" encoding="utf-8"?>
<!-- Generator: Adobe Illustrator 18.1.0, SVG Export Plug-In . SVG Version: 6.00 Build 0)  -->
<!DOCTYPE svg PUBLIC "-//W3C//DTD SVG 1.1//EN" "http://www.w3.org/Graphics/SVG/1.1/DTD/svg11.dtd">
<svg version="1.1" id="Layer_1" xmlns="http://www.w3.org/2000/svg" xmlns:xlink="http://www.w3.org/1999/xlink" x="0px" y="0px"
	 viewBox="0 0 300 300" enable-background="new 0 0 300 300" xml:space="preserve">
<g>
	<path fill="#16A085" d="M262.4,232.7l-96.3,55.4c-10.1,5.8-22.5,5.8-32.6,0l-96.1-55.7c-10.1-5.8-16.3-16.6-16.3-28.3L21.2,93
		c0-11.7,6.3-22.4,16.4-28.2l96.3-55.4c10.1-5.8,22.5-5.8,32.6,0l96.1,55.7c10.1,5.8,16.3,16.6,16.3,28.3l-0.2,111.1
		C278.7,216.1,272.5,226.9,262.4,232.7z"/>
	<g>
		<g>
			<line opacity="0.25" fill="#648974" x1="154.3" y1="133.7" x2="129.6" y2="133.7"/>
			<path fill="#3E3B3E" d="M191.8,142.2c0,3.3-2.7,6-6,6h-63.1c-3.3,0-6-2.7-6-6V50.1c0-3.3,2.7-6,6-6h63.1c3.3,0,6,2.7,6,6V142.2z"
				/>
			<rect x="121.9" y="55.4" fill="#E6E6E6" width="64.7" height="81.5"/>
			<path opacity="0.22" fill="#3F5B4E" d="M163.1,141.7c0,0.9-0.8,1.7-1.7,1.7h-14.3c-0.9,0-1.7-0.8-1.7-1.7l0,0
				c0-0.9,0.8-1.7,1.7-1.7h14.3C162.4,140.1,163.1,140.8,163.1,141.7L163.1,141.7z"/>
			<rect x="128.2" y="61.2" fill="#2980B9" width="13.7" height="53.2"/>
			<rect x="145.4" y="61.2" fill="#2980B9" width="36.4" height="1.3"/>
			<rect x="145.4" y="64.6" fill="#2980B9" width="36.4" height="1.3"/>
			<rect x="145.4" y="67.9" fill="#2980B9" width="36.4" height="1.3"/>
			<rect x="145.4" y="71.2" fill="#2980B9" width="36.4" height="1.3"/>
			<rect x="145.4" y="74.5" fill="#2980B9" width="19.5" height="1.3"/>
		</g>
		<path fill="#FFFFFF" d="M113.3,174.6l2-6.5c0,0,4.5-3.3,6.1-12.2c1.6-9,11.4-11.4,11.4-20c0-8.6-8.7-5.7-16.4,8.6v-23.2
			c0,0-15,18.2-15.8,23.5c-0.8,5.3-6.1,22.9-6.1,22.9l19.2,8.6"/>
		<polygon fill="#F2F2F2" points="59,244.8 89.8,164.5 119,175.4 88.9,261.9 		"/>
		<g>
			<path fill="#FFFFFF" d="M203.9,149.7l0.3-3.8c0,0,2.9-8.3,2.9-10.9c0-8.5,0-18-2.2-20.9c-0.9-1.2-4.1-4.5-6.2-1.5
				c-0.5,0.8-2.3-8.8-8-2.6c-0.6,0.7-5.2-7.1-8.1,2.6c-2.1,6.9-1.7-15.2-7.8-14.3c-5.1,0.8,1.7,28.3,1.5,30.8
				c-0.2,2.5-3.1-6.1-6.7-7.4c-3.5-1.3-5.5,0.6-4.5,2.9c1,2.3,14.9,21.5,17.2,23.5c2.3,2,4.1,2.6,4.1,2.6l0.7,2.5l18.4-1.8
				L203.9,149.7z"/>
			<polygon fill="#F2F2F2" points="241,244.6 208.3,149.4 182.3,152.8 214.9,259.8 			"/>
		</g>
		<polygon fill="#30B941" points="199.2,312.4 199.2,312.4 199.2,312.4 199.2,312.4 199.2,313 199.2,313 199.2,313 199.2,313 		"/>
		<g>
			<path fill="#2C3E50" d="M155.1,117.2c-0.4-0.6-1-1.1-1.7-1.4v-0.8h0.2c0.6,0,1-0.5,1-1v-0.6c0-0.6-0.5-1-1-1h-3.9
				c-0.6,0-1,0.4-1,1v0.6c0,0.6,0.5,1,1,1h0.2v0.8c-1.5,0.7-2.5,2.1-2.5,3.8c0,2.3,1.9,4.2,4.2,4.2c2.3,0,4.2-1.9,4.2-4.2
				C155.9,118.8,155.6,117.9,155.1,117.2z M151.7,122.8c-1.8,0-3.2-1.4-3.2-3.2c0-1.3,0.9-2.5,2.1-3c0.2-0.1,0.3-0.3,0.3-0.5v-1.7
				c0-0.2-0.2-0.4-0.4-0.4h-0.7c-0.1,0-0.2-0.1-0.2-0.2v-0.4c0-0.1,0.1-0.2,0.2-0.2h3.6c0.1,0,0.2,0.1,0.2,0.2v0.4
				c0,0.1-0.1,0.2-0.2,0.2h-0.7c-0.2,0-0.4,0.2-0.4,0.4v1.7c0,0.2,0.1,0.4,0.3,0.5c1.3,0.4,2.1,1.6,2.1,3
				C154.9,121.4,153.5,122.8,151.7,122.8z"/>
			<ellipse fill="#2C3E50" cx="152.5" cy="118.5" rx="0.6" ry="0.6"/>
			<ellipse fill="#2C3E50" cx="151.5" cy="117.3" rx="0.3" ry="0.3"/>
			<path fill="#2C3E50" d="M151.5,119.5c0-0.5-0.4-0.9-0.9-0.9c-0.5,0-0.9,0.4-0.9,0.9c0,0.1,0,0.2,0,0.3H149
				c0.1,1.5,1.3,2.6,2.7,2.6c1.5,0,2.7-1.2,2.7-2.6h-3C151.5,119.7,151.5,119.6,151.5,119.5z"/>
		</g>
		<g>
			<path fill="#2C3E50" d="M153.2,90.8c0-0.4-0.6-0.7-1.4-0.7c-0.7,0-1.4,0.3-1.4,0.7c0,0,0,0,0,0.1c-0.2,0.1-0.4,0.2-0.4,0.3
				c0,0.2,0.3,0.3,0.8,0.3c0.2,0,0.3,0,0.5-0.1c0.2,0,0.3,0.1,0.5,0.1C152.6,91.4,153.2,91.2,153.2,90.8z"/>
			<path fill="#2C3E50" d="M154.5,91.5c0.1,0,0.1,0,0.2,0c0.1,0.1,0.2,0.2,0.3,0.2c-0.1,0-0.1,0.1-0.1,0.1c0,0.1,0.2,0.1,0.3,0.1
				c0.2,0,0.3-0.1,0.3-0.1c0,0,0,0,0,0c0.4,0,0.7-0.2,0.7-0.4c0-0.2-0.4-0.4-0.8-0.4c-0.1,0-0.2,0-0.4,0c-0.1-0.1-0.2-0.1-0.4-0.1
				c-0.2,0-0.4,0.1-0.4,0.2c0,0,0,0.1,0.1,0.1c-0.2,0-0.3,0.1-0.3,0.2C154.1,91.4,154.3,91.5,154.5,91.5z"/>
			<ellipse fill="#2C3E50" cx="152.8" cy="91.8" rx="0.4" ry="0.2"/>
			<path fill="#2C3E50" d="M159.2,90.8c0.1-0.2,0.2-0.5,0.2-0.7c0-1.7-2.7-3.1-6.1-3.1s-6.1,1.4-6.1,3.1c0,0.2,0,0.4,0.1,0.7
				c-0.2,0.3-0.3,0.6-0.3,1c0,1.8,2.7,3.2,6.3,3.2c3.6,0,6.3-1.4,6.3-3.2C159.5,91.4,159.4,91.1,159.2,90.8z M153.2,93.8
				c-3,0-5.2-1.1-5.2-2.1c0,0,0,0,0,0c1.1,0.9,3,1.5,5.3,1.5c2.2,0,4.1-0.6,5.2-1.4C158.4,92.7,156.2,93.8,153.2,93.8z M148.2,90.9
				c0.9-0.8,2.8-1.3,5-1.3c2.2,0,4.2,0.6,5,1.4c-0.7,0.8-2.6,1.5-5,1.5C150.8,92.4,149,91.7,148.2,90.9z M158.5,90.5
				c-1-0.9-3-1.5-5.3-1.5c-2.3,0-4.2,0.6-5.3,1.4c0-0.1-0.1-0.2-0.1-0.4c0-1.1,2.2-2.3,5.4-2.3s5.4,1.2,5.4,2.3
				C158.6,90.2,158.6,90.3,158.5,90.5z"/>
		</g>
		<path fill="#2C3E50" d="M171.9,107.8c-0.4,0-0.7,0.1-0.9,0.4l-0.8-0.8c0.5-0.6,0.8-1.4,0.8-2.3c0-1.4-0.7-2.5-1.8-3.2l0.9-1.6
			c0.1,0,0.2,0.1,0.3,0.1c0.6,0,1-0.5,1-1s-0.5-1-1-1c-0.6,0-1,0.5-1,1c0,0.3,0.1,0.6,0.4,0.8l-0.9,1.6c-0.5-0.2-1-0.3-1.6-0.3
			c-0.8,0-1.6,0.3-2.3,0.8l-0.8-1.1c0.2-0.2,0.3-0.6,0.3-0.9c0-0.8-0.7-1.4-1.4-1.4c-0.8,0-1.4,0.7-1.4,1.4c0,0.8,0.7,1.4,1.4,1.4
			c0.3,0,0.6-0.1,0.9-0.3l0.8,1c-0.7,0.7-1.2,1.6-1.2,2.7c0,0,0,0,0,0.1h-0.9c-0.1-0.5-0.6-0.9-1.1-0.9c-0.7,0-1.2,0.5-1.2,1.2
			c0,0.7,0.5,1.2,1.2,1.2s1.2-0.5,1.2-1.2h0.9c0.2,1.4,1.1,2.6,2.3,3.1l-0.3,0.6c-0.2-0.1-0.4-0.1-0.6-0.1c-0.9,0-1.7,0.8-1.7,1.7
			s0.8,1.7,1.7,1.7s1.7-0.8,1.7-1.7c0-0.6-0.3-1.1-0.8-1.4l0.3-0.7c0.3,0.1,0.7,0.1,1,0.1c1.1,0,2-0.5,2.7-1.2l0.8,0.8
			c-0.1,0.2-0.2,0.5-0.2,0.8c0,0.8,0.6,1.4,1.4,1.4s1.4-0.6,1.4-1.4C173.2,108.4,172.6,107.8,171.9,107.8z"/>
		<path fill="#2C3E50" d="M180.8,78.4c-0.1-0.4-0.5-0.6-0.9-0.5c-0.4,0.1-0.6,0.5-0.5,0.9c0.1,0.2,0.2,0.3,0.3,0.4
			c0,0.5-0.2,1.2-0.7,1.8c-1.4-1.6-1.9-2.2-2.2-2.5c0.1-0.1,0.3-0.2,0.3-0.2c0.2,0.2,0.4,0.2,0.7,0.2c0.4-0.1,0.6-0.5,0.5-0.9
			c-0.1-0.4-0.5-0.6-0.9-0.5c-0.3,0.1-0.5,0.3-0.5,0.6c-0.6,0.2-2.5,1.3-2.2,4.6c-2.1,0.1-3.2,0.6-3.7,1c-0.1,0-0.3,0-0.4,0
			c-0.4,0.1-0.6,0.5-0.5,0.9c0.1,0.4,0.5,0.6,0.9,0.5c0.3-0.1,0.5-0.4,0.6-0.7l2.2,2.3c-0.1,0-0.1,0.1-0.2,0.1
			c-0.2-0.1-0.4-0.2-0.6-0.1c-0.4,0.1-0.6,0.5-0.5,0.9c0.1,0.4,0.5,0.6,0.9,0.5c0.3-0.1,0.5-0.4,0.6-0.7c1-0.5,1.9-1.8,1.7-4.1
			c0.7,0,1.3-0.1,1.8-0.2c0.8-0.2,1.5-0.6,2-1.1c0.7-0.7,1-1.5,1.1-2.5C180.8,79.1,180.9,78.7,180.8,78.4z M174,86.2l-2.3-2.4
			c0.2-0.1,0.3-0.2,0.6-0.2l2.2,2.2C174.3,85.9,174.1,86,174,86.2z M174.6,85.3l-1.9-1.9c0.3-0.1,0.6-0.2,1.1-0.2l1.1,1.1
			C174.8,84.6,174.7,85,174.6,85.3z M174.2,83.1c0.2,0,0.4,0,0.6,0c0,0.2,0,0.4,0,0.6L174.2,83.1z M175.4,82.3c0-0.5,0-0.9,0-1.3
			l1.1,1.3C176.2,82.3,175.8,82.3,175.4,82.3z M176.9,82.2l-1.4-1.7c0.1-0.3,0.2-0.6,0.3-0.9c0.5,0.5,1.3,1.5,2,2.2
			C177.5,82,177.2,82.1,176.9,82.2z M178.1,81.7c-1.2-1.4-1.8-2.1-2.1-2.4c0.2-0.2,0.3-0.4,0.5-0.6c0.3,0.3,1.4,1.6,2.3,2.5
			C178.6,81.5,178.4,81.6,178.1,81.7z"/>
	</g>
</g>
</svg>
