<?xml version="1.0" encoding="utf-8"?>
<!-- Generator: Adobe Illustrator 18.1.0, SVG Export Plug-In . SVG Version: 6.00 Build 0)  -->
<!DOCTYPE svg PUBLIC "-//W3C//DTD SVG 1.1//EN" "http://www.w3.org/Graphics/SVG/1.1/DTD/svg11.dtd">
<svg version="1.1" id="Layer_1" xmlns="http://www.w3.org/2000/svg" xmlns:xlink="http://www.w3.org/1999/xlink" x="0px" y="0px"
	 viewBox="0 0 250 100" style="enable-background:new 0 0 250 100;" xml:space="preserve">
<g>
	<g>
		<path style="fill:#FFFFFF;" d="M32,57.4c0,0,0.2,0.2,0.2,0.4c0,0-0.3,0.6,0.5,1.3c0,0,0.7,0.5,0.9,0.6c0.2,0.2-2.6,0.2-2.6,0.2
			l0.1,1.2l2.2,0.4l14.1-0.1v23.8h1.5V61.3h2.8v25.8h1.5V59.9h-7.8c0,0-0.2-0.2,0-0.3l2.8-7.4c0,0,0.1-0.2-0.3-0.1l-1,0.2
			c0,0-0.2,0.1-0.3,0.2l-2.5,6.6l-7.8,0.1c0,0-0.1,0.4,0.2,0.5l-0.8,0.1c0,0,1.3-1.7,0.6-2.4c0,0-0.8-0.8-1.4-0.8
			c0,0-0.4-0.2-0.5-0.4s-1.7-1.8-1.8-2.1c-0.1-0.2-0.6-1.4-1.1-1.8c-0.4-0.4,0-0.7-0.5-1.2c-0.5-0.4-0.5-1.3-0.8-1.3s0.2,0,0.2,0
			s0.9-1.7,1.6-1.3c0,0,1.3,0.7,1.5,0.2c0,0,0.1-0.6,0.5-0.5L34.1,48c0,0,0.2,0.1,0.3-0.2c0,0,0-0.5,0.2-0.5c0,0,0.7,0.2,0.6-0.4
			c0,0-0.2-1.2,0-1.4c0.2-0.3,1.1-1.6,0.5-2.5c0,0,0.7-2-3.1-2.8c0,0-1.6,0-2.1,0.4c0,0-0.2,0.1-0.5-0.2c0,0-1.1-0.9-1.9,0.2
			c0,0-0.5,0.3-0.8,3.7c0,0-0.5,1.5-0.6,1.8c-0.2,0.2-0.2,0.2-0.2,0.7c-0.1,0.5,0.1,0.5-0.3,1.2c-0.4,0.6-0.5,1.2-0.9,1.9
			s-0.8,1.1-0.7,1.7c0.1,0.6,0.2,0.8,0.2,0.8l0.1-0.1c-0.1,0.3-0.2,0.6-0.2,1.1c-0.1,0.8-0.1,2-0.1,2.3c-0.1,0.3-0.2,0.6-0.5,1.2
			s-0.5,2.1-0.5,2.6s0.2,0.4-0.5,0.9c-0.7,0.6-1.2,1.2-1.7,1.7c-0.5,0.6-1.2,1.5-1.4,1.6c-0.2,0.2,0,0.2-0.1,0.4
			c-0.1,0.2-0.2,0.5-0.1,0.5c0.2,0.1,0.2,0.2,0,0.4c-0.1,0.2-0.5,2.6,0.8,3.8c0,0-3.5,0.2-3.1-0.9c0,0,2.8-9,0.9-11L17,56.3
			c0,0-0.2-0.1-0.1,0.2c0,0,1.8,3,0.4,6.8l0.4,0.3l-2,5.5c0,0-0.7-0.1-0.2,0.6l-2,15.9h2l0.4-5.9l0.8-8.8c0.3-0.4,0.7-0.8,1.2-0.8
			l11.4,0.7v3.1l-3.5,2.2l0.1,0.2c-0.3,0.3-2.8,1-2.8,1c-0.2-0.4-1.5-0.2-1.5-0.2c-1-0.2-1,0.6-1,0.6c0.2,1,0.1,2.9,0.1,3.9l0,0
			c-0.1,0.6-0.5,2.8-0.1,3.5c0,0,0.7,0.5,1.4,0.6c0,0,2.2,0.2,0.8-1.6c0,0,0.2-1.9,0.8-2.5c0.2-0.3,0.5-0.8,0.4-0.8
			c0,0,1.6-1.9,3.3-2.5l0.8,0.9l1.4-1l0.1,7.3h1.5l0.1-0.8c0,0,1.4-0.2,1.8,0c0.5,0.2,2,0.2,2.3,0.2c0.3,0,2.9-0.2,2-1.1
			c0,0-1.8-0.6-2.1-0.8c-0.2-0.2-2.3-1.5-2.5-1.4c0,0-0.6-0.7,0.2-1.9l1.2,0.4c0,0,1.2-2.8,1.3-3c0.1-0.2,0.1-0.5,0.3-0.7
			s0.9-1.9,1.2-2.1c0,0,2.6-1.4,1.6-3.1c0,0,1.5-1.9,0.8-3.1c0,0-0.8-1.2-3-1.5c-2.2-0.2-7.5-1.4-7.5-1.4s-0.4-0.2-0.2-0.5
			c0,0,0-0.4,0.2-0.5c0.1-0.2,0.4-0.3,0.4-0.5s0.1-0.2,0.2-0.3c0.2-0.2,0.2-0.2,0.2-0.4c0.2-0.2,0.8-2,1-2.3c0,0,0.4-1.8,0.6-1.8
			C31.1,59,32,58.8,32,57.4z M31.2,70.9c0.2,0.4,2,1.3,2,1.3c-0.4,0-2.1,0.8-2.1,0.8L31.2,70.9z M27.2,49.2l1.6-2.2l0,0
			c0,0.1,0,0.2,0.1,0.2C29,47.5,28.1,48.4,27.2,49.2z M29.2,42.4c-0.2-1.7,0.6-1.4,0.6-1.4c0.2,0,0.2,0.4,0.2,0.4
			C29.9,41.4,29.2,42.5,29.2,42.4z"/>
		<path style="fill:#FFFFFF;" d="M190,43.3c-0.2-0.4,0-0.4-0.2-0.8c-0.2-0.4-0.3-0.2-0.3-0.8c0-0.6-0.3-0.6-0.5-1
			c-0.2-0.4-0.6-0.9-1.1-1.8c-0.5-0.8-0.2-1.1-0.3-1.7c-0.1-0.5-0.5-1.2-0.7-1.2c-0.2-0.1-0.7-0.2-0.7-0.2c-0.2-1.8-0.5-1.9-0.5-1.9
			c-0.3-0.4-2.5-1.4-2.5-1.4l-0.1-0.6c0.1-0.2,0.1-0.3,0.1-0.3c0.2-0.4,0.1-0.7,0.1-0.7c1.3-3.4-1.4-4.7-1.4-4.7
			c-4.2-1.4-4.4,3.5-4.4,3.5c-0.7-0.7-0.5,1.5-0.5,1.5c-0.1,1.2,0.5,0.4,0.5,0.4c0,0.5,0,2.2,0,2.2c-0.5,0-0.9,0.4-1.2,0.7
			c-0.2,0.3-0.8,0.7-0.9,0.8s-0.9,0.2-1.5,0.4c-0.6,0.2-1.5,0.6-2.1,0.7c-0.5,0.1-0.6,0.8-0.7,1.3c-0.1,0.5-0.3,1.2-0.5,1.5
			c-0.2,0.4,0,0.9,0,1.2c-0.1,0.3-0.2,0.8-0.3,1.2c-0.1,0.5-0.2,1.5-0.5,2.3c-0.2,0.8,0,1.5-0.2,1.8c-0.1,0.4,0.1,1.1,0,1.6
			c-0.2,0.5-0.2,1.2-0.4,1.8c-0.2,0.5-0.2,1.7-0.2,2.4c-0.1,0.7-0.1,1.6-0.1,1.6s0.1,1.5,0,2.3c0,0.8-0.2,1.9-0.2,1.9
			c-0.2,0.5,0.4,0.3,0.4,0.3l-0.1,0.5c-0.1,0.5,1,2,1,2c0.4,0.5,0.5,0.3,0.5,0.3c0.1,0.2,1,0.4,1,0.4c0.4-0.1-0.1-0.5-0.1-0.5
			c0.2,0,0.3-0.2,0.3-0.2c0-0.1,0-0.2,0-0.2l0,0c0.4,0,0-2.3,0-2.3c0.2-0.2,0.2-2.6,0.2-3.3c0-0.6-0.1-1.6-0.1-2
			c0.1-0.4,0.2-0.8,0.3-1.5c0.1-0.8,0.1-1.4,0.2-1.8c0.1-0.4,0.1-0.8,0-1.3c0-0.5,0.2-0.9,0.2-0.9c0.5-1,0.2,0.9,0.2,1.4
			c0,0.4,0.1,1.6-0.1,2.1s-0.2,1.8-0.2,1.8l0.2-0.1c0,0,0,2.1,0,3c0.1,0.9,0,1.1-0.2,1.5c-0.2,0.5,0,2.7,0,2.7l0.6,0.1
			c-0.1,0.3,0.2,3.8,0.2,4.8c0.1,1,0.4,3.4,0.4,3.8c-0.1,0.4-0.2,1.5-0.1,2.5c0,1,0.2,1.8,0.2,2.7c0,0.9,0.5,3.1,0.4,4.5
			c0,1.3,0,1.2,0.3,2.1c0.3,0.8,1.5,4.1,1.5,4.1l0.2,0.1c-0.4,0.5-0.5,2-0.5,2c0.2,1.3,3,0.7,3,0.7c0.9-0.8,0.4-1.8,0.4-1.8
			c0.1-0.2,0.2-0.7,0.1-0.8c0-0.2,0.2-0.3,0.2-0.3c0.8,1.1,3.1,0.7,3.1,0.7c0.5-0.4-0.1-0.8-0.1-0.8c-0.1-0.6-1-2.3-1.1-2.6
			s0.2-0.8,0.2-1.5c0.1-0.7,0.5-1.9,0.6-2.5c0.2-0.6,0.5-1.5,0.7-2.5c0.2-0.8,0.5-2,0.6-2.5c0.2-0.5,0.7-2.5,0.7-3.2
			s0.2-0.6,0.5-1.2c0.2-0.6,0.5-1.5,0.5-2c0-0.5-0.2-1.7-0.2-1.7s0.1-0.6,0.2-1.7c0-1.1,0-2.9,0-2.9l0.4-0.1c0,0,0-0.8-0.1-1.5
			c-0.1-0.7,0-4.5,0-5.1s0-1.5,0-1.5l-0.4-1.5c0,0,0.2-2.7,0.2-3.3c-0.1-0.6,0.2-2.5,0.2-2.5c0.1,0.2,0.6,0.8,0.8,1.2s0,0.4,0.2,0.5
			s0.2,0.1,0.5,0.3c0.2,0.2,1.1,0.4,1.1,0.4c1.2,0.4,2.3-1,2.4-1.5C190.2,44.5,190.2,43.7,190,43.3z M170.8,59.9
			c0-0.1-0.1-0.8-0.1-0.8l0.3-0.2c0,0.5,0.1,0.8,0.2,1.1C171.1,59.9,170.8,59.9,170.8,59.9z M178.6,37.5c0,0-0.1,0.8-0.3,1.2
			c-0.2,0.4-0.4,1.1-0.4,2.2s-0.2,1.5-0.2,1.5s-0.3-0.8-0.8-1.8c-0.5-1-0.6-2.3-0.7-3.4c-0.1-1.1,0.3-2.7,0.3-2.7
			c0-0.6,0.8-0.8,0.8-0.8l-0.1,0.6c-1.2,0.8,1.5,1.8,1.5,1.8c-0.3-0.1-1.2,0-1.2,0C177.4,36.7,178.6,37.5,178.6,37.5z M180,38.6
			c-0.4-0.5-0.1-1.2-0.1-1.2c0.4-0.2,0.6-1.1,0.6-1.1c-0.2,0.2-1,0-1,0c0.5,0,2.2-2.1,2.2-2.1C181.5,35.4,180,38.6,180,38.6z
			 M182.7,32.8c-0.2-0.1-0.4,0.2-0.4,0.2c-0.5,0.4,0.3,0.5,0.3,0.5v0.8l-0.8-0.7c-0.2-0.3,0.2-0.8,0.2-0.8c0.1,0,0.1,0,0.2,0
			c0.2-0.1,0.2-0.2,0.4-0.5L182.7,32.8L182.7,32.8z M183,34.2v-0.5c0.4,0.1,1,0.5,1,0.5C183.7,34,183,34.2,183,34.2z"/>
		<path style="fill:#FFFFFF;" d="M227.3,11.9v75.8h1v-1.2h8.5v1.2h1V11.9h-1v1.3h-8.5v-1.3H227.3z M236.9,28.4v1.5h-4.3v0.8h-2.5
			v0.8h-1v3.9h-0.5v7.4h-0.2V28.4H236.9z M236.9,43.5v0.7h-4.3v1.5h-3.1v4.1h-0.8v7.8h-0.4V43.6L236.9,43.5L236.9,43.5z M228.3,60.7
			v-2.2h8.5v2.2H228.3z M236.9,14.1V15l-4.5-0.1v1h-3.3v3.5h-0.3v8.1h-0.5V14.1H236.9z M228.3,85.7V71.9h8.5v1.7h-4v0.8h-3.2v4.2
			H229v7.1H228.3z"/>
		<g>
			<path style="fill:#FFFFFF;" d="M211.5,81.3c0,0,0.4,0.3,0.8,0.8c0.5,0.5,1.5,1.5,2.2,1.9c0.7,0.5,0.8,0.8,0.4,1.3
				c-0.5,0.5-4.5,1.8-5.7,0.3c0,0-0.4-0.2-0.8-0.3c-0.5-0.2-0.8-0.7-0.8-1.4c0.2-0.7-0.2-1.8,0.2-1.8c0,0,0.3-1.2,0-1.2l-0.8-0.2
				c0,0,0.7-6.8,1.1-9.1c0.4-2.2-0.2,0.7,0.2-0.6s0.2-1.2,0.4-1.9c0.2-0.8-0.1-1.8,0.2-2.6c0.3-0.8,0.1-1.7,0-2.8
				c0-1.1-0.2-2.8,0-3.8c0.2-1-0.5-3.1-0.1-4l-0.8-0.4c0,0,1.9-4.8,2.2-6.5s-0.2-3.6-1.2-5c-0.8-1.5-1.6-3.9-1.6-5.6
				c-0.1-1.8,0.4-3,1.6-3.8c0,0,0.5-0.2,0.8-0.1l0.5-0.9c0,0,0.1-0.4,0.3-0.3c0,0,0.2-0.4-0.5-1.4c0,0-1.9-1.7-0.8-2.5
				c0,0-1.3-4.4,2.2-4.5c0,0,3.2-0.4,3.4,2.5c0,0,0,1-0.2,1.3c0,0,0.4,0.8,0.2,1.8c0,0-0.2,0.9-0.2,1.5c0,0,0.2,1.4-0.8,1.6
				c0,0,0.3,0.3,0.5,0.3c0.2,0.1,0.4,1.1,0.4,1.1s1.2,0.5,2,1.8c0,0,1.8-1.8,2-1.6c0,0,0.5-0.4,0.5-1.4c0,0-0.2-1.4-0.2-1.7
				s0.1-1.3,0.3-1.6c0.2-0.3,1-0.8,1.6-0.8c0.6,0,1.4,0.2,1.2,1.2c-0.2,0.9-0.5,1.2-0.6,1.8c-0.1,0.5,0.3,1.8-0.5,2.5
				c0,0-0.5,1.2-0.5,1.5c0,0,0.8,0.8,0.5,1.8l-1.9,1.9c0,0,0,1.6-0.4,3.8c-0.4,2.2,0.6,3.9,0.8,5c0.2,1,1.2,4.6,0.9,6.3
				c0,0.1,0,0.2,0,0.2l-1.2,0.2c0,0,0.6,1.2,0.2,4.1c-0.4,2.8-1,3.8-1.3,5.7c-0.3,1.8-0.6,4-1.2,5.1c-0.5,1.1-0.8,5.1-1,6.3
				c-0.2,1.2,0,3.4,0,3.4l-0.2,0.1c0,0,0.2,0.6,0.5,0.8c0,0,0.8,0.1,1.4,0.8c0,0,0.9,1.3,2.6,1.5c0,0,2.2,0.4,1,1.2
				c0,0-2.8,1.1-5.3-0.2c0,0-0.8,0-1,0.2h-2.1c0,0-1.2-1.2-0.7-2.8c0,0,0.1-0.3,0.2-0.2c0,0-0.1-0.8,0-1c0,0-0.5,0.1-0.6-0.3
				c0,0,0.5-5.4,0.7-6.5c0,0,0.4-1.1,0.4,0.9s-0.8,5.8-0.8,5.8l-0.4,0.1L211.5,81.3z"/>
			<polygon style="fill:#FFFFFF;" points="229.7,31.3 226.6,19.1 219.1,21.8 221.3,33.4 			"/>
		</g>
		<path style="fill:#FFFFFF;" d="M78.8,37.3c0,0-2.3-4.6-3.2-4.4c0,0-0.5-1.3-0.5-1.6c0.1-0.4,0.8-2-0.4-2.3l-1.5-0.5
			c0,0,0-0.2,0.1-0.5c0.5-0.1,0.3-0.7,0.1-1.2c0-0.7-0.1-1.5-0.3-2.4c0,0-2-4.1-5.8-0.4c0,0-1.2,2.2,0.3,4.8c0,0,0.5,1.5,0.2,1.8
			c-0.4,0.3-0.8,0.9-1.5,1.2c-0.6,0.3-2.4,0.7-3.1,0.6c-0.6-0.1-1.3,0.1-1.3,0.1s-1.2,3.3-1.5,5.1c-0.4,1.8-0.4,2.6-0.5,3.6
			c-0.1,1-0.2,3.5-0.2,4.2c0.1,0.7,1,6.1,1.5,6.7l0.5-0.2l0.2,0.4l0.5-0.2c0,0,0.5,1.5,1.1,1.8l0.2,3.6c0,0,0.2,1.4-0.4,2.8
			c-0.5,1.5,0,3.4-0.1,4.7c-0.1,1.3-1.2,5-1.5,5.8c-0.3,0.8-0.8,5.1-0.8,6.4c0.1,1.3-0.2,2.5-0.2,3.3c0.1,0.7,0.6,1.6,0.7,2.2
			c0.1,0.5-1.3,3.1-0.1,3.1c1.2,0,3.2-0.1,3.2-0.1s0.4-1.6,0.1-2c0,0,2-2.3,0.7-3.3c-1.3-1-0.5-0.8-0.3-1.7c0.3-0.9,1-2.7,1-3.5
			s0.1-3.5,0.2-4.5c0.2-1.1,0.8-3.9,1.5-6c0.7-2.1,1.5-4.4,1.5-5.1c0-0.6,0.3-1.2,0.3-1.2s0.4,1.7,0.4,2.1s0.5,3.4,0.3,4.3
			c-0.2,0.9,0.5,4.8,0.4,5.4c-0.2,0.5-0.5,0.7-0.5,1.5c-0.2,0.8-0.2,3.5-0.2,4.5c-0.1,0.9-0.6,1.1-0.6,1.8c0,0.8-0.2,0.9-0.5,1.6
			c-0.3,0.7,0.2,3.5,0,3.8c-0.2,0.4-0.4,2.2,0.5,2.2c0.9-0.1,2.9-0.2,3.3,0c0.5,0.2,4.7,0,4-0.9c-0.7-0.9-0.9-0.6-1.5-0.6
			s-1.2-0.2-1.5-0.6c-0.3-0.5-0.1-0.8-0.1-1.5c0-0.6,1.4-8.1,1-11c-0.5-2.8-0.5-1.2-0.2-2.9c0.3-1.7,0.5-4.6,0.5-6.5
			c0.2-1.8,0.9-5.6,0.6-6.1H77c0,0-0.3-5.3-1-7c-0.7-1.7-0.7-3-0.9-3.8c-0.2-0.8-0.1-4.5-0.1-4.5s3.6,1.6,4.5-0.2
			C79.5,40.1,80.5,39.3,78.8,37.3z M63.5,47.4c0,0-0.3-0.5-0.4-1c-0.1-0.5-0.2-1.8-0.2-1.8s-0.1-0.4,0.1-0.6
			c0.2-0.3,0.8-2.8,0.8-2.8S64.9,44.6,63.5,47.4z M70.2,52.3l-1.1-0.9c0.9-11.6,0-18.1,0-18.1l0.7-0.8l0.8,0.7l-0.4,0.7l1.1,17.4
			L70.2,52.3z M73.9,33.3c-0.4,0.2-2.1-0.5-2.1-0.5l-0.4-1.2c0,0,0.7-0.5,0.8-0.8c0,0,0.6,1.4,1.2,1.5C74,32.2,74.3,33.1,73.9,33.3z
			"/>
		<g>
			<path style="fill:#FFFFFF;" d="M125.4,78c-0.4-0.2-0.8-0.6-1.4-0.9c-0.5-0.3-1.3-2-2.4-3.6c-1.1-1.6-2.1-6.2-2.1-6.2
				c1.2-1.3-0.5-2.4-0.5-2.4c-0.1-0.4-1.8-4.8-1.8-4.8c-0.5-1.5-1.4-1-2.1-1.2c-0.7-0.2-1.3,0.1-2.6,0.1c-0.1,0-0.5,0.1-0.5,0
				c1.1-1.2,1.2-3.5,1.2-3.5c0.1-1.2-3.7-6.5-3.7-6.5c-0.7-1.6-2.7-1.2-2.7-1.2c-0.4-0.2-1-0.3-1-0.3c-0.2-0.3-0.5-2.1-0.5-2.1
				c0.4-0.4,0.6-1.8,0.6-1.8c0.2-0.4,0.2-1.8,0.2-1.8c0.1-1.4-1.5-2.7-1.5-2.7c-2.7-1.5-4,0.8-4.1,1.1c-0.1,0.3,0.1,0.6-0.1,0.9
				c-0.2,0.2,0.1,1.8,0.1,1.8c-0.2,0.1,0.5,1.2,0.5,1.2c0,0.6,1.2,1.8,1.2,1.8c0.3,1.1-0.8,2.2-0.8,2.2s0,0-0.2-0.1
				c-0.2-0.1-0.2-0.1-0.2-0.1c-0.2,0.4-1.3,0.9-1.3,0.9c-0.8,0.2-0.8,0.8-0.8,0.8c-2.6-1.2-2.4,0.9-2.4,0.9
				c1.2,6.8,0.8,14.7,0.8,14.7C97.2,65.9,97,68,97,68.2c0,0.2,0.6,0.2,0.9,0.1c0.2-0.1,0.6-0.2,0.6-0.2c0.1,0.2,0.9,0.2,0.9,0.2
				c0.5,0.5,3.6,0.2,3.6,0.2c-0.1,0.1,0.3,0.2,0.3,0.2c2.1-0.2,2.4,1.1,2.4,1.1h0.9l0.2,0.4l0.2,0.1l0.1,3.2l-0.5,0.1v0.2l0.1,0.1
				l0.1,4.5c-0.3,0.1-0.6,0.4-0.6,0.4h-0.1c-3.5,0.1-8.4,3.9-8.4,3.9c-0.2,0.2,0.3,0.4,0.3,0.4L98,83.1c-1.4,0.3-0.9,1.2-0.9,1.2
				c0.4,1.2,1.3,0.6,1.3,0.6c0.8,0,0.8-0.7,0.8-0.7c0.1-0.2,0.1-1.2,0.1-1.2C99.2,83,99,83,99,83l0.1-0.2c0.3-0.1,0.2-0.8,0.2-0.8
				c0.8-0.7,3.2-1.4,3.2-1.4l0.1,0.3l0.4,0.2c-0.2,0-0.5,0.2-0.5,0.2c-0.8,1.2,0.2,1.8,0.2,1.8c0.4,0,0.4-0.6,0.4-0.6h0.2
				c-0.2,0.2,0.3,0.5,0.3,0.5c0.6-0.1,0.5-1.2,0.5-1.2l-0.1-0.5c0-0.2-0.5-0.2-0.5-0.2l0.1-0.1l0.4-0.1l0.1-0.8
				c0.5-0.5,2.3-0.4,2.3-0.4c-0.1,0.1,0.6,0.4,0.6,0.4c-0.4,0.8-0.5,3.3-0.5,3.3c-0.1,0.3,0.3,0.3,0.3,0.3l0.2,0.2
				c-0.2,0-0.3,0.2-0.3,0.2v0.4c-0.3,1.2,0.5,1.3,0.5,1.3c0.2,0,0.3-0.4,0.3-0.4c0.2,0,0.3-0.2,0.3-0.2c0,0.5,0.5,0.5,0.5,0.5
				c0.8-0.2,0.2-1.7,0.2-1.7c-0.1-0.3-0.7-0.3-0.7-0.3v-0.2c0.2,0,0.2-0.2,0.2-0.2c-0.2-0.3,0.4-3.2,0.4-3.2c0.6,0,1.2-0.5,1.2-0.5
				c0.1,0,0.2,0,0.5,0l0,0c-0.2,0.1-0.1,0.8-0.1,0.8c0.1,0.6-0.4,1.8-0.4,1.8l0.3,0.4l0.5-0.1l0.4-0.8c0.2,0,0.7,2.2,0.7,2.2
				c0.1,1.2,1,1.5,1,1.5c1.2,0.8,2.1,0.5,2.1,0.5c0.8-0.3,0-1.2-0.2-1.6c-0.2-0.4-0.3-0.6-0.4-0.8s-0.1-3.2-0.1-3.2
				c0.3,0,1.9,0.8,1.9,0.8c0.3,0.1,0.2,0.7,0.2,0.7c-0.1,0.2,0.7,0.3,0.7,0.3c-0.2-0.1-0.5,0.1-0.5,0.1l-0.1,0.3
				c-0.3,1.1,0.2,1.5,0.2,1.5c0.3,0.2,0.4-0.5,0.4-0.5c0.1,0.1,0.3-0.1,0.3-0.1c-0.2,0.4,0.5,0.5,0.5,0.5c0.8-0.6-0.2-2-0.2-2
				c-0.2-0.9-3.5-2.9-3.5-2.9c0-1.6,2.2-11.3,2.2-11.3c0.1,0.6,2.7,4.8,2.8,5.2c0.2,0.4,0.3,0.5,0.1,1.1c-0.2,0.5-0.4,2.2-0.4,2.2
				c0.5,0.3,1.4,2.3,1.4,2.3l0.8-0.4c-0.7-1.4,0.9,0.6,0.9,0.6c0.7,0.4,2.8-0.2,3.5-0.5C126.2,78.5,125.7,78.2,125.4,78z
				 M108.8,78.1l-0.2-4.4l0.2-0.2l-0.1-0.2l-0.4-0.1v-3.2c0.1,0.1,0.2-0.2,0.2-0.2c0-0.5,0.3-0.5,0.3-0.5l0.1,0.6
				c-0.2,0-0.2,0.2-0.2,0.2l0.3,1.8c0,0.2,0.4,0.2,0.4,0.2l1.3-0.2c0.4-0.1,0.3-0.2,0.3-0.2l-0.2-1.8c-0.1-0.3-0.3-0.2-0.3-0.2
				l-0.2-0.6c0.5,0,0.4-0.2,0.4-0.2h1.3c-0.4,0.2-0.5,2.8-0.3,4.1c0.2,1.3-0.2,5.7-0.2,5.7c-0.2,0-0.3,0.1-0.5,0.1
				c-0.7-0.2-1.3-0.2-1.3-0.2C109.8,78.2,108.8,78.1,108.8,78.1z"/>
			<path style="fill:#FFFFFF;" d="M113.5,62.4v1.5h2.9v23.7h0.7v-19l5.3-4.8h29.4l5.4,4.8v18.9h0.8V63.9h2.9v-1.5H113.5L113.5,62.4z
				 M153.2,63.9h4.1v3.8L153.2,63.9z M117.1,67.7V64h4L117.1,67.7z"/>
			<path style="fill:#FFFFFF;" d="M126.2,55.5c0.1,0.7,0.1,1.3,0.3,1.8c0.2,0.5,0.1,0.2,0.1,0.7c0,0.5,0.2,0.9,0.6,1.5
				c0.5,0.6,0.8,2.5,0.8,2.5s0.1,0.2,0.1-0.1c0-0.2,0.5-0.4,0.5-0.4l0.2,0.2l-0.2,0.2c-0.5,0.4,0.8,1.8,0.8,1.8l-0.2,0.2
				c0,0,0,0-0.3,0.2c-0.3,0.2-0.8,1.2-1.3,1.5c-0.5,0.3-0.3,0.7-0.3,1.1s0.4,1.5,0.6,2.7c0.2,1.2,2.5,5.1,2.8,5.8
				c0.3,0.6,1.1,3.5,1,4c0,0.5,0.8,0.2,0.8,0.2c0.5,0-0.3,1.8-0.3,1.8c-2.2,1-1.4,2.2-1.4,2.2c0.1,0.2,0.4,0.2,0.9,0.1
				c-0.5,1.2,0.5,1.2,0.5,1.2c-0.6,0.2-0.3,1.3-0.3,1.3c0.7,1.2,0.9,0.1,0.9,0.1h0.4c0,0.6,0.5,0.4,0.5,0.4c0.5-1-0.4-1.8-0.4-1.8
				c-0.3-0.2,0.2-0.4,0.2-0.4l6.5-0.7l0.1,0.5c0.2,0.2,1.5,0.1,1.5,0.1s0,0.1,0-0.2c0,0,0.1-0.1,0.2,0c0.5,0.1,2.7,1,2.7,1v0.2
				c-0.4,0-0.2,0.8-0.1,1.1c0,0.1,0,0.2,0,0.2c0.2,1.4,1.8,0.5,1.8,0.5c1.1-1.4-0.8-1.8-0.8-1.8c-0.6-0.1-0.1-0.2-0.1-0.2
				c0.2-0.2-0.1-1.1-0.2-1.4c0.4,0.1,0.7,0.1,0.8,0c0.1,0,0.1-0.1,0.2-0.1l4.1,0.1c0.5,0,0.5,0.2,0.5,0.2c-0.5,0.3,0.4,1.2,0.4,1.2
				c0.7,1.4,1.5,0.2,1.5,0.2c0.7-1.4-1-1.5-1-1.5c0.2-0.2,0-0.8,0-0.8c-0.2-0.5-0.5-0.5-0.5-0.5l-4.1-0.2c-0.4,0-0.8-0.1-1.1-0.1
				c-0.1-0.2-0.1-0.2-0.2-0.3c-0.2-0.4,0.2-1.5,0.2-1.5c0.3,0.2,1.2-0.2,1.2-0.2s0.3,0.3,0.2,0s1.1-3.8,1.1-3.8
				c1-0.9,3.8-6.1,3.8-6.1c1.3-3.2-0.7-5.6-0.7-5.6c-0.2-0.5,0.9-2.9,0.9-2.9c0.1-0.6-0.5-0.5-0.5-0.5c0.8-0.4,1.2-1.8,1.3-2.2
				c0.2-0.3,0-0.5-0.2-0.8c-0.2-0.2-0.1-1.4-0.2-2.1c-0.1-0.7-0.5-2-0.8-2.9c-0.2-0.9-0.9-2.6-1-3c-0.1-0.4,0.2-1.2,0.1-1.6
				c-0.2-0.4-0.5-0.5-1.2-0.7c-0.8-0.2-2.7-1.2-3.3-1.5c-0.6-0.4-1.2-0.4-1.4-0.5c-0.2,0-0.4-0.3-0.4-0.3c0.2-0.2,0.2-0.8,0.2-0.8
				c1-1.3,0.7-2.5,0.7-2.5c0.4-3.3-1.1-3.7-1.1-3.7c-2.5-1.8-4.8,0.2-4.8,0.2c-1.2,1-0.8,3.3-0.8,3.3C138,41.9,139,44,139,44
				c-0.1,0.2,0.2,0.7,0.2,0.7c-0.3-0.1-1.3,0.2-1.6,0.4c-0.3,0.1-2.8,0.2-2.8,0.2c-1.8,0.2-1.7,1.2-1.7,1.2s-0.8,0.4-1.1,0.7
				c-0.3,0.2-0.5,0.5-1,1c-0.5,0.5-0.1,0.7-0.6,0.8c-0.5,0.2-1.8,0.9-2.2,1.4c-0.3,0.5-1.1,0.8-1.5,0.9c-0.4,0.1-0.4,1-0.5,1.5
				c-0.2,0.5,0.2,1.1,0,1.3C126,54.5,126.1,54.8,126.2,55.5z M141.4,72.6c1.1-0.1,1-0.6,1-0.6c0.2,0,2.2-0.2,2.2-0.2
				s-0.1,1.4-0.2,1.7c-0.1,0.4-0.1,0.8-0.1,1.2c0,0.5,0,0.4-0.5,0.6c-0.5,0.2-0.5,0.8-0.5,1.2c0,0.4-0.3,0.9-0.4,1.3
				c-0.1,0.3-0.2,0.5-0.3,0.7c-0.2,0.3,0,0.8-0.2,1.2c-0.2,0.4-0.4,0.7-0.4,0.7c0.1,0.3-0.2,0.7-0.2,0.9c-0.4-0.2-0.3-0.2-0.3-0.2
				v-4.1c-0.2-0.1-0.2-0.5-0.2-0.5L141.4,72.6z M134.2,71.3C135,72,139,72,139,72c-0.1,0.5,0.8,0.6,0.8,0.6v3.8
				c0,0.2-0.2,0.5-0.2,0.5l-0.2,4.1c-0.2,0.2-0.2,0.5-0.2,0.5l-2.7,0.8c0-1.1-0.8-3.5-0.9-3.9c-0.2-0.4-0.2-1.9-0.2-2.2
				s-0.2-0.7-0.5-0.9s0-0.2,0-0.6c0-0.4-0.3-0.2-0.4-0.5C134.5,73.7,134.2,71.3,134.2,71.3z M130.1,55c0,0,0.2,0,0.4-0.1
				c0.2-0.2,0.7-0.6,0.9-1.1c0.2-0.4,1.4-1.2,1.4-1.2c0.2,0.3,0.3,4.5,0,5.4c-0.2,0.8-0.3,2.5-0.3,2.5s0,0.5-0.2,0.1
				c-0.2-0.4-0.7-0.5-0.9-0.8s-0.3-0.5-0.5-0.8c-0.2-0.4-0.3-0.3-0.4-0.5c0-0.2-0.1-0.8-0.2-1.2s-0.2-0.2-0.4-0.5
				C129.7,56.3,130.1,55,130.1,55z"/>
			<path style="fill:#FFFFFF;" d="M101.5,39.2c0,0-2.5,0.7-1.2,5.1c0.5,2.2,1.3,3.7-1,4.7c0.6,0.5,0.6,0.5,0.6,0.5s4.8-1.8,4.7-2.2
				C104.4,47,101.5,39.2,101.5,39.2z"/>
		</g>
	</g>
</g>
</svg>
