<?xml version="1.0" encoding="utf-8"?>
<!-- Generator: Adobe Illustrator 18.1.0, SVG Export Plug-In . SVG Version: 6.00 Build 0)  -->
<!DOCTYPE svg PUBLIC "-//W3C//DTD SVG 1.1//EN" "http://www.w3.org/Graphics/SVG/1.1/DTD/svg11.dtd" [
	<!ENTITY ns_extend "http://ns.adobe.com/Extensibility/1.0/">
	<!ENTITY ns_ai "http://ns.adobe.com/AdobeIllustrator/10.0/">
	<!ENTITY ns_graphs "http://ns.adobe.com/Graphs/1.0/">
	<!ENTITY ns_vars "http://ns.adobe.com/Variables/1.0/">
	<!ENTITY ns_imrep "http://ns.adobe.com/ImageReplacement/1.0/">
	<!ENTITY ns_sfw "http://ns.adobe.com/SaveForWeb/1.0/">
	<!ENTITY ns_custom "http://ns.adobe.com/GenericCustomNamespace/1.0/">
	<!ENTITY ns_adobe_xpath "http://ns.adobe.com/XPath/1.0/">
]>
<svg version="1.1" id="Layer_1" xmlns:x="&ns_extend;" xmlns:i="&ns_ai;" xmlns:graph="&ns_graphs;"
	 xmlns="http://www.w3.org/2000/svg" xmlns:xlink="http://www.w3.org/1999/xlink" x="0px" y="0px" viewBox="0 0 350 147"
	 enable-background="new 0 0 350 147" xml:space="preserve">
<metadata>
	<sfw  xmlns="&ns_sfw;">
		<slices></slices>
		<sliceSourceBounds  width="342" height="141.2" x="-91.9" y="-105.6" bottomLeftOrigin="true"></sliceSourceBounds>
		<optimizationSettings>
			<targetSettings  fileFormat="PNG24Format" targetSettingsID="0">
				<PNG24Format  transparency="true" filtered="false" matteColor="#FFFFFF" noMatteColor="false" interlaced="false">
					</PNG24Format>
			</targetSettings>
		</optimizationSettings>
	</sfw>
</metadata>
<polyline fill-rule="evenodd" clip-rule="evenodd" fill="#5E8AB4" points="267.5,6.8 271.3,13.4 300.1,13.4 "/>
<polyline fill-rule="evenodd" clip-rule="evenodd" fill="#5E8AB4" points="267.5,6.8 275.2,6.8 300.1,13.4 "/>
<polyline fill-rule="evenodd" clip-rule="evenodd" fill="#5E8AB4" points="271.3,13.4 272.2,14.5 302.5,14.5 "/>
<polyline fill-rule="evenodd" clip-rule="evenodd" fill="#5E8AB4" points="271.3,13.4 300.1,13.4 302.5,14.5 "/>
<polyline fill-rule="evenodd" clip-rule="evenodd" fill="#5E8AB4" points="272.2,14.5 273.3,16.5 304.2,16.5 "/>
<polyline fill-rule="evenodd" clip-rule="evenodd" fill="#5E8AB4" points="272.2,14.5 302.5,14.5 304.2,16.5 "/>
<polyline fill-rule="evenodd" clip-rule="evenodd" fill="#5E8AB4" points="273.3,16.5 307.2,75.6 338.2,75.6 "/>
<polyline fill-rule="evenodd" clip-rule="evenodd" fill="#5E8AB4" points="273.3,16.5 304.2,16.5 338.2,75.6 "/>
<polyline fill-rule="evenodd" clip-rule="evenodd" fill="#5E8AB4" points="307.2,75.6 308.1,78.1 339.6,78.1 "/>
<polyline fill-rule="evenodd" clip-rule="evenodd" fill="#5E8AB4" points="307.2,75.6 338.2,75.6 339.6,78.1 "/>
<polyline fill-rule="evenodd" clip-rule="evenodd" fill="#5E8AB4" points="308.1,78.1 307.8,80.8 341.2,80.8 "/>
<polyline fill-rule="evenodd" clip-rule="evenodd" fill="#5E8AB4" points="308.1,78.1 339.6,78.1 341.2,80.8 "/>
<polyline fill-rule="evenodd" clip-rule="evenodd" fill="#5E8AB4" points="307.8,80.8 306.7,83 342.6,83 "/>
<polyline fill-rule="evenodd" clip-rule="evenodd" fill="#5E8AB4" points="307.8,80.8 341.2,80.8 342.6,83 "/>
<polyline fill-rule="evenodd" clip-rule="evenodd" fill="#5E8AB4" points="306.7,83 304.8,85 343.7,85 "/>
<polyline fill-rule="evenodd" clip-rule="evenodd" fill="#5E8AB4" points="306.7,83 342.6,83 343.7,85 "/>
<polyline fill-rule="evenodd" clip-rule="evenodd" fill="#5E8AB4" points="304.8,85 303.1,85.5 344,85.5 "/>
<polyline fill-rule="evenodd" clip-rule="evenodd" fill="#5E8AB4" points="304.8,85 343.7,85 344,85.5 "/>
<polyline fill-rule="evenodd" clip-rule="evenodd" fill="#5E8AB4" points="299.5,85.5 300.3,85.8 302.3,85.8 "/>
<polyline fill-rule="evenodd" clip-rule="evenodd" fill="#5E8AB4" points="303.1,85.5 302.8,85.5 344,85.5 "/>
<path fill-rule="evenodd" clip-rule="evenodd" fill="#5E8AB4" d="M303.1,85.5H344H303.1z"/>
<polyline fill-rule="evenodd" clip-rule="evenodd" fill="#5E8AB4" points="302.8,85.5 302.3,85.8 344,85.8 "/>
<polyline fill-rule="evenodd" clip-rule="evenodd" fill="#5E8AB4" points="302.8,85.5 344,85.5 344,85.8 "/>
<polyline fill-rule="evenodd" clip-rule="evenodd" fill="#5E8AB4" points="300.3,85.8 308.3,88 344.8,88 "/>
<polyline fill-rule="evenodd" clip-rule="evenodd" fill="#5E8AB4" points="300.3,85.8 344,85.8 344.8,88 "/>
<polyline fill-rule="evenodd" clip-rule="evenodd" fill="#5E8AB4" points="308.3,88 318.3,90.5 344.5,90.5 "/>
<polyline fill-rule="evenodd" clip-rule="evenodd" fill="#5E8AB4" points="308.3,88 344.8,88 344.5,90.5 "/>
<polyline fill-rule="evenodd" clip-rule="evenodd" fill="#5E8AB4" points="318.3,90.5 327.1,93 343.4,93 "/>
<polyline fill-rule="evenodd" clip-rule="evenodd" fill="#5E8AB4" points="318.3,90.5 344.5,90.5 343.4,93 "/>
<polyline fill-rule="evenodd" clip-rule="evenodd" fill="#5E8AB4" points="327.1,93 333.8,94.6 341.5,94.6 "/>
<polyline fill-rule="evenodd" clip-rule="evenodd" fill="#5E8AB4" points="327.1,93 343.4,93 341.5,94.6 "/>
<polyline fill-rule="evenodd" clip-rule="evenodd" fill="#5E8AB4" points="336.2,95.5 339.3,95.5 339,95.5 "/>
<polyline fill-rule="evenodd" clip-rule="evenodd" fill="#5E8AB4" points="333.8,94.6 336.2,95.5 339.3,95.5 "/>
<polyline fill-rule="evenodd" clip-rule="evenodd" fill="#5E8AB4" points="333.8,94.6 341.5,94.6 339.3,95.5 "/>
<polyline fill="none" stroke="#5E8AB4" stroke-width="0.72" stroke-linecap="round" stroke-linejoin="round" stroke-miterlimit="10" points="
	336.2,95.5 339,95.5 341.5,94.6 343.4,93 344.5,90.5 344.8,88 344,85.5 304.2,16.5 302.5,14.5 300.1,13.4 263.3,3.5 "/>
<line fill="none" stroke="#5E8AB4" stroke-width="0.72" stroke-linecap="round" stroke-linejoin="round" stroke-miterlimit="10" x1="267.5" y1="6.8" x2="307.2" y2="75.6"/>
<polyline fill="none" stroke="#5E8AB4" stroke-width="0.72" stroke-linecap="round" stroke-linejoin="round" stroke-miterlimit="10" points="
	299.5,85.5 302.3,85.8 304.8,85 306.7,83 307.8,80.8 308.1,78.1 307.2,75.6 "/>
<line fill="none" stroke="#5E8AB4" stroke-width="0.72" stroke-linecap="round" stroke-linejoin="round" stroke-miterlimit="10" x1="299.5" y1="85.5" x2="336.2" y2="95.5"/>
<polyline fill="none" stroke="#5E8AB4" stroke-width="0.72" stroke-linecap="round" stroke-linejoin="round" stroke-miterlimit="10" points="
	167.2,88.8 167.8,91.3 169.2,93.5 171.1,94.9 173.6,95.5 176.1,95.2 178.3,94.1 179.9,92.1 "/>
<polyline fill="none" stroke="#5E8AB4" stroke-width="0.72" stroke-linecap="round" stroke-linejoin="round" stroke-miterlimit="10" points="
	167.2,88.8 167.2,40.8 186.8,6.8 "/>
<polyline fill="none" stroke="#5E8AB4" stroke-width="0.72" stroke-linecap="round" stroke-linejoin="round" stroke-miterlimit="10" points="
	199.5,10.1 199,7.6 197.6,5.4 195.7,4.1 193.2,3.2 190.7,3.5 188.5,4.9 186.8,6.8 "/>
<polyline fill="none" stroke="#5E8AB4" stroke-width="0.72" stroke-linecap="round" stroke-linejoin="round" stroke-miterlimit="10" points="
	199.5,10.1 199.5,17 220,22.6 215.6,30.3 199.5,25.9 199.5,58.2 179.9,92.1 "/>
<polyline fill-rule="evenodd" clip-rule="evenodd" fill="#5E8AB4" points="48.5,7.6 47.1,10.1 61.7,10.1 "/>
<polyline fill-rule="evenodd" clip-rule="evenodd" fill="#5E8AB4" points="48.5,7.6 61.2,7.6 61.7,10.1 "/>
<polyline fill-rule="evenodd" clip-rule="evenodd" fill="#5E8AB4" points="47.1,10.1 29.4,40.8 61.7,40.8 "/>
<polyline fill-rule="evenodd" clip-rule="evenodd" fill="#5E8AB4" points="47.1,10.1 61.7,10.1 61.7,40.8 "/>
<polyline fill-rule="evenodd" clip-rule="evenodd" fill="#5E8AB4" points="29.4,40.8 19.2,58.2 61.7,58.2 "/>
<polyline fill-rule="evenodd" clip-rule="evenodd" fill="#5E8AB4" points="29.4,40.8 61.7,40.8 61.7,58.2 "/>
<polyline fill-rule="evenodd" clip-rule="evenodd" fill="#5E8AB4" points="3.5,85.8 45.7,85.8 40.2,95.5 "/>
<polyline fill-rule="evenodd" clip-rule="evenodd" fill="#5E8AB4" points="19.2,58.2 3.5,85.8 45.7,85.8 "/>
<polyline fill-rule="evenodd" clip-rule="evenodd" fill="#5E8AB4" points="19.2,58.2 61.7,58.2 45.7,85.8 "/>
<line fill="none" stroke="#5E8AB4" stroke-width="0.72" stroke-linecap="round" stroke-linejoin="round" stroke-miterlimit="10" x1="29.4" y1="40.8" x2="49" y2="6.8"/>
<polyline fill="none" stroke="#5E8AB4" stroke-width="0.72" stroke-linecap="round" stroke-linejoin="round" stroke-miterlimit="10" points="
	61.7,10.1 61.2,7.6 59.8,5.4 57.9,4.1 55.4,3.2 52.9,3.5 50.7,4.9 49,6.8 "/>
<polyline fill="none" stroke="#5E8AB4" stroke-width="0.72" stroke-linecap="round" stroke-linejoin="round" stroke-miterlimit="10" points="
	61.7,10.1 61.7,58.2 40.2,95.5 3.5,85.8 29.4,40.8 "/>
<polyline fill="none" stroke="#5E8AB4" stroke-width="0.72" stroke-linecap="round" stroke-linejoin="round" stroke-miterlimit="10" points="
	98.5,88.8 98.8,91.3 100.1,93.5 102.1,94.9 104.6,95.5 107,95.2 109.2,94.1 110.9,92.1 "/>
<polyline fill="none" stroke="#5E8AB4" stroke-width="0.72" stroke-linecap="round" stroke-linejoin="round" stroke-miterlimit="10" points="
	98.5,88.8 98.5,40.8 118.1,6.8 "/>
<polyline fill="none" stroke="#5E8AB4" stroke-width="0.72" stroke-linecap="round" stroke-linejoin="round" stroke-miterlimit="10" points="
	130.5,10.1 130.2,7.6 128.9,5.4 126.6,4.1 124.4,3.2 121.9,3.5 119.5,4.9 118.1,6.8 "/>
<polyline fill="none" stroke="#5E8AB4" stroke-width="0.72" stroke-linecap="round" stroke-linejoin="round" stroke-miterlimit="10" points="
	130.5,10.1 130.5,58.2 110.9,92.1 "/>
<polyline fill-rule="evenodd" clip-rule="evenodd" fill="#1B365D" points="60.9,7.1 61.7,10.1 81.1,10.1 "/>
<polyline fill-rule="evenodd" clip-rule="evenodd" fill="#1B365D" points="60.9,7.1 70.3,7.1 81.1,10.1 "/>
<polyline fill-rule="evenodd" clip-rule="evenodd" fill="#1B365D" points="61.7,10.1 61.7,13.4 93.2,13.4 "/>
<polyline fill-rule="evenodd" clip-rule="evenodd" fill="#1B365D" points="61.7,10.1 81.1,10.1 93.2,13.4 "/>
<polyline fill-rule="evenodd" clip-rule="evenodd" fill="#1B365D" points="61.7,13.4 61.7,14.8 96,14.8 "/>
<polyline fill-rule="evenodd" clip-rule="evenodd" fill="#1B365D" points="61.7,13.4 93.2,13.4 96,14.8 "/>
<polyline fill-rule="evenodd" clip-rule="evenodd" fill="#1B365D" points="61.7,14.8 61.7,17 97.6,17 "/>
<polyline fill-rule="evenodd" clip-rule="evenodd" fill="#1B365D" points="61.7,14.8 96,14.8 97.6,17 "/>
<polyline fill-rule="evenodd" clip-rule="evenodd" fill="#1B365D" points="61.7,17 61.7,20.1 98.5,20.1 "/>
<polyline fill-rule="evenodd" clip-rule="evenodd" fill="#1B365D" points="61.7,17 97.6,17 98.5,20.1 "/>
<polyline fill-rule="evenodd" clip-rule="evenodd" fill="#1B365D" points="61.7,20.1 61.7,58.2 98.5,58.2 "/>
<polyline fill-rule="evenodd" clip-rule="evenodd" fill="#1B365D" points="61.7,20.1 98.5,20.1 98.5,58.2 "/>
<polyline fill-rule="evenodd" clip-rule="evenodd" fill="#1B365D" points="61.7,58.2 61.7,78.9 98.5,78.9 "/>
<polyline fill-rule="evenodd" clip-rule="evenodd" fill="#1B365D" points="61.7,58.2 98.5,58.2 98.5,78.9 "/>
<polyline fill-rule="evenodd" clip-rule="evenodd" fill="#1B365D" points="61.7,78.9 62.3,81.9 98.5,81.9 "/>
<polyline fill-rule="evenodd" clip-rule="evenodd" fill="#1B365D" points="61.7,78.9 98.5,78.9 98.5,81.9 "/>
<polyline fill-rule="evenodd" clip-rule="evenodd" fill="#1B365D" points="62.3,81.9 64.2,84.1 98.5,84.1 "/>
<polyline fill-rule="evenodd" clip-rule="evenodd" fill="#1B365D" points="62.3,81.9 98.5,81.9 98.5,84.1 "/>
<polyline fill-rule="evenodd" clip-rule="evenodd" fill="#1B365D" points="64.2,84.1 66.7,85.5 98.5,85.5 "/>
<polyline fill-rule="evenodd" clip-rule="evenodd" fill="#1B365D" points="64.2,84.1 98.5,84.1 98.5,85.5 "/>
<polyline fill-rule="evenodd" clip-rule="evenodd" fill="#1B365D" points="66.7,85.5 78.9,88.8 98.5,88.8 "/>
<polyline fill-rule="evenodd" clip-rule="evenodd" fill="#1B365D" points="66.7,85.5 98.5,85.5 98.5,88.8 "/>
<polyline fill-rule="evenodd" clip-rule="evenodd" fill="#1B365D" points="78.9,88.8 89.6,91.6 99,91.6 "/>
<polyline fill-rule="evenodd" clip-rule="evenodd" fill="#1B365D" points="78.9,88.8 98.5,88.8 99,91.6 "/>
<polyline fill-rule="evenodd" clip-rule="evenodd" fill="#1B365D" points="98.2,94.1 100.7,94.1 103.4,95.5 "/>
<polyline fill-rule="evenodd" clip-rule="evenodd" fill="#1B365D" points="89.6,91.6 98.2,94.1 100.7,94.1 "/>
<polyline fill-rule="evenodd" clip-rule="evenodd" fill="#1B365D" points="89.6,91.6 99,91.6 100.7,94.1 "/>
<polyline fill-rule="evenodd" clip-rule="evenodd" fill="#1B365D" points="130,7.1 130.5,10.1 150.1,10.1 "/>
<polyline fill-rule="evenodd" clip-rule="evenodd" fill="#1B365D" points="130,7.1 139.3,7.1 150.1,10.1 "/>
<polyline fill-rule="evenodd" clip-rule="evenodd" fill="#1B365D" points="130.5,10.1 130.5,13.4 162.3,13.4 "/>
<polyline fill-rule="evenodd" clip-rule="evenodd" fill="#1B365D" points="130.5,10.1 150.1,10.1 162.3,13.4 "/>
<polyline fill-rule="evenodd" clip-rule="evenodd" fill="#1B365D" points="130.5,13.4 130.5,14.8 164.8,14.8 "/>
<polyline fill-rule="evenodd" clip-rule="evenodd" fill="#1B365D" points="130.5,13.4 162.3,13.4 164.8,14.8 "/>
<polyline fill-rule="evenodd" clip-rule="evenodd" fill="#1B365D" points="130.5,14.8 130.5,17 166.7,17 "/>
<polyline fill-rule="evenodd" clip-rule="evenodd" fill="#1B365D" points="130.5,14.8 164.8,14.8 166.7,17 "/>
<polyline fill-rule="evenodd" clip-rule="evenodd" fill="#1B365D" points="130.5,17 130.5,20.1 167.2,20.1 "/>
<polyline fill-rule="evenodd" clip-rule="evenodd" fill="#1B365D" points="130.5,17 166.7,17 167.2,20.1 "/>
<polyline fill-rule="evenodd" clip-rule="evenodd" fill="#1B365D" points="130.5,20.1 130.5,58.2 167.2,58.2 "/>
<polyline fill-rule="evenodd" clip-rule="evenodd" fill="#1B365D" points="130.5,20.1 167.2,20.1 167.2,58.2 "/>
<polyline fill-rule="evenodd" clip-rule="evenodd" fill="#1B365D" points="130.5,58.2 130.5,78.9 167.2,78.9 "/>
<polyline fill-rule="evenodd" clip-rule="evenodd" fill="#1B365D" points="130.5,58.2 167.2,58.2 167.2,78.9 "/>
<polyline fill-rule="evenodd" clip-rule="evenodd" fill="#1B365D" points="130.5,78.9 131.3,81.9 167.2,81.9 "/>
<polyline fill-rule="evenodd" clip-rule="evenodd" fill="#1B365D" points="130.5,78.9 167.2,78.9 167.2,81.9 "/>
<polyline fill-rule="evenodd" clip-rule="evenodd" fill="#1B365D" points="131.3,81.9 133,84.1 167.2,84.1 "/>
<polyline fill-rule="evenodd" clip-rule="evenodd" fill="#1B365D" points="131.3,81.9 167.2,81.9 167.2,84.1 "/>
<polyline fill-rule="evenodd" clip-rule="evenodd" fill="#1B365D" points="133,84.1 135.8,85.5 167.2,85.5 "/>
<polyline fill-rule="evenodd" clip-rule="evenodd" fill="#1B365D" points="133,84.1 167.2,84.1 167.2,85.5 "/>
<polyline fill-rule="evenodd" clip-rule="evenodd" fill="#1B365D" points="135.8,85.5 147.9,88.8 167.2,88.8 "/>
<polyline fill-rule="evenodd" clip-rule="evenodd" fill="#1B365D" points="135.8,85.5 167.2,85.5 167.2,88.8 "/>
<polyline fill-rule="evenodd" clip-rule="evenodd" fill="#1B365D" points="147.9,88.8 158.7,91.6 167.8,91.6 "/>
<polyline fill-rule="evenodd" clip-rule="evenodd" fill="#1B365D" points="147.9,88.8 167.2,88.8 167.8,91.6 "/>
<polyline fill-rule="evenodd" clip-rule="evenodd" fill="#1B365D" points="167.2,94.1 169.7,94.1 172.2,95.5 "/>
<polyline fill-rule="evenodd" clip-rule="evenodd" fill="#1B365D" points="158.7,91.6 167.2,94.1 169.7,94.1 "/>
<polyline fill-rule="evenodd" clip-rule="evenodd" fill="#1B365D" points="158.7,91.6 167.8,91.6 169.7,94.1 "/>
<polyline fill-rule="evenodd" clip-rule="evenodd" fill="#5E8AB4" points="117.5,7.6 115.9,10.1 130.5,10.1 "/>
<polyline fill-rule="evenodd" clip-rule="evenodd" fill="#5E8AB4" points="117.5,7.6 130.2,7.6 130.5,10.1 "/>
<polyline fill-rule="evenodd" clip-rule="evenodd" fill="#5E8AB4" points="115.9,10.1 98.5,40.8 130.5,40.8 "/>
<polyline fill-rule="evenodd" clip-rule="evenodd" fill="#5E8AB4" points="115.9,10.1 130.5,10.1 130.5,40.8 "/>
<polyline fill-rule="evenodd" clip-rule="evenodd" fill="#5E8AB4" points="98.5,40.8 98.5,58.2 130.5,58.2 "/>
<polyline fill-rule="evenodd" clip-rule="evenodd" fill="#5E8AB4" points="98.5,40.8 130.5,40.8 130.5,58.2 "/>
<polyline fill-rule="evenodd" clip-rule="evenodd" fill="#5E8AB4" points="98.5,58.2 98.5,88.8 113.1,88.8 "/>
<polyline fill-rule="evenodd" clip-rule="evenodd" fill="#5E8AB4" points="98.5,58.2 130.5,58.2 113.1,88.8 "/>
<polyline fill-rule="evenodd" clip-rule="evenodd" fill="#5E8AB4" points="98.5,88.8 98.8,91.3 111.5,91.3 "/>
<polyline fill-rule="evenodd" clip-rule="evenodd" fill="#5E8AB4" points="98.5,88.8 113.1,88.8 111.5,91.3 "/>
<polyline fill-rule="evenodd" clip-rule="evenodd" fill="#5E8AB4" points="98.8,91.3 99.3,92.1 110.9,92.1 "/>
<polyline fill-rule="evenodd" clip-rule="evenodd" fill="#5E8AB4" points="98.8,91.3 111.5,91.3 110.9,92.1 "/>
<polyline fill-rule="evenodd" clip-rule="evenodd" fill="#5E8AB4" points="99.3,92.1 100.1,93.5 110.1,93.5 "/>
<polyline fill-rule="evenodd" clip-rule="evenodd" fill="#5E8AB4" points="99.3,92.1 110.9,92.1 110.1,93.5 "/>
<polyline fill-rule="evenodd" clip-rule="evenodd" fill="#5E8AB4" points="100.1,93.5 101.2,94.1 109.2,94.1 "/>
<polyline fill-rule="evenodd" clip-rule="evenodd" fill="#5E8AB4" points="100.1,93.5 110.1,93.5 109.2,94.1 "/>
<polyline fill-rule="evenodd" clip-rule="evenodd" fill="#5E8AB4" points="101.2,94.1 102.1,94.9 107.9,94.9 "/>
<polyline fill-rule="evenodd" clip-rule="evenodd" fill="#5E8AB4" points="101.2,94.1 109.2,94.1 107.9,94.9 "/>
<polyline fill-rule="evenodd" clip-rule="evenodd" fill="#5E8AB4" points="103.4,95.2 107,95.2 104.6,95.5 "/>
<polyline fill-rule="evenodd" clip-rule="evenodd" fill="#5E8AB4" points="102.1,94.9 103.4,95.2 107,95.2 "/>
<polyline fill-rule="evenodd" clip-rule="evenodd" fill="#5E8AB4" points="102.1,94.9 107.9,94.9 107,95.2 "/>
<polyline fill="none" stroke="#1B365D" stroke-width="0.72" stroke-linecap="round" stroke-linejoin="round" stroke-miterlimit="10" points="
	98.5,88.8 98.5,20.1 97.6,17 96,14.8 93.2,13.4 56.8,3.5 "/>
<polyline fill="none" stroke="#1B365D" stroke-width="0.72" stroke-linecap="round" stroke-linejoin="round" stroke-miterlimit="10" points="
	61.7,10.1 60.9,7.1 59.3,4.9 56.8,3.5 "/>
<polyline fill="none" stroke="#1B365D" stroke-width="0.72" stroke-linecap="round" stroke-linejoin="round" stroke-miterlimit="10" points="
	61.7,10.1 61.7,78.9 62.3,81.9 64.2,84.1 66.7,85.5 103.4,95.5 "/>
<polyline fill="none" stroke="#1B365D" stroke-width="0.72" stroke-linecap="round" stroke-linejoin="round" stroke-miterlimit="10" points="
	98.5,88.8 99,91.6 100.7,94.1 103.4,95.5 "/>
<polyline fill="none" stroke="#1B365D" stroke-width="0.72" stroke-linecap="round" stroke-linejoin="round" stroke-miterlimit="10" points="
	167.2,88.8 167.2,20.1 166.7,17 164.8,14.8 162.3,13.4 125.5,3.5 "/>
<polyline fill="none" stroke="#1B365D" stroke-width="0.72" stroke-linecap="round" stroke-linejoin="round" stroke-miterlimit="10" points="
	130.5,10.1 130,7.1 128.3,4.9 125.5,3.5 "/>
<polyline fill="none" stroke="#1B365D" stroke-width="0.72" stroke-linecap="round" stroke-linejoin="round" stroke-miterlimit="10" points="
	130.5,10.1 130.5,78.9 131.3,81.9 133,84.1 135.8,85.5 172.2,95.5 "/>
<polyline fill="none" stroke="#1B365D" stroke-width="0.72" stroke-linecap="round" stroke-linejoin="round" stroke-miterlimit="10" points="
	167.2,88.8 167.8,91.6 169.7,94.1 172.2,95.5 "/>
<polyline fill-rule="evenodd" clip-rule="evenodd" fill="#5E8AB4" points="241,37.5 240.4,37.7 243.7,37.7 "/>
<polyline fill-rule="evenodd" clip-rule="evenodd" fill="#5E8AB4" points="240.4,37.7 239,38.3 245.1,38.3 "/>
<polyline fill-rule="evenodd" clip-rule="evenodd" fill="#5E8AB4" points="240.4,37.7 243.7,37.7 245.1,38.3 "/>
<polyline fill-rule="evenodd" clip-rule="evenodd" fill="#5E8AB4" points="239,38.3 238.2,38.6 245.7,38.6 "/>
<polyline fill-rule="evenodd" clip-rule="evenodd" fill="#5E8AB4" points="239,38.3 245.1,38.3 245.7,38.6 "/>
<polyline fill-rule="evenodd" clip-rule="evenodd" fill="#5E8AB4" points="238.2,38.6 237.7,39.1 246.5,39.1 "/>
<polyline fill-rule="evenodd" clip-rule="evenodd" fill="#5E8AB4" points="238.2,38.6 245.7,38.6 246.5,39.1 "/>
<polyline fill-rule="evenodd" clip-rule="evenodd" fill="#5E8AB4" points="237.7,39.1 236.3,40.8 248.1,40.8 "/>
<polyline fill-rule="evenodd" clip-rule="evenodd" fill="#5E8AB4" points="237.7,39.1 246.5,39.1 248.1,40.8 "/>
<polyline fill-rule="evenodd" clip-rule="evenodd" fill="#5E8AB4" points="236.3,40.8 236.3,58.5 268.3,58.5 "/>
<polyline fill-rule="evenodd" clip-rule="evenodd" fill="#5E8AB4" points="236.3,40.8 248.1,40.8 268.3,58.5 "/>
<polyline fill-rule="evenodd" clip-rule="evenodd" fill="#5E8AB4" points="236.3,58.5 236.3,88.8 250.9,88.8 "/>
<polyline fill-rule="evenodd" clip-rule="evenodd" fill="#5E8AB4" points="236.3,58.5 268.3,58.5 250.9,88.8 "/>
<polyline fill-rule="evenodd" clip-rule="evenodd" fill="#5E8AB4" points="236.3,88.8 236.5,91.3 249.3,91.3 "/>
<polyline fill-rule="evenodd" clip-rule="evenodd" fill="#5E8AB4" points="236.3,88.8 250.9,88.8 249.3,91.3 "/>
<polyline fill-rule="evenodd" clip-rule="evenodd" fill="#5E8AB4" points="236.5,91.3 237.4,92.1 249,92.1 "/>
<polyline fill-rule="evenodd" clip-rule="evenodd" fill="#5E8AB4" points="236.5,91.3 249.3,91.3 249,92.1 "/>
<polyline fill-rule="evenodd" clip-rule="evenodd" fill="#5E8AB4" points="237.4,92.1 237.9,93.5 247.9,93.5 "/>
<polyline fill-rule="evenodd" clip-rule="evenodd" fill="#5E8AB4" points="237.4,92.1 249,92.1 247.9,93.5 "/>
<polyline fill-rule="evenodd" clip-rule="evenodd" fill="#5E8AB4" points="237.9,93.5 239,94.1 247.3,94.1 "/>
<polyline fill-rule="evenodd" clip-rule="evenodd" fill="#5E8AB4" points="237.9,93.5 247.9,93.5 247.3,94.1 "/>
<polyline fill-rule="evenodd" clip-rule="evenodd" fill="#5E8AB4" points="239,94.1 240.1,94.9 245.7,94.9 "/>
<polyline fill-rule="evenodd" clip-rule="evenodd" fill="#5E8AB4" points="239,94.1 247.3,94.1 245.7,94.9 "/>
<polyline fill-rule="evenodd" clip-rule="evenodd" fill="#5E8AB4" points="241.5,95.2 245.1,95.2 242.3,95.5 "/>
<polyline fill-rule="evenodd" clip-rule="evenodd" fill="#5E8AB4" points="240.1,94.9 241.5,95.2 245.1,95.2 "/>
<polyline fill-rule="evenodd" clip-rule="evenodd" fill="#5E8AB4" points="240.1,94.9 245.7,94.9 245.1,95.2 "/>
<polyline fill="none" stroke="#5E8AB4" stroke-width="0.72" stroke-linecap="round" stroke-linejoin="round" stroke-miterlimit="10" points="
	246.5,39.1 244,37.7 241,37.5 238.2,38.6 236.3,40.8 "/>
<polyline fill="none" stroke="#5E8AB4" stroke-width="0.72" stroke-linecap="round" stroke-linejoin="round" stroke-miterlimit="10" points="
	246.5,39.1 268.3,58.5 249,92.1 "/>
<polyline fill="none" stroke="#5E8AB4" stroke-width="0.72" stroke-linecap="round" stroke-linejoin="round" stroke-miterlimit="10" points="
	236.3,88.8 236.5,91.3 237.9,93.5 240.1,94.9 242.3,95.5 245.1,95.2 247.3,94.1 249,92.1 "/>
<line fill="none" stroke="#5E8AB4" stroke-width="0.72" stroke-linecap="round" stroke-linejoin="round" stroke-miterlimit="10" x1="236.3" y1="88.8" x2="236.3" y2="40.8"/>
<polyline fill-rule="evenodd" clip-rule="evenodd" fill="#1B365D" points="255.9,6.8 243.2,28.6 280.2,28.6 "/>
<polyline fill-rule="evenodd" clip-rule="evenodd" fill="#1B365D" points="255.9,6.8 267.5,6.8 280.2,28.6 "/>
<polyline fill-rule="evenodd" clip-rule="evenodd" fill="#1B365D" points="259.7,33.3 282.9,33.3 279.6,38.6 "/>
<polyline fill-rule="evenodd" clip-rule="evenodd" fill="#1B365D" points="243.2,28.6 259.7,33.3 282.9,33.3 "/>
<polyline fill-rule="evenodd" clip-rule="evenodd" fill="#1B365D" points="243.2,28.6 280.2,28.6 282.9,33.3 "/>
<line fill="none" stroke="#1B365D" stroke-width="0.72" stroke-linecap="round" stroke-linejoin="round" stroke-miterlimit="10" x1="243.2" y1="28.6" x2="255.9" y2="6.8"/>
<polyline fill="none" stroke="#1B365D" stroke-width="0.72" stroke-linecap="round" stroke-linejoin="round" stroke-miterlimit="10" points="
	267.5,6.8 282.9,33.3 279.6,38.6 243.2,28.6 "/>
<polyline fill="none" stroke="#1B365D" stroke-width="0.72" stroke-linecap="round" stroke-linejoin="round" stroke-miterlimit="10" points="
	236.3,20.1 235.4,17 233.8,14.8 231.3,13.4 194.6,3.5 "/>
<polyline fill="none" stroke="#1B365D" stroke-width="0.72" stroke-linecap="round" stroke-linejoin="round" stroke-miterlimit="10" points="
	199.5,10.1 199,7.1 197.1,4.9 194.6,3.5 "/>
<polyline fill="none" stroke="#1B365D" stroke-width="0.72" stroke-linecap="round" stroke-linejoin="round" stroke-miterlimit="10" points="
	199.5,10.1 199.5,17 236.3,27 236.3,20.1 "/>
<polyline fill-rule="evenodd" clip-rule="evenodd" fill="#1B365D" points="199,7.1 199.5,10.1 218.9,10.1 "/>
<polyline fill-rule="evenodd" clip-rule="evenodd" fill="#1B365D" points="199,7.1 208.4,7.1 218.9,10.1 "/>
<polyline fill-rule="evenodd" clip-rule="evenodd" fill="#1B365D" points="199.5,10.1 199.5,13.4 231.3,13.4 "/>
<polyline fill-rule="evenodd" clip-rule="evenodd" fill="#1B365D" points="199.5,10.1 218.9,10.1 231.3,13.4 "/>
<polyline fill-rule="evenodd" clip-rule="evenodd" fill="#1B365D" points="199.5,13.4 199.5,14.8 233.8,14.8 "/>
<polyline fill-rule="evenodd" clip-rule="evenodd" fill="#1B365D" points="199.5,13.4 231.3,13.4 233.8,14.8 "/>
<polyline fill-rule="evenodd" clip-rule="evenodd" fill="#1B365D" points="199.5,14.8 199.5,17 235.4,17 "/>
<polyline fill-rule="evenodd" clip-rule="evenodd" fill="#1B365D" points="199.5,14.8 233.8,14.8 235.4,17 "/>
<path fill-rule="evenodd" clip-rule="evenodd" fill="#1B365D" d="M199.5,17h35.9H199.5z"/>
<path fill-rule="evenodd" clip-rule="evenodd" fill="#1B365D" d="M199.5,17h35.9H199.5z"/>
<polyline fill-rule="evenodd" clip-rule="evenodd" fill="#1B365D" points="210.3,20.1 236.3,20.1 236.3,27 "/>
<polyline fill-rule="evenodd" clip-rule="evenodd" fill="#1B365D" points="199.5,17 210.3,20.1 236.3,20.1 "/>
<polyline fill-rule="evenodd" clip-rule="evenodd" fill="#1B365D" points="199.5,17 235.4,17 236.3,20.1 "/>
<polyline fill-rule="evenodd" clip-rule="evenodd" fill="#1B365D" points="199.5,25.9 199.5,35.8 236.3,35.8 "/>
<polyline fill-rule="evenodd" clip-rule="evenodd" fill="#1B365D" points="199.5,35.8 199.5,78.9 236.3,78.9 "/>
<polyline fill-rule="evenodd" clip-rule="evenodd" fill="#1B365D" points="199.5,35.8 236.3,35.8 236.3,78.9 "/>
<polyline fill-rule="evenodd" clip-rule="evenodd" fill="#1B365D" points="199.5,78.9 200.1,81.9 236.3,81.9 "/>
<polyline fill-rule="evenodd" clip-rule="evenodd" fill="#1B365D" points="199.5,78.9 236.3,78.9 236.3,81.9 "/>
<polyline fill-rule="evenodd" clip-rule="evenodd" fill="#1B365D" points="200.1,81.9 202,84.1 236.3,84.1 "/>
<polyline fill-rule="evenodd" clip-rule="evenodd" fill="#1B365D" points="200.1,81.9 236.3,81.9 236.3,84.1 "/>
<polyline fill-rule="evenodd" clip-rule="evenodd" fill="#1B365D" points="202,84.1 204.5,85.5 236.3,85.5 "/>
<polyline fill-rule="evenodd" clip-rule="evenodd" fill="#1B365D" points="202,84.1 236.3,84.1 236.3,85.5 "/>
<polyline fill-rule="evenodd" clip-rule="evenodd" fill="#1B365D" points="204.5,85.5 216.7,88.8 236.3,88.8 "/>
<polyline fill-rule="evenodd" clip-rule="evenodd" fill="#1B365D" points="204.5,85.5 236.3,85.5 236.3,88.8 "/>
<polyline fill-rule="evenodd" clip-rule="evenodd" fill="#1B365D" points="216.7,88.8 227.4,91.6 236.8,91.6 "/>
<polyline fill-rule="evenodd" clip-rule="evenodd" fill="#1B365D" points="216.7,88.8 236.3,88.8 236.8,91.6 "/>
<polyline fill-rule="evenodd" clip-rule="evenodd" fill="#1B365D" points="236.3,94.1 238.8,94.1 241.2,95.5 "/>
<polyline fill-rule="evenodd" clip-rule="evenodd" fill="#1B365D" points="227.4,91.6 236.3,94.1 238.8,94.1 "/>
<polyline fill-rule="evenodd" clip-rule="evenodd" fill="#1B365D" points="227.4,91.6 236.8,91.6 238.8,94.1 "/>
<polyline fill="none" stroke="#1B365D" stroke-width="0.72" stroke-linecap="round" stroke-linejoin="round" stroke-miterlimit="10" points="
	199.5,78.9 200.1,81.9 202,84.1 204.5,85.5 241.2,95.5 "/>
<polyline fill="none" stroke="#1B365D" stroke-width="0.72" stroke-linecap="round" stroke-linejoin="round" stroke-miterlimit="10" points="
	236.3,88.8 236.8,91.6 238.8,94.1 241.2,95.5 "/>
<polyline fill="none" stroke="#1B365D" stroke-width="0.72" stroke-linecap="round" stroke-linejoin="round" stroke-miterlimit="10" points="
	236.3,88.8 236.3,35.8 199.5,25.9 199.5,78.9 "/>
<polyline fill-rule="evenodd" clip-rule="evenodd" fill="#1B365D" points="243.7,37.7 245.1,38.3 245.9,38.3 "/>
<polyline fill-rule="evenodd" clip-rule="evenodd" fill="#1B365D" points="245.1,38.3 246.5,39.1 249.3,39.1 "/>
<polyline fill-rule="evenodd" clip-rule="evenodd" fill="#1B365D" points="245.1,38.3 245.9,38.3 249.3,39.1 "/>
<polyline fill-rule="evenodd" clip-rule="evenodd" fill="#1B365D" points="246.5,39.1 255.9,47.7 280.5,47.7 "/>
<polyline fill-rule="evenodd" clip-rule="evenodd" fill="#1B365D" points="246.5,39.1 249.3,39.1 280.5,47.7 "/>
<polyline fill-rule="evenodd" clip-rule="evenodd" fill="#1B365D" points="255.9,47.7 256.4,48.2 281.8,48.2 "/>
<polyline fill-rule="evenodd" clip-rule="evenodd" fill="#1B365D" points="255.9,47.7 280.5,47.7 281.8,48.2 "/>
<polyline fill-rule="evenodd" clip-rule="evenodd" fill="#1B365D" points="256.4,48.2 257.5,49.1 283.2,49.1 "/>
<polyline fill-rule="evenodd" clip-rule="evenodd" fill="#1B365D" points="256.4,48.2 281.8,48.2 283.2,49.1 "/>
<polyline fill-rule="evenodd" clip-rule="evenodd" fill="#1B365D" points="257.5,49.1 275.5,65.1 301.2,65.1 "/>
<polyline fill-rule="evenodd" clip-rule="evenodd" fill="#1B365D" points="257.5,49.1 283.2,49.1 301.2,65.1 "/>
<polyline fill-rule="evenodd" clip-rule="evenodd" fill="#1B365D" points="275.5,65.1 287.4,75.6 307.2,75.6 "/>
<polyline fill-rule="evenodd" clip-rule="evenodd" fill="#1B365D" points="275.5,65.1 301.2,65.1 307.2,75.6 "/>
<polyline fill-rule="evenodd" clip-rule="evenodd" fill="#1B365D" points="287.4,75.6 290.1,78.1 308.1,78.1 "/>
<polyline fill-rule="evenodd" clip-rule="evenodd" fill="#1B365D" points="287.4,75.6 307.2,75.6 308.1,78.1 "/>
<polyline fill-rule="evenodd" clip-rule="evenodd" fill="#1B365D" points="290.1,78.1 293.2,80.8 307.8,80.8 "/>
<polyline fill-rule="evenodd" clip-rule="evenodd" fill="#1B365D" points="290.1,78.1 308.1,78.1 307.8,80.8 "/>
<polyline fill-rule="evenodd" clip-rule="evenodd" fill="#1B365D" points="293.2,80.8 295.9,83.3 306.7,83.3 "/>
<polyline fill-rule="evenodd" clip-rule="evenodd" fill="#1B365D" points="293.2,80.8 307.8,80.8 306.7,83.3 "/>
<polyline fill-rule="evenodd" clip-rule="evenodd" fill="#1B365D" points="295.9,83.3 296.8,84.1 305.6,84.1 "/>
<polyline fill-rule="evenodd" clip-rule="evenodd" fill="#1B365D" points="295.9,83.3 306.7,83.3 305.6,84.1 "/>
<polyline fill-rule="evenodd" clip-rule="evenodd" fill="#1B365D" points="296.8,84.1 298.4,85 304.5,85 "/>
<polyline fill-rule="evenodd" clip-rule="evenodd" fill="#1B365D" points="296.8,84.1 305.6,84.1 304.5,85 "/>
<polyline fill-rule="evenodd" clip-rule="evenodd" fill="#1B365D" points="299.2,85.5 303.1,85.5 302,85.8 "/>
<polyline fill-rule="evenodd" clip-rule="evenodd" fill="#1B365D" points="298.4,85 299.2,85.5 303.1,85.5 "/>
<polyline fill-rule="evenodd" clip-rule="evenodd" fill="#1B365D" points="298.4,85 304.5,85 303.1,85.5 "/>
<polyline fill="none" stroke="#1B365D" stroke-width="0.72" stroke-linecap="round" stroke-linejoin="round" stroke-miterlimit="10" points="
	280.5,47.7 283.2,49.1 301.2,65.1 307.2,75.6 "/>
<polyline fill="none" stroke="#1B365D" stroke-width="0.72" stroke-linecap="round" stroke-linejoin="round" stroke-miterlimit="10" points="
	296.8,84.1 299.2,85.5 302,85.8 304.5,85 306.7,83.3 307.8,80.8 308.1,78.1 307.2,75.6 "/>
<polyline fill="none" stroke="#1B365D" stroke-width="0.72" stroke-linecap="round" stroke-linejoin="round" stroke-miterlimit="10" points="
	296.8,84.1 246.5,39.1 243.7,37.7 280.5,47.7 "/>
<polyline fill-rule="evenodd" clip-rule="evenodd" fill="#1B365D" points="13.1,104.8 10.1,104.8 7.3,121.1 10.4,121.1 12.3,110.9 
	"/>
<polyline fill-rule="evenodd" clip-rule="evenodd" fill="#1B365D" points="13.1,104.8 12.3,110.9 15.6,121.1 17,116.2 "/>
<polyline fill-rule="evenodd" clip-rule="evenodd" fill="#1B365D" points="23.9,104.8 20.9,104.8 17,116.2 15.6,121.1 18.4,121.1 
	21.7,110.9 "/>
<polyline fill-rule="evenodd" clip-rule="evenodd" fill="#1B365D" points="23.9,104.8 21.7,110.9 23.6,121.1 26.7,121.1 "/>
<polyline fill-rule="evenodd" clip-rule="evenodd" fill="#1B365D" points="37.2,104.8 34.1,104.8 27.8,121.1 31.1,121.1 32.2,117.8 
	38.8,117.8 33.6,114.8 35.5,109.3 "/>
<polyline fill-rule="evenodd" clip-rule="evenodd" fill="#1B365D" points="37.2,104.8 35.5,109.3 37.7,114.8 33.6,114.8 38.8,117.8 
	40.2,121.1 43.5,121.1 "/>
<polyline fill-rule="evenodd" clip-rule="evenodd" fill="#1B365D" points="49,104.8 46,104.8 46,121.1 49,121.1 49,110.4 "/>
<polyline fill-rule="evenodd" clip-rule="evenodd" fill="#1B365D" points="49,104.8 49,110.4 55.9,121.1 55.9,115.6 "/>
<polyline fill-rule="evenodd" clip-rule="evenodd" fill="#1B365D" points="59,104.8 55.9,104.8 55.9,121.1 59,121.1 "/>
<polyline fill-rule="evenodd" clip-rule="evenodd" fill="#1B365D" points="65.9,104.8 62.6,104.8 62.6,115.9 62.9,116.4 62.9,117.8 
	63.1,118.1 63.1,118.7 68.1,118.7 67.5,118.4 67.3,118.4 66.7,118.1 66.4,118.1 66.2,117.8 65.9,117.3 65.9,115.3 "/>
<polyline fill-rule="evenodd" clip-rule="evenodd" fill="#1B365D" points="73.6,104.8 70.6,104.8 70.6,116.7 70.3,117 70.3,117.5 
	70,117.8 69.5,118.1 69.5,118.4 68.9,118.4 68.7,118.7 63.1,118.7 63.4,118.9 63.4,119.2 63.7,119.5 64,119.8 64.2,120.3 
	64.8,120.6 65.1,120.9 65.6,120.9 65.9,121.1 66.4,121.4 69.8,121.4 70,121.1 70.6,121.1 70.9,120.9 71.4,120.6 71.7,120.3 72,120 
	72.2,119.8 72.5,119.5 72.8,119.2 73.1,118.7 73.3,118.4 73.3,117.8 73.6,117.5 73.6,114.5 "/>
<polyline fill-rule="evenodd" clip-rule="evenodd" fill="#1B365D" points="86.3,104.8 77.5,104.8 77.5,121.1 86.3,121.1 86.3,118.1 
	80.5,118.1 80.5,113.7 86.3,113.7 86.3,110.9 80.5,110.9 80.5,107.9 86.3,107.9 "/>
<polyline fill-rule="evenodd" clip-rule="evenodd" fill="#1B365D" points="92.4,104.8 89.4,104.8 89.4,121.1 96.8,121.1 96.8,118.1 
	92.4,118.1 "/>
<rect x="105.7" y="104.8" fill-rule="evenodd" clip-rule="evenodd" fill="#1B365D" width="3" height="16.3"/>
<polyline fill-rule="evenodd" clip-rule="evenodd" fill="#1B365D" points="115.3,104.8 112.3,104.8 112.3,121.1 119.7,121.1 
	119.7,118.1 115.3,118.1 "/>
<polyline fill-rule="evenodd" clip-rule="evenodd" fill="#1B365D" points="125.5,104.8 122.5,104.8 122.5,121.1 130,121.1 
	130,118.1 125.5,118.1 "/>
<polyline fill-rule="evenodd" clip-rule="evenodd" fill="#1B365D" points="141.6,104.8 132.7,104.8 132.7,121.1 141.6,121.1 
	141.6,118.1 135.8,118.1 135.8,113.7 141.6,113.7 141.6,110.9 135.8,110.9 135.8,107.9 141.6,107.9 "/>
<polyline fill-rule="evenodd" clip-rule="evenodd" fill="#1B365D" points="145.7,116.4 143.2,118.1 143.2,118.4 143.5,118.9 
	143.8,119.2 144,119.5 144.3,120 144.6,120.3 144.9,120.6 145.4,120.6 145.4,120.9 145.7,120.9 146.2,121.1 146.5,121.4 
	150.1,121.4 150.7,121.1 150.9,120.9 151.2,120.9 151.8,120.6 152,120.3 152,120 152.3,119.8 152.6,119.5 152.9,119.2 153.2,118.7 
	147.9,118.7 147.6,118.4 147.4,118.4 146.8,118.1 146.5,117.8 146.2,117.3 146,117 "/>
<polyline fill-rule="evenodd" clip-rule="evenodd" fill="#1B365D" points="144,107.3 144,107.6 143.8,108.2 143.8,108.7 144,109.3 
	144,109.5 144.3,110.1 144.3,110.4 144.6,110.9 144.9,111.2 145.1,111.5 145.4,111.7 145.7,112 146,112.6 146.2,112.9 146.8,113.1 
	147.1,113.4 147.6,114 148.2,114.2 148.5,114.5 148.7,114.8 149,115.1 149.6,115.6 149.8,115.6 149.8,115.9 150.1,116.2 
	150.1,116.7 150.4,117 150.1,117.5 150.1,117.8 149.8,118.1 149.6,118.1 149.3,118.4 149,118.7 148.5,118.7 153.2,118.7 
	153.2,117.8 153.4,117.3 153.4,116.4 153.2,115.9 153.2,115.3 152.9,115.1 152.9,114.8 152.6,114.2 152.3,114 152,113.7 
	151.5,113.1 151.2,112.9 150.9,112.6 150.4,112.3 150.1,111.7 149.6,111.5 149,110.9 148.5,110.6 148.2,110.1 147.9,109.8 
	147.6,109.5 147.4,109.5 147.1,109.3 147.1,109 146.8,108.4 147.1,108.2 147.4,107.9 147.4,107.6 147.9,107.6 148.2,107.3 "/>
<polyline fill-rule="evenodd" clip-rule="evenodd" fill="#1B365D" points="148.5,104.6 147.1,104.6 146.5,104.8 146.2,104.8 
	146,105.1 145.4,105.4 145.1,105.7 145.1,106 144.6,106.2 144.6,106.5 144.3,106.8 144,107.3 148.7,107.3 149,107.6 149.3,107.9 
	149.8,107.9 150.1,108.2 150.4,108.7 150.7,109 153.2,107.1 152.6,106.8 152.3,106.2 152,106 151.8,105.7 151.2,105.4 150.9,105.1 
	150.7,105.1 150.4,104.8 150.1,104.8 149.6,104.6 148.7,104.6 "/>
<polyline fill-rule="evenodd" clip-rule="evenodd" fill="#1B365D" points="169.2,116.2 168.9,116.4 168.3,117 168.1,117.3 
	167.8,117.5 167.5,117.8 167,117.8 166.7,118.1 166.4,118.1 166.1,118.4 165.3,118.4 164.8,118.7 164.2,118.7 170.8,118.9 
	171.4,118.4 "/>
<polyline fill-rule="evenodd" clip-rule="evenodd" fill="#1B365D" points="171.1,107.3 164.2,107.3 164.5,107.6 165.9,107.6 
	166.1,107.9 166.7,107.9 167,108.2 167.2,108.4 167.8,108.4 168.1,108.7 168.3,109 168.9,109.5 169.2,109.8 171.4,107.6 "/>
<polyline fill-rule="evenodd" clip-rule="evenodd" fill="#1B365D" points="164.2,104.6 162.3,104.6 162,104.8 161.4,104.8 
	161.2,105.1 160.6,105.1 160.3,105.4 159.8,105.7 159.5,106 159,106 158.7,106.2 158.4,106.5 158.1,107.1 157.8,107.3 157.6,107.6 
	157.3,107.9 157,108.2 156.7,108.7 156.5,109 156.2,109.5 156.2,109.8 155.9,110.4 155.9,110.6 155.6,111.2 155.6,114.5 
	155.9,115.1 155.9,115.9 156.2,116.2 156.2,116.7 156.5,117 156.7,117.5 157,117.8 157,118.1 157.3,118.4 157.6,118.9 158.1,119.2 
	158.4,119.5 158.7,119.8 159.2,120 159.5,120.3 159.8,120.6 160.3,120.9 160.6,120.9 161.2,121.1 161.4,121.1 162,121.4 
	166.1,121.4 166.7,121.1 167.5,121.1 167.8,120.9 168.1,120.9 168.3,120.6 168.6,120.6 169.2,120.3 169.4,120 169.7,119.8 
	170,119.5 170.6,119.2 170.8,118.9 164.2,118.7 163.4,118.7 163.1,118.4 162.5,118.4 162.3,118.1 161.7,118.1 161.4,117.8 
	161.2,117.8 160.9,117.5 160.6,117.3 160.1,117 159.8,116.7 159.5,116.2 159.5,115.9 159.2,115.6 159,115.3 159,114.2 158.7,114 
	158.7,111.7 159,111.2 159,110.9 159.2,110.4 159.5,110.1 159.8,109.8 160.1,109.3 160.3,109 160.6,108.7 160.9,108.4 161.2,108.2 
	161.7,108.2 162,107.9 162.5,107.6 163.6,107.6 164.2,107.3 171.1,107.3 170.8,107.1 170.3,106.8 170,106.5 169.7,106.2 169.4,106 
	168.9,105.7 168.6,105.4 168.1,105.4 167.8,105.1 167.2,105.1 167,104.8 166.4,104.8 166.1,104.6 164.8,104.6 "/>
<polyline fill-rule="evenodd" clip-rule="evenodd" fill="#1B365D" points="182.1,104.8 179.1,104.8 172.8,121.1 176.1,121.1 
	177.2,117.8 183.8,117.8 178.6,114.8 180.5,109.3 "/>
<polyline fill-rule="evenodd" clip-rule="evenodd" fill="#1B365D" points="182.1,104.8 180.5,109.3 182.7,114.8 178.6,114.8 
	183.8,117.8 185.2,121.1 188.5,121.1 "/>
<polyline fill-rule="evenodd" clip-rule="evenodd" fill="#1B365D" points="192.1,116.4 189.6,118.1 189.6,118.4 189.9,118.9 
	190.2,119.2 190.4,119.5 190.7,120 191,120.3 191.3,120.6 191.8,120.6 191.8,120.9 192.1,120.9 192.6,121.1 192.9,121.4 
	196.5,121.4 197.1,121.1 197.3,120.9 197.6,120.9 198.2,120.6 198.4,120.3 198.4,120 198.7,119.8 199,119.5 199.3,119.2 
	199.5,118.7 194.3,118.7 194,118.4 193.7,118.4 193.2,118.1 192.9,117.8 192.6,117.3 192.4,117 "/>
<polyline fill-rule="evenodd" clip-rule="evenodd" fill="#1B365D" points="190.4,107.3 190.4,107.6 190.2,108.2 190.2,108.7 
	190.4,109.3 190.4,109.5 190.7,110.1 190.7,110.4 191,110.9 191.3,111.2 191.5,111.5 191.8,111.7 192.1,112 192.4,112.6 
	192.6,112.9 193.2,113.1 193.5,113.4 194,114 194.6,114.2 194.9,114.5 195.1,114.8 195.4,115.1 196,115.6 196.2,115.6 196.2,115.9 
	196.5,116.2 196.5,116.7 196.8,117 196.5,117.5 196.5,117.8 196.2,118.1 196,118.1 195.7,118.4 195.4,118.7 194.9,118.7 
	199.5,118.7 199.5,117.8 199.8,117.3 199.8,116.4 199.5,115.9 199.5,115.3 199.3,115.1 199.3,114.8 199,114.2 198.7,114 
	198.4,113.7 197.9,113.1 197.6,112.9 197.3,112.6 196.8,112.3 196.5,111.7 196,111.5 195.4,110.9 194.9,110.6 194.6,110.1 
	194.3,109.8 194,109.5 193.7,109.5 193.5,109.3 193.5,109 193.2,108.4 193.5,108.2 193.7,107.9 193.7,107.6 194.3,107.6 
	194.6,107.3 "/>
<polyline fill-rule="evenodd" clip-rule="evenodd" fill="#1B365D" points="194.9,104.6 193.5,104.6 192.9,104.8 192.6,104.8 
	192.4,105.1 191.8,105.4 191.5,105.7 191.5,106 191,106.2 191,106.5 190.7,106.8 190.4,107.3 195.1,107.3 195.4,107.6 195.7,107.9 
	196.2,107.9 196.5,108.2 196.8,108.7 197.1,109 199.5,107.1 199,106.8 198.7,106.2 198.4,106 198.2,105.7 197.6,105.4 197.3,105.1 
	197.1,105.1 196.8,104.8 196.5,104.8 196,104.6 195.1,104.6 "/>
<polyline fill-rule="evenodd" clip-rule="evenodd" fill="#1B365D" points="217.2,104.8 214.2,104.8 207.8,121.1 211.1,121.1 
	212.2,117.8 218.9,117.8 213.6,114.8 215.6,109.3 "/>
<polyline fill-rule="evenodd" clip-rule="evenodd" fill="#1B365D" points="217.2,104.8 215.6,109.3 217.8,114.8 213.6,114.8 
	218.9,117.8 220.3,121.1 223.6,121.1 "/>
<polyline fill-rule="evenodd" clip-rule="evenodd" fill="#1B365D" points="226.9,116.4 224.4,118.1 224.4,118.4 224.7,118.9 
	225,119.2 225.2,119.5 225.5,120 225.8,120.3 226.1,120.6 226.6,120.6 226.6,120.9 226.9,120.9 227.4,121.1 227.7,121.4 
	231.3,121.4 231.9,121.1 232.1,120.9 232.4,120.9 233,120.6 233.2,120.3 233.2,120 233.5,119.8 233.8,119.5 234.1,119.2 
	234.3,118.7 229.1,118.7 228.8,118.4 228.5,118.4 228,118.1 227.7,117.8 227.4,117.3 227.2,117 "/>
<polyline fill-rule="evenodd" clip-rule="evenodd" fill="#1B365D" points="225.2,107.3 225.2,107.6 225,108.2 225,108.7 
	225.2,109.3 225.2,109.5 225.5,110.1 225.5,110.4 225.8,110.9 226.1,111.2 226.3,111.5 226.6,111.7 226.9,112 227.2,112.6 
	227.4,112.9 228,113.1 228.3,113.4 228.8,114 229.4,114.2 229.6,114.5 229.9,114.8 230.2,115.1 230.8,115.6 231,115.6 231,115.9 
	231.3,116.2 231.3,116.7 231.6,117 231.3,117.5 231.3,117.8 231,118.1 230.8,118.1 230.5,118.4 230.2,118.7 229.6,118.7 
	234.3,118.7 234.3,117.8 234.6,117.3 234.6,116.4 234.3,115.9 234.3,115.3 234.1,115.1 234.1,114.8 233.8,114.2 233.5,114 
	233.2,113.7 232.7,113.1 232.4,112.9 232.1,112.6 231.6,112.3 231.3,111.7 230.8,111.5 230.2,110.9 229.6,110.6 229.4,110.1 
	229.1,109.8 228.8,109.5 228.5,109.5 228.3,109.3 228.3,109 228,108.4 228.3,108.2 228.5,107.9 228.5,107.6 229.1,107.6 
	229.4,107.3 "/>
<polyline fill-rule="evenodd" clip-rule="evenodd" fill="#1B365D" points="229.6,104.6 228.3,104.6 227.7,104.8 227.4,104.8 
	227.2,105.1 226.6,105.4 226.3,105.7 226.3,106 225.8,106.2 225.8,106.5 225.5,106.8 225.2,107.3 229.9,107.3 230.2,107.6 
	230.5,107.9 231,107.9 231.3,108.2 231.6,108.7 231.9,109 234.3,107.1 233.8,106.8 233.5,106.2 233.2,106 233,105.7 232.4,105.4 
	232.1,105.1 231.9,105.1 231.6,104.8 231.3,104.8 230.8,104.6 229.9,104.6 "/>
<polyline fill-rule="evenodd" clip-rule="evenodd" fill="#1B365D" points="251.2,107.3 244.8,107.6 246.5,107.6 247,107.9 
	247.3,108.2 247.6,108.2 248.1,108.4 248.4,108.7 248.7,109 249,109.3 249.3,109.8 249.5,110.1 249.8,110.4 249.8,110.9 
	250.1,111.2 250.1,111.7 250.4,112 250.4,114 250.1,114.2 250.1,114.8 249.8,115.1 249.8,115.6 249.5,115.9 249.3,116.2 249,116.7 
	248.7,117 248.1,117.5 247.9,117.5 247.6,117.8 247,118.1 246.8,118.4 245.9,118.4 245.4,118.7 238.5,118.7 239,118.9 239,119.2 
	239.3,119.5 239.6,119.8 240.1,120 240.4,120.3 240.7,120.6 241.2,120.6 241.5,120.9 241.8,121.1 242.3,121.1 242.6,121.4 
	246.8,121.4 247.3,121.1 248.1,121.1 248.4,120.9 248.7,120.6 249.3,120.6 249.5,120.3 249.8,120 250.4,119.8 250.6,119.5 
	250.9,119.2 250.9,118.9 251.2,118.7 251.5,118.4 251.7,118.1 252,117.5 252.3,117.3 252.6,117 252.8,116.4 252.8,116.2 
	253.1,115.6 253.1,114.8 253.4,114.5 253.4,111.5 253.1,111.2 253.1,110.6 252.8,110.4 252.8,109.8 252.6,109.5 252.6,109 
	252.3,108.7 252,108.4 251.7,107.9 251.5,107.6 "/>
<polyline fill-rule="evenodd" clip-rule="evenodd" fill="#1B365D" points="245.1,104.6 243.2,104.6 242.9,104.8 242.3,104.8 
	242.1,105.1 241.5,105.1 241.2,105.4 240.7,105.7 240.4,106 239.9,106 239.6,106.2 239.3,106.5 239,107.1 238.8,107.3 238.5,107.6 
	238.2,107.9 237.9,108.4 237.7,108.7 237.4,109 237.1,109.5 237.1,109.8 236.8,110.4 236.8,110.6 236.5,111.2 236.5,114.8 
	236.8,115.3 236.8,115.6 237.1,116.2 237.1,116.4 237.4,116.7 237.7,117.3 237.9,117.5 237.9,118.1 238.2,118.4 238.5,118.7 
	245.1,118.7 244.3,118.7 244,118.4 243.5,118.4 243.2,118.1 242.6,118.1 242.3,117.8 241.8,117.5 241.5,117.3 241.2,117 241,116.7 
	240.7,116.4 240.4,115.9 240.1,115.6 240.1,115.3 239.9,114.8 239.9,114.5 239.6,114 239.6,112 239.9,111.7 239.9,110.9 
	240.1,110.4 240.4,110.1 240.7,109.8 241,109.3 241.2,109 241.8,108.7 242.1,108.4 242.3,108.2 242.9,107.9 243.2,107.9 
	243.7,107.6 244.8,107.6 251.2,107.3 250.9,107.1 250.6,106.8 250.4,106.2 249.8,106 249.5,106 249.3,105.7 248.7,105.4 
	248.4,105.1 247.9,105.1 247.6,104.8 247.3,104.8 246.8,104.6 245.4,104.6 "/>
<polyline fill-rule="evenodd" clip-rule="evenodd" fill="#1B365D" points="268.9,116.2 268.6,116.4 268,117 267.8,117.3 
	267.5,117.5 267.2,117.8 266.6,117.8 266.4,118.1 266.1,118.1 265.8,118.4 265,118.4 264.4,118.7 263.9,118.7 270.5,118.9 
	271.1,118.4 "/>
<polyline fill-rule="evenodd" clip-rule="evenodd" fill="#1B365D" points="270.8,107.3 263.9,107.3 264.2,107.6 265.5,107.6 
	265.8,107.9 266.4,107.9 266.6,108.2 266.9,108.4 267.5,108.4 267.8,108.7 268,109 268.6,109.5 268.9,109.8 271.1,107.6 "/>
<polyline fill-rule="evenodd" clip-rule="evenodd" fill="#1B365D" points="263.9,104.6 262,104.6 261.7,104.8 261.1,104.8 
	260.9,105.1 260.3,105.1 260,105.4 259.5,105.7 259.2,106 258.6,106 258.4,106.2 258.1,106.5 257.8,107.1 257.5,107.3 257.3,107.6 
	257,107.9 256.7,108.2 256.4,108.7 256.2,109 255.9,109.5 255.9,109.8 255.6,110.4 255.6,110.6 255.3,111.2 255.3,114.5 
	255.6,115.1 255.6,115.9 255.9,116.2 255.9,116.7 256.2,117 256.4,117.5 256.7,117.8 256.7,118.1 257,118.4 257.3,118.9 
	257.8,119.2 258.1,119.5 258.4,119.8 258.9,120 259.2,120.3 259.5,120.6 260,120.9 260.3,120.9 260.9,121.1 261.1,121.1 
	261.7,121.4 265.8,121.4 266.4,121.1 267.2,121.1 267.5,120.9 267.8,120.9 268,120.6 268.3,120.6 268.9,120.3 269.1,120 
	269.4,119.8 269.7,119.5 270.2,119.2 270.5,118.9 263.9,118.7 263.1,118.7 262.8,118.4 262.2,118.4 262,118.1 261.4,118.1 
	261.1,117.8 260.9,117.8 260.6,117.5 260.3,117.3 259.7,117 259.5,116.7 259.2,116.2 259.2,115.9 258.9,115.6 258.6,115.3 
	258.6,114.2 258.4,114 258.4,111.7 258.6,111.2 258.6,110.9 258.9,110.4 259.2,110.1 259.5,109.8 259.7,109.3 260,109 260.3,108.7 
	260.6,108.4 260.9,108.2 261.4,108.2 261.7,107.9 262.2,107.6 263.3,107.6 263.9,107.3 270.8,107.3 270.5,107.1 270,106.8 
	269.7,106.5 269.4,106.2 269.1,106 268.6,105.7 268.3,105.4 267.8,105.4 267.5,105.1 266.9,105.1 266.6,104.8 266.1,104.8 
	265.8,104.6 264.4,104.6 "/>
<rect x="273.3" y="104.8" fill-rule="evenodd" clip-rule="evenodd" fill="#1B365D" width="3" height="16.3"/>
<polyline fill-rule="evenodd" clip-rule="evenodd" fill="#1B365D" points="287.6,104.8 284.6,104.8 278.2,121.1 281.6,121.1 
	282.7,117.8 289.3,117.8 284,114.8 286,109.3 "/>
<polyline fill-rule="evenodd" clip-rule="evenodd" fill="#1B365D" points="287.6,104.8 286,109.3 288.2,114.8 284,114.8 
	289.3,117.8 290.7,121.1 294,121.1 "/>
<polyline fill-rule="evenodd" clip-rule="evenodd" fill="#1B365D" points="307.2,107.6 300.3,107.9 302,107.9 302.3,108.2 
	302.8,108.2 303.1,108.4 303.7,108.4 303.9,108.7 304.2,109 304.5,109.3 304.8,109.5 305,109.8 305.3,110.1 305.3,110.4 
	305.6,110.9 305.6,111.2 305.9,111.7 305.9,114.5 305.6,114.8 305.6,115.6 305.3,115.9 305.3,116.2 305,116.4 304.8,116.7 
	304.5,117.3 304.2,117.5 303.7,117.5 303.4,117.8 302.8,117.8 302.3,118.1 299.2,118.1 307.5,118.4 307.8,117.8 308.1,117.5 
	308.3,117 308.3,116.7 308.6,116.4 308.6,115.9 308.9,115.6 308.9,110.9 308.6,110.6 308.6,110.1 308.3,109.8 308.3,109.3 
	308.1,109 307.8,108.7 307.8,108.4 307.5,108.2 "/>
<polyline fill-rule="evenodd" clip-rule="evenodd" fill="#1B365D" points="299.8,104.8 296.2,104.8 296.2,121.1 302.5,121.1 
	302.8,120.9 304.2,120.9 304.5,120.6 304.8,120.6 305.3,120.3 305.6,120 305.9,120 306.4,119.5 306.7,119.2 307,118.9 307.2,118.7 
	307.5,118.4 299.2,118.1 299.2,107.9 300.3,107.9 307.2,107.6 307,107.3 306.7,107.1 306.4,106.8 306.1,106.5 305.9,106.2 
	305.3,106 305,105.7 304.8,105.7 304.5,105.4 303.7,105.4 303.4,105.1 302.5,105.1 302,104.8 300.3,104.8 "/>
<polyline fill-rule="evenodd" clip-rule="evenodd" fill="#1B365D" points="325.7,107.3 319.4,107.6 321.1,107.6 321.6,107.9 
	321.9,108.2 322.2,108.2 322.7,108.4 323,108.7 323.3,109 323.5,109.3 323.8,109.8 324.1,110.1 324.4,110.4 324.4,110.9 
	324.6,111.2 324.6,111.7 324.9,112 324.9,114 324.6,114.2 324.6,114.8 324.4,115.1 324.4,115.6 324.1,115.9 323.8,116.2 
	323.5,116.7 323.3,117 322.7,117.5 322.4,117.5 322.2,117.8 321.6,118.1 321.3,118.4 320.5,118.4 319.9,118.7 313,118.7 
	313.6,118.9 313.6,119.2 313.9,119.5 314.1,119.8 314.7,120 315,120.3 315.3,120.6 315.8,120.6 316.1,120.9 316.4,121.1 
	316.9,121.1 317.2,121.4 321.3,121.4 321.9,121.1 322.7,121.1 323,120.9 323.3,120.6 323.8,120.6 324.1,120.3 324.4,120 
	324.9,119.8 325.2,119.5 325.5,119.2 325.5,118.9 325.7,118.7 326,118.4 326.3,118.1 326.6,117.5 326.9,117.3 327.1,117 
	327.4,116.4 327.4,116.2 327.7,115.6 327.7,114.8 328,114.5 328,111.5 327.7,111.2 327.7,110.6 327.4,110.4 327.4,109.8 
	327.1,109.5 327.1,109 326.9,108.7 326.6,108.4 326.3,107.9 326,107.6 "/>
<polyline fill-rule="evenodd" clip-rule="evenodd" fill="#1B365D" points="319.7,104.6 317.7,104.6 317.5,104.8 316.9,104.8 
	316.6,105.1 316.1,105.1 315.8,105.4 315.3,105.7 315,106 314.4,106 314.1,106.2 313.9,106.5 313.6,107.1 313.3,107.3 313,107.6 
	312.8,107.9 312.5,108.4 312.2,108.7 311.9,109 311.7,109.5 311.7,109.8 311.4,110.4 311.4,110.6 311.1,111.2 311.1,114.8 
	311.4,115.3 311.4,115.6 311.7,116.2 311.7,116.4 311.9,116.7 312.2,117.3 312.5,117.5 312.5,118.1 312.8,118.4 313,118.7 
	319.7,118.7 318.8,118.7 318.6,118.4 318,118.4 317.7,118.1 317.2,118.1 316.9,117.8 316.4,117.5 316.1,117.3 315.8,117 
	315.5,116.7 315.3,116.4 315,115.9 314.7,115.6 314.7,115.3 314.4,114.8 314.4,114.5 314.1,114 314.1,112 314.4,111.7 314.4,110.9 
	314.7,110.4 315,110.1 315.3,109.8 315.5,109.3 315.8,109 316.4,108.7 316.6,108.4 316.9,108.2 317.5,107.9 317.7,107.9 
	318.3,107.6 319.4,107.6 325.7,107.3 325.5,107.1 325.2,106.8 324.9,106.2 324.4,106 324.1,106 323.8,105.7 323.3,105.4 323,105.1 
	322.4,105.1 322.2,104.8 321.9,104.8 321.3,104.6 319.9,104.6 "/>
<polyline fill-rule="evenodd" clip-rule="evenodd" fill="#1B365D" points="331.8,116.4 329.3,118.1 329.3,118.4 329.6,118.9 
	329.9,119.2 330.2,119.5 330.4,120 330.7,120.3 331,120.6 331.5,120.6 331.5,120.9 331.8,120.9 332.4,121.1 332.6,121.4 
	336.2,121.4 336.8,121.1 337.1,120.9 337.3,120.9 337.9,120.6 338.2,120.3 338.2,120 338.4,119.8 338.7,119.5 339,119.2 
	339.3,118.7 334,118.7 333.8,118.4 333.5,118.4 332.9,118.1 332.6,117.8 332.4,117.3 332.1,117 "/>
<polyline fill-rule="evenodd" clip-rule="evenodd" fill="#1B365D" points="330.2,107.3 330.2,107.6 329.9,108.2 329.9,108.7 
	330.2,109.3 330.2,109.5 330.4,110.1 330.4,110.4 330.7,110.9 331,111.2 331.3,111.5 331.5,111.7 331.8,112 332.1,112.6 
	332.4,112.9 332.9,113.1 333.2,113.4 333.8,114 334.3,114.2 334.6,114.5 334.9,114.8 335.1,115.1 335.7,115.6 336,115.6 336,115.9 
	336.2,116.2 336.2,116.7 336.5,117 336.2,117.5 336.2,117.8 336,118.1 335.7,118.1 335.4,118.4 335.1,118.7 334.6,118.7 
	339.3,118.7 339.3,117.8 339.6,117.3 339.6,116.4 339.3,115.9 339.3,115.3 339,115.1 339,114.8 338.7,114.2 338.4,114 338.2,113.7 
	337.6,113.1 337.3,112.9 337.1,112.6 336.5,112.3 336.2,111.7 335.7,111.5 335.1,110.9 334.6,110.6 334.3,110.1 334,109.8 
	333.8,109.5 333.5,109.5 333.2,109.3 333.2,109 332.9,108.4 333.2,108.2 333.5,107.9 333.5,107.6 334,107.6 334.3,107.3 "/>
<polyline fill-rule="evenodd" clip-rule="evenodd" fill="#1B365D" points="334.6,104.6 333.2,104.6 332.6,104.8 332.4,104.8 
	332.1,105.1 331.5,105.4 331.3,105.7 331.3,106 330.7,106.2 330.7,106.5 330.4,106.8 330.2,107.3 334.9,107.3 335.1,107.6 
	335.4,107.9 336,107.9 336.2,108.2 336.5,108.7 336.8,109 339.3,107.1 338.7,106.8 338.4,106.2 338.2,106 337.9,105.7 337.3,105.4 
	337.1,105.1 336.8,105.1 336.5,104.8 336.2,104.8 335.7,104.6 334.9,104.6 "/>
<polyline fill-rule="evenodd" clip-rule="evenodd" fill="#5E8AB4" points="89.4,133.3 86.3,133.6 87.7,133.6 87.7,133.8 88.3,133.8 
	88.5,134.1 88.8,134.4 88.8,134.7 89.1,134.9 89.1,136.3 88.8,136.6 88.5,136.9 88.3,137.2 88,137.2 87.7,137.4 86.3,137.4 
	89.6,137.7 89.6,137.4 89.9,137.2 89.9,136.9 90.2,136.6 90.2,135.8 90.5,135.5 90.5,135.2 90.2,134.9 90.2,134.4 89.9,134.1 
	89.9,133.8 89.6,133.6 "/>
<polyline fill-rule="evenodd" clip-rule="evenodd" fill="#5E8AB4" points="85.5,132.5 83.3,132.5 83.3,143.8 84.4,143.8 84.4,138.5 
	85.2,138.5 87.7,138.5 88,138.3 88.5,138.3 88.8,138 89.1,138 89.4,137.7 89.6,137.7 86.3,137.4 84.4,137.4 84.4,133.6 86.3,133.6 
	89.4,133.3 89.1,133 88.8,132.7 88,132.7 88,132.5 86,132.5 "/>
<polyline fill-rule="evenodd" clip-rule="evenodd" fill="#5E8AB4" points="97.4,132.5 97.1,132.5 91.6,143.8 93,143.8 94.6,140.2 
	99.6,140.2 95.2,139.1 97.1,134.9 "/>
<polyline fill-rule="evenodd" clip-rule="evenodd" fill="#5E8AB4" points="97.4,132.5 97.1,134.9 99,139.1 95.2,139.1 99.6,140.2 
	101.2,143.8 102.6,143.8 "/>
<polyline fill-rule="evenodd" clip-rule="evenodd" fill="#5E8AB4" points="109.2,132.5 103.2,132.5 103.2,133.6 105.7,133.6 
	105.7,143.8 106.8,143.8 106.8,133.6 109.2,133.6 "/>
<polyline fill-rule="evenodd" clip-rule="evenodd" fill="#5E8AB4" points="117.5,132.5 111.2,132.5 111.2,143.8 117.5,143.8 
	117.5,142.7 112.3,142.7 112.3,138.3 117.5,138.3 117.5,137.2 112.3,137.2 112.3,133.6 117.5,133.6 "/>
<polyline fill-rule="evenodd" clip-rule="evenodd" fill="#5E8AB4" points="128.3,132.5 127.2,132.5 127.2,141 128,143.8 
	128.3,143.8 "/>
<polyline fill-rule="evenodd" clip-rule="evenodd" fill="#5E8AB4" points="119.7,132.5 119.5,132.5 119.5,143.8 120.6,143.8 
	120.6,135.2 "/>
<polyline fill-rule="evenodd" clip-rule="evenodd" fill="#5E8AB4" points="119.7,132.5 120.6,135.2 128,143.8 127.2,141 "/>
<polyline fill-rule="evenodd" clip-rule="evenodd" fill="#5E8AB4" points="136.3,132.5 130.2,132.5 130.2,133.6 132.7,133.6 
	132.7,143.8 133.8,143.8 133.8,133.6 136.3,133.6 "/>
<polyline fill-rule="evenodd" clip-rule="evenodd" fill="#5E8AB4" points="137.7,141 136.9,141.6 136.9,141.8 137.1,142.1 
	137.4,142.4 137.4,142.7 137.7,143 138,143.2 138.2,143.2 138.2,143.5 138.5,143.5 138.8,143.8 139.1,143.8 139.3,144.1 
	140.2,144.1 141.3,144.1 141.6,143.8 141.8,143.8 142.1,143.5 142.4,143.2 142.7,143 139.6,143 139.3,142.7 139.1,142.7 
	138.8,142.4 138.5,142.1 138.2,142.1 138.2,141.8 138,141.6 "/>
<polyline fill-rule="evenodd" clip-rule="evenodd" fill="#5E8AB4" points="142.7,133.3 140.2,133.3 140.7,133.3 141,133.6 
	141.3,133.6 141.3,133.8 141.6,133.8 141.8,134.1 142.1,134.4 142.4,134.7 143.2,134.1 142.9,133.8 142.9,133.6 "/>
<polyline fill-rule="evenodd" clip-rule="evenodd" fill="#5E8AB4" points="140.2,132.2 139.3,132.2 139.1,132.5 138.8,132.5 
	138.8,132.7 138.5,132.7 138.2,133 138,133.3 138,133.6 137.7,133.6 137.7,134.1 137.4,134.4 137.4,135.2 137.7,135.5 137.7,136.1 
	138,136.3 138.2,136.6 138.2,136.9 138.5,136.9 138.8,137.2 138.8,137.4 139.1,137.7 139.6,137.7 139.9,138 139.9,138.3 
	140.4,138.5 140.7,138.8 141,138.8 141,139.1 141.3,139.4 141.6,139.6 141.8,139.9 141.8,140.2 142.1,140.5 142.1,141.6 
	141.8,142.1 141.6,142.4 141.3,142.7 141,142.7 140.7,143 140.2,143 142.7,143 142.9,142.7 142.9,142.4 143.2,142.1 143.2,141.6 
	143.5,141.3 143.5,140.5 143.2,140.2 143.2,139.9 142.9,139.6 142.9,139.4 142.7,139.1 142.4,138.8 142.1,138.5 142.1,138.3 
	141.8,138 141.6,138 141.3,137.7 140.7,137.4 140.4,137.2 140.2,136.9 139.9,136.6 139.6,136.6 139.6,136.3 139.3,136.3 
	139.1,136.1 139.1,135.8 138.8,135.5 138.8,134.1 139.1,133.8 139.3,133.6 139.6,133.6 139.9,133.3 142.7,133.3 142.4,133 
	142.1,133 141.8,132.7 141.8,132.5 141.3,132.5 141,132.2 140.4,132.2 "/>
<polyline fill-rule="evenodd" clip-rule="evenodd" fill="#5E8AB4" points="155.4,142.1 155.1,142.4 154.8,142.4 154.5,142.7 
	154.3,142.7 154,143 150.7,143 150.9,143.2 150.9,143.5 151.2,143.5 151.5,143.8 151.8,143.8 152,144.1 154,144.1 154.3,143.8 
	155.1,143.8 155.4,143.5 155.6,143.2 155.9,143.2 156.2,143 156.5,142.7 156.7,142.4 157.3,142.1 "/>
<polyline fill-rule="evenodd" clip-rule="evenodd" fill="#5E8AB4" points="158.7,139.6 158.4,139.6 158.4,139.9 158.1,140.2 
	157.8,140.2 157.6,140.5 157.3,140.7 159.2,140.7 159.5,140.5 "/>
<polyline fill-rule="evenodd" clip-rule="evenodd" fill="#5E8AB4" points="152,138.3 151.8,138.5 151.5,138.8 151.2,139.1 
	150.9,139.1 150.9,139.4 150.7,139.6 150.4,139.9 150.4,140.2 150.1,140.5 150.1,142.4 150.4,142.7 150.4,143 153.2,143 152.3,143 
	152,142.7 151.8,142.4 151.5,142.1 151.2,141.8 151.2,140.7 151.5,140.5 151.8,140.2 151.8,139.9 152,139.9 152,139.6 152.3,139.4 
	152.6,139.1 152.9,139.1 153.2,138.8 153.7,138.5 "/>
<polyline fill-rule="evenodd" clip-rule="evenodd" fill="#5E8AB4" points="156.2,133.8 154,133.8 154.3,134.1 154.8,134.1 
	155.1,134.4 155.1,134.7 155.4,134.9 155.1,135.2 155.1,135.5 154.8,135.8 154.5,136.1 154.5,136.3 154.3,136.6 154,136.6 
	153.7,136.9 152.3,136.9 152.6,137.2 152.9,137.7 152.6,137.7 152.3,138 152,138.3 153.7,138.5 153.7,138.8 154,138.8 154.3,139.1 
	154.5,139.4 154.5,139.6 156.5,141.3 156.2,141.6 155.9,141.8 155.6,142.1 155.4,142.1 157.3,142.1 158.7,143.8 160.3,143.8 
	160.1,143.5 159.8,143.5 159.8,143.2 159.5,143 159.2,142.7 159,142.4 158.7,142.1 158.4,141.8 158.1,141.6 158.1,141.3 
	158.4,141.3 158.7,141 159,140.7 157.3,140.7 156.2,139.6 154.5,137.7 154.8,137.4 155.1,137.2 155.4,136.9 155.6,136.9 
	155.6,136.6 155.9,136.3 155.9,136.1 156.2,135.8 156.2,135.5 156.5,135.2 156.5,134.7 156.2,134.4 156.2,134.1 "/>
<polyline fill-rule="evenodd" clip-rule="evenodd" fill="#5E8AB4" points="154,133 152.9,133 152.6,133.3 152.3,133.3 152,133.6 
	151.8,133.8 151.5,134.1 151.5,136.1 151.8,136.1 151.8,136.3 152,136.3 152,136.6 152.3,136.9 153.7,136.9 153.4,136.9 
	153.4,136.6 153.2,136.3 152.9,136.1 152.9,135.8 152.6,135.5 152.6,134.4 152.9,134.4 152.9,134.1 153.4,134.1 154,133.8 
	156.2,133.8 155.9,133.8 155.6,133.6 155.4,133.3 155.1,133.3 155.1,133 154.3,133 "/>
<rect x="166.1" y="132.5" fill-rule="evenodd" clip-rule="evenodd" fill="#5E8AB4" width="1.1" height="11.3"/>
<polyline fill-rule="evenodd" clip-rule="evenodd" fill="#5E8AB4" points="178.8,132.5 177.7,132.5 177.7,141 178.6,143.8 
	178.8,143.8 "/>
<polyline fill-rule="evenodd" clip-rule="evenodd" fill="#5E8AB4" points="170.3,132.5 170,132.5 170,143.8 171.1,143.8 
	171.1,135.2 "/>
<polyline fill-rule="evenodd" clip-rule="evenodd" fill="#5E8AB4" points="170.3,132.5 171.1,135.2 178.6,143.8 177.7,141 "/>
<polyline fill-rule="evenodd" clip-rule="evenodd" fill="#5E8AB4" points="190.4,132.5 189.3,132.5 189.3,141 190.2,143.8 
	190.4,143.8 "/>
<polyline fill-rule="evenodd" clip-rule="evenodd" fill="#5E8AB4" points="181.9,132.5 181.6,132.5 181.6,143.8 182.7,143.8 
	182.7,135.2 "/>
<polyline fill-rule="evenodd" clip-rule="evenodd" fill="#5E8AB4" points="181.9,132.5 182.7,135.2 190.2,143.8 189.3,141 "/>
<polyline fill-rule="evenodd" clip-rule="evenodd" fill="#5E8AB4" points="202.3,133.3 199,133.3 199.8,133.3 200.1,133.6 
	200.7,133.6 200.9,133.8 201.2,133.8 201.5,134.1 201.8,134.4 202,134.4 202.3,134.7 202.6,134.9 202.9,135.2 202.9,135.5 
	203.1,135.8 203.1,136.1 203.4,136.3 203.4,136.6 203.7,136.9 203.7,139.1 203.4,139.4 203.4,139.9 203.1,140.2 203.1,140.5 
	202.9,140.7 202.9,141 202.6,141.3 202.3,141.6 202,141.8 201.8,141.8 201.5,142.1 201.2,142.4 200.9,142.4 200.7,142.7 
	200.1,142.7 199.8,143 195.4,143 195.7,143.2 196,143.2 196.2,143.5 196.5,143.5 196.8,143.8 197.3,143.8 197.6,144.1 199,144.1 
	200.4,144.1 200.7,143.8 201.2,143.8 201.5,143.5 201.8,143.5 202,143.2 202.3,143.2 202.3,143 202.6,142.7 202.9,142.7 
	203.1,142.4 203.4,142.1 203.7,141.8 203.7,141.6 204,141.3 204.2,141 204.2,140.7 204.5,140.5 204.5,139.9 204.8,139.6 
	204.8,136.6 204.5,136.3 204.5,136.1 204.2,135.8 204.2,135.5 204,135.2 204,134.9 203.7,134.7 203.7,134.4 203.4,134.1 
	203.1,133.8 202.9,133.6 202.6,133.3 "/>
<polyline fill-rule="evenodd" clip-rule="evenodd" fill="#5E8AB4" points="198.7,132.2 197.6,132.2 197.3,132.5 196.8,132.5 
	196.5,132.7 196.2,132.7 196,133 195.7,133 195.4,133.3 195.1,133.6 194.9,133.6 194.6,133.8 194.6,134.1 194.3,134.4 194,134.7 
	194,134.9 193.7,135.2 193.5,135.5 193.5,136.1 193.2,136.3 193.2,136.9 192.9,137.2 192.9,139.1 193.2,139.4 193.2,139.9 
	193.5,140.2 193.5,140.7 193.7,141 194,141.3 194,141.6 194.3,141.8 194.6,142.1 194.6,142.4 194.9,142.4 195.1,142.7 195.1,143 
	199,143 197.9,143 197.6,142.7 197.1,142.7 196.8,142.4 196.5,142.4 196.2,142.1 196,142.1 195.7,141.8 195.4,141.6 195.1,141.3 
	195.1,141 194.9,140.7 194.9,140.5 194.6,140.2 194.6,139.9 194.3,139.6 194.3,138.8 194,138.5 194,137.7 194.3,137.4 194.3,136.6 
	194.6,136.3 194.6,136.1 194.9,135.8 194.9,135.5 195.1,135.2 195.4,134.9 195.4,134.7 195.7,134.4 196,134.4 196.2,134.1 
	196.5,133.8 196.8,133.8 197.1,133.6 197.6,133.6 197.9,133.3 202.3,133.3 202,133 201.8,133 201.5,132.7 201.2,132.7 200.9,132.5 
	200.4,132.5 200.1,132.2 199.3,132.2 "/>
<polyline fill-rule="evenodd" clip-rule="evenodd" fill="#5E8AB4" points="207.3,132.5 206.2,132.5 210.9,143.8 211.1,141.3 "/>
<polyline fill-rule="evenodd" clip-rule="evenodd" fill="#5E8AB4" points="216.1,132.5 215,132.5 211.1,141.3 210.9,143.8 
	211.1,143.8 "/>
<polyline fill-rule="evenodd" clip-rule="evenodd" fill="#5E8AB4" points="223,132.5 222.7,132.5 217.2,143.8 218.6,143.8 
	220.3,140.2 225.2,140.2 220.8,139.1 222.7,134.9 "/>
<polyline fill-rule="evenodd" clip-rule="evenodd" fill="#5E8AB4" points="223,132.5 222.7,134.9 224.7,139.1 220.8,139.1 
	225.2,140.2 226.9,143.8 228.3,143.8 "/>
<polyline fill-rule="evenodd" clip-rule="evenodd" fill="#5E8AB4" points="234.9,132.5 228.8,132.5 228.8,133.6 231.3,133.6 
	231.3,143.8 232.4,143.8 232.4,133.6 234.9,133.6 "/>
<rect x="236.3" y="132.5" fill-rule="evenodd" clip-rule="evenodd" fill="#5E8AB4" width="1.1" height="11.3"/>
<polyline fill-rule="evenodd" clip-rule="evenodd" fill="#5E8AB4" points="248.7,133.3 245.4,133.3 246.2,133.3 246.5,133.6 
	247,133.6 247.3,133.8 247.6,133.8 247.9,134.1 248.1,134.4 248.4,134.4 248.7,134.7 249,134.9 249.3,135.2 249.3,135.5 
	249.5,135.8 249.5,136.1 249.8,136.3 249.8,136.6 250.1,136.9 250.1,139.1 249.8,139.4 249.8,139.9 249.5,140.2 249.5,140.5 
	249.3,140.7 249.3,141 249,141.3 248.7,141.6 248.4,141.8 248.1,141.8 247.9,142.1 247.6,142.4 247.3,142.4 247,142.7 246.5,142.7 
	246.2,143 241.8,143 242.1,143.2 242.3,143.2 242.6,143.5 242.9,143.5 243.2,143.8 243.7,143.8 244,144.1 245.4,144.1 246.8,144.1 
	247,143.8 247.6,143.8 247.9,143.5 248.1,143.5 248.4,143.2 248.7,143.2 248.7,143 249,142.7 249.3,142.7 249.5,142.4 249.8,142.1 
	250.1,141.8 250.1,141.6 250.4,141.3 250.6,141 250.6,140.7 250.9,140.5 250.9,139.9 251.2,139.6 251.2,136.6 250.9,136.3 
	250.9,136.1 250.6,135.8 250.6,135.5 250.4,135.2 250.4,134.9 250.1,134.7 250.1,134.4 249.8,134.1 249.5,133.8 249.3,133.6 
	249,133.3 "/>
<polyline fill-rule="evenodd" clip-rule="evenodd" fill="#5E8AB4" points="245.1,132.2 244,132.2 243.7,132.5 243.2,132.5 
	242.9,132.7 242.6,132.7 242.3,133 242.1,133 241.8,133.3 241.5,133.6 241.2,133.6 241,133.8 241,134.1 240.7,134.4 240.4,134.7 
	240.4,134.9 240.1,135.2 239.9,135.5 239.9,136.1 239.6,136.3 239.6,136.9 239.3,137.2 239.3,139.1 239.6,139.4 239.6,139.9 
	239.9,140.2 239.9,140.7 240.1,141 240.4,141.3 240.4,141.6 240.7,141.8 241,142.1 241,142.4 241.2,142.4 241.5,142.7 241.5,143 
	245.4,143 244.3,143 244,142.7 243.5,142.7 243.2,142.4 242.9,142.4 242.6,142.1 242.3,142.1 242.1,141.8 241.8,141.6 241.5,141.3 
	241.5,141 241.2,140.7 241.2,140.5 241,140.2 241,139.9 240.7,139.6 240.7,138.8 240.4,138.5 240.4,137.7 240.7,137.4 240.7,136.6 
	241,136.3 241,136.1 241.2,135.8 241.2,135.5 241.5,135.2 241.8,134.9 241.8,134.7 242.1,134.4 242.3,134.4 242.6,134.1 
	242.9,133.8 243.2,133.8 243.5,133.6 244,133.6 244.3,133.3 248.7,133.3 248.4,133 248.1,133 247.9,132.7 247.6,132.7 247.3,132.5 
	246.8,132.5 246.5,132.2 245.7,132.2 "/>
<polyline fill-rule="evenodd" clip-rule="evenodd" fill="#5E8AB4" points="262.2,132.5 261.1,132.5 261.1,141 262,143.8 
	262.2,143.8 "/>
<polyline fill-rule="evenodd" clip-rule="evenodd" fill="#5E8AB4" points="253.7,132.5 253.4,132.5 253.4,143.8 254.5,143.8 
	254.5,135.2 "/>
<polyline fill-rule="evenodd" clip-rule="evenodd" fill="#5E8AB4" points="253.7,132.5 254.5,135.2 262,143.8 261.1,141 "/>
</svg>
